<svg xmlns="http://www.w3.org/2000/svg" viewBox="0 0 1500 1500" width="1500" height="1500"><path fill="#FFF" d="M0 0h1500v1500H0z"/><g transform="translate(182.0 316.0) rotate(0.0 536.5 421.5) scale(1.0000046598539603 1.0007966008531108)"><svg width="1072.995" height="842.329" viewBox="0 0 1072.995 842.329"><g fill="#1e1e1e"><path d="M5.861 84.628C22.272 71.477 1058.59-13.012 1069.447 5.01s-65.895 799.657-81.507 806.71-915.222 38.284-932.806 24.745C37.551 822.927-10.55 97.779 5.861 84.628z"/><path d="M135.438 842.333c-76.785 0-80.188-2.623-81.828-3.887-1.98-1.524-6.101-4.696-15.155-90.813-5.291-50.326-11.167-118.797-16.994-198.008C9.449 386.324.849 222.16.061 141.123-.47 86.497 2.514 84.106 4.297 82.677c1.731-1.387 6.33-5.072 164.328-20.24 93.791-9.004 220.671-19.941 348.106-30.008C759.493 13.253 1031.38-5.014 1066.41 1.236c2.93.522 4.43 1.242 5.178 2.483 1.131 1.877 4.135 6.864-4.939 125.465-5.31 69.397-13.574 161.938-23.27 260.576-18.222 185.365-41.053 386.664-50.983 418.521-1.103 3.537-2.032 5.086-3.428 5.717-9.388 4.241-277.024 14.523-466.616 20.315-87.725 2.68-213.795 6.154-316.212 7.488-28.671.374-51.891.532-70.702.532zm-78.754-7.852c10.92 5.176 193.68 3.146 466.378-5.192 231.18-7.068 450.063-16.413 463.536-19.763 1.804-2.99 7.144-22.217 20.364-129.917 8.765-71.408 19.242-167.548 29.501-270.708 21.635-217.555 34.829-389.347 30.934-402.313-3.816-1.598-28.997-3.959-172.431 4.257-92.648 5.308-220 14.206-358.595 25.055C256.437 57.814 20.136 80.455 7.509 86.552c-1.248 2.29-4.497 18.037-.733 122.302C9.21 276.27 14.017 365.903 20.31 461.241c6.271 94.993 13.277 184.483 19.728 251.986 10.004 104.671 15.19 119.32 16.646 121.254zM5.861 84.628l1.563 1.951zM1067.697 6.736c.001 0 .001.001 0 0 .001 0 .001 0 0 0z"/></g></svg></g><g transform="translate(210.0 252.0) rotate(0.0 550.0 432.5) scale(1.0005093502146547 1.0022443321055359)"><svg width="1099.44" height="863.063" viewBox="0 0 1099.44 863.063"><path d="M5.944 86.661C22.761 73.185 1084.74-13.396 1095.866 5.072c11.126 18.469-67.527 819.458-83.526 826.685-15.998 7.227-937.884 39.232-955.903 25.358S-10.873 100.138 5.944 86.661z" fill="#3054e5"/><path d="M138.637 863.067c-78.567 0-82.049-2.68-83.725-3.971-2.023-1.557-6.231-4.797-15.507-93.028-5.422-51.578-11.444-121.749-17.415-202.927C9.68 395.782.868 227.553.062 144.525-.48 88.606 2.682 86.072 4.38 84.711l1.563 1.951-1.563-1.951c1.77-1.418 6.472-5.187 168.364-20.729 96.113-9.227 226.133-20.435 356.724-30.75 248.769-19.651 527.38-38.372 563.275-31.966 2.983.532 4.509 1.261 5.265 2.516 1.156 1.919 4.228 7.018-5.07 128.534-5.441 71.115-13.909 165.946-23.846 267.024-18.673 189.951-42.068 396.229-52.243 428.874-1.124 3.606-2.067 5.185-3.479 5.822-8.814 3.981-254.35 13.976-478.147 20.812-89.897 2.746-219.089 6.307-324.041 7.674-29.432.384-53.252.545-72.545.545zm-80.652-7.935c10.987 5.321 198.3 3.243 477.937-5.308 237.112-7.25 461.53-16.832 475.084-20.261 1.841-2.997 7.308-22.553 20.879-133.097 8.984-73.185 19.724-171.731 30.241-277.487 22.192-223.155 35.713-399.277 31.69-412.337-3.822-1.643-29.426-4.091-176.647 4.341-94.947 5.438-225.481 14.558-367.554 25.68C262.528 59.136 20.289 82.35 7.588 88.587c-1.277 2.287-4.633 18.251-.771 125.291 2.493 69.096 7.42 160.98 13.872 258.725 6.429 97.392 13.612 189.129 20.226 258.314 10.27 107.442 15.586 122.287 17.07 124.215z" fill="#3054e5"/><path d="M1096.937 17.211c-.034-6.817-.379-10.991-1.07-12.139C1084.74-13.396 22.761 73.185 5.944 86.661c-3.28 2.628-4.045 33.01-3.018 80.321C17.278 154.33 35.481 139 50.078 129.055c26.18-17.837 896.365-98.082 1046.859-111.844z" fill="#668bff"/><path d="M2.925 169.482a2.5 2.5 0 0 1-2.499-2.445C-1.262 89.233 2.408 86.291 4.38 84.711c1.77-1.418 6.472-5.187 168.364-20.729 96.113-9.227 226.133-20.435 356.724-30.75 248.769-19.651 527.38-38.372 563.275-31.966 2.983.532 4.509 1.261 5.265 2.516.713 1.184 1.38 3.629 1.429 13.416a2.5 2.5 0 0 1-2.272 2.502c-73.022 6.678-329.937 30.335-570.025 54.392-135.95 13.623-244.729 25.189-323.317 34.38C84.992 122.37 55.392 128.46 51.485 131.121c-14.914 10.161-33.74 26.13-46.906 37.737a2.5 2.5 0 0 1-1.654.624zm4.662-80.895c-1.154 2.03-3.422 13.425-2.272 72.976 12.903-11.248 29.705-25.275 43.355-34.574 4.112-2.801 24.608-8.283 154.571-23.482 78.615-9.194 187.422-20.764 323.399-34.389 237.646-23.813 491.78-47.233 567.771-54.186-.098-5.513-.429-7.568-.614-8.297-3.89-1.644-29.656-4.068-176.627 4.349-94.947 5.438-225.48 14.558-367.554 25.679C262.528 59.136 20.288 82.351 7.587 88.587z" fill="#668bff"/><g fill="#f6f6f6"><path d="M43.173 210.325c12.972-14.001 996.463-89.877 1006.681-80.464s-46.723 665.264-56.575 678.047-907.723 23.865-916.693 12.783c-8.97-11.083-46.385-596.365-33.413-610.366z"/><path d="M263.662 827.739c-19.132 0-37.149-.042-53.872-.128-131.365-.675-133.732-3.601-135.147-5.348-1.117-1.381-3.733-4.612-11.378-99.448-4.56-56.566-9.702-131.675-14.109-206.065-4.745-80.105-8.295-153.487-9.995-206.627-3.066-95.837.476-99.66 2.178-101.497 1.694-1.828 5.217-5.631 162.927-20.592 89.409-8.482 211.252-18.857 343.084-29.213 126.345-9.925 251.204-18.973 342.563-24.822 157.196-10.065 160.083-7.406 161.634-5.977 1.675 1.543 4.479 4.126-2.343 110.118-3.853 59.87-10.111 141.443-17.621 229.693-7.206 84.672-15 168.621-21.385 230.319-10.985 106.151-13.858 109.88-14.94 111.283-1.527 1.981-4.37 5.669-160.868 10.311-88.189 2.615-209.627 4.956-333.176 6.422-87.155 1.032-169.371 1.571-237.552 1.571zm-185.207-8.893c13.951 4.335 208.614 5.161 456.382 1.899 256.974-3.382 443.749-9.361 456.545-14.59 4.496-10.883 19.768-157.472 35.026-336.48 15.953-187.158 24.728-324.644 21.603-337.792-16.744-2.847-234.576 11.04-501.593 32.027-284.03 22.324-489.513 42.079-501.423 48.189-1.207 2.525-3.445 17.601-.778 99.695 1.717 52.866 5.241 125.502 9.922 204.53 9.136 154.247 20.159 291.164 24.316 302.522zM43.173 210.325l1.834 1.699zm1005.505-78.287c.001 0 .001 0 0 0zm-52.335-25.742a2.5 2.5 0 0 1-1.695-4.339l45.522-41.96a2.5 2.5 0 1 1 3.388 3.677l-45.522 41.96a2.488 2.488 0 0 1-1.693.662z"/><path d="M1038.836 103.5a2.49 2.49 0 0 1-1.738-.703l-40.494-39.164a2.5 2.5 0 0 1 3.476-3.594l40.494 39.164a2.5 2.5 0 0 1-1.738 4.297z"/></g></svg></g><g transform="translate(162.0 974.0) rotate(0.0 84.5 84.5) scale(0.969859743360191 0.9751762818663374)"><svg width="174.252" height="173.302" viewBox="0 0 174.252 173.302"><g fill="#ffd2ed"><path d="M33.773 28.099C36.036 21.708 65.486.427 70.7 2.664s28.255 49.223 28.255 49.223 47.42-29.808 52.06-27.725 23.681 48.777 20.349 54.162c-3.332 5.386-46.658 20.824-46.658 20.824s33.285 48.599 31.914 53.723c-1.371 5.123-43.887 19.432-49.975 17.802s-25.234-53.247-25.234-53.247-41.877 28.687-47.325 28.088S1.068 106.467 2.558 100.9C4.048 95.334 61.159 77 61.159 77S31.51 34.49 33.773 28.099z"/><path d="M107.868 173.284c-.735 0-1.367-.062-1.869-.196-1.742-.466-4.985-1.334-16.556-28.675-3.926-9.277-7.505-18.539-9.252-23.136-3.825 2.585-11.31 7.597-19.056 12.527-23.042 14.666-25.827 14.358-27.321 14.195-5.648-.622-19.767-20.879-22.54-24.934C-1.113 104.952-.167 101.416.144 100.254c.474-1.771 1.268-4.735 31.417-15.74 10.299-3.759 20.598-7.197 25.642-8.854-2.679-3.923-7.783-11.5-12.706-19.391C29.6 32.395 30.827 28.93 31.416 27.265c1.38-3.898 8.935-10.139 13.316-13.513C51.673 8.407 59.09 3.727 64.088 1.539 67.625-.009 69.967-.37 71.685.367c1.32.566 4.065 1.744 17.303 26.571 4.62 8.666 8.943 17.269 10.983 21.369 4.087-2.535 12.942-7.977 22.021-13.228 25.979-15.025 28.426-13.924 30.046-13.198 5.194 2.333 16.037 30.183 19.52 41.552 3.49 11.39 2.934 14.584 1.93 16.207-3.227 5.216-32.138 16.146-44.904 20.771 2.909 4.299 8.876 13.194 14.7 22.334 16.891 26.508 16.176 29.177 15.749 30.772-.331 1.236-1.338 4.999-24.814 13.149-3.429 1.191-19.444 6.618-26.351 6.618zm-.476-5.004c1.82.316 10.559-1.331 24.207-5.999 13.447-4.599 21.021-8.534 22.523-10.088-.894-4.861-16.484-29.738-31.479-51.632a2.5 2.5 0 0 1 1.224-3.768c20.527-7.315 42.979-16.652 45.33-19.729.468-1.684-1.093-10.131-7.333-26.113-5.32-13.627-10.087-22.572-11.793-24.374-4.798.59-28.747 14.202-49.785 27.426a2.497 2.497 0 0 1-3.575-1.016C86.002 31.154 73.079 7.42 69.735 4.991c-4.973-.382-31.518 18.428-33.585 23.887-.532 4.113 13.607 27.402 27.06 46.691a2.5 2.5 0 0 1-1.286 3.811C36.283 87.612 8.376 98.067 5.009 101.663c.552 5.974 24.048 39.097 29.383 41.348 4.04-.515 26.214-14.363 45.606-27.647a2.5 2.5 0 0 1 3.756 1.193c8.596 23.172 20.028 49.406 23.638 51.723zm61.785-91.154c-.001 0-.001 0 0 0zM33.773 28.099h.01z"/></g></svg></g><g transform="translate(406.0 534.0) rotate(0.0 331.0 212.0) scale(1.0009101932573126 1.00031849763486)"><svg width="661.398" height="423.865" viewBox="0 0 661.398 423.865"><g fill="#28465C"><path d="M66.52 10.437c6.746 0 43.209 27.052 44.901 34.601S79.767 168.855 79.767 168.855l59.589 2.861s-4.497-88.034 0-93.335 56.205-24.907 58.529-18.52 5.646 314.604 0 319.601-46.849-3.786-50.725-11.349-7.154-141.737-7.154-141.737S7.37 229.542 2.747 221.044 59.774 10.437 66.52 10.437z"/><path d="M190.426 383.422c-5.138 0-11.125-.921-15.312-1.71-2.696-.508-26.447-5.176-30.18-12.459-3.809-7.43-6.685-113.056-7.367-140.323-8.355.174-36.368.692-64.478.467-68.946-.553-71.283-4.85-72.539-7.159-.755-1.388-2.019-3.712 6.008-35.08 4.51-17.626 11.215-41.392 18.879-66.921C39.019 74.999 56.506 21.482 62.806 10.883c.909-1.53 1.989-2.946 3.713-2.946 7.71 0 45.292 27.413 47.34 36.554 1.666 7.433-23.687 97.061-30.822 122.018l53.685 2.577c-.316-6.622-1.113-24.191-1.554-41.988-1.148-46.295 1.081-48.923 2.279-50.334 4.483-5.285 48.072-22.466 59.03-20.502 2.437.437 3.386 1.733 3.754 2.745 1.514 4.161 2.796 96.271 3.139 161.163.16 30.206.241 73.494-.28 108.182-.759 50.511-2.243 51.824-3.552 52.982-1.748 1.549-5.181 2.088-9.112 2.088zm-50.42-159.546a2.5 2.5 0 0 1 2.498 2.439c1.253 51.286 4.23 134.828 6.887 140.672 1.308 2.552 12.333 7.112 26.649 9.812 12.11 2.283 18.274 1.717 19.878.98 1.981-7.115 2.939-69.11 2.446-159.279-.445-81.267-1.831-149.397-2.781-157.343-2.338-.5-11.055.844-27.552 6.724-15 5.347-25.192 10.459-26.708 12.05-2.45 4.844-1.561 50.741.529 91.658a2.503 2.503 0 0 1-2.616 2.625l-59.589-2.861a2.5 2.5 0 0 1-2.283-3.187c12.669-44.174 32.454-116.527 31.609-122.624-.491-2.185-7.539-9.49-19.617-18.643-11.26-8.533-19.245-12.982-22.064-13.817-3.754 5.582-16.894 42.019-35.06 101.95-18.798 62.013-27.829 99.224-27.237 104.75 5.317 3.451 53.816 6.033 134.952 4.095l.059-.001zM510.101 55.073c3.193-4.763 43.076-15.875 48.181-10.034 5.106 5.841-20.592 130.484-20.592 130.484l62.604-3.346s-6.105-164.561-.444-168.83c5.662-4.268 46.266 8.724 49.588 14.182s12.212 341.14 8.621 346.635-42.783 23.308-49.657 23.308-5.95-162.271-5.95-162.271-121.268 17.875-126.844 11.149c-5.577-6.727 31.299-176.515 34.493-181.277z"/><path d="M608.402 389.972c-.807 0-1.585-.335-2.19-.944-1.533-1.542-4.724-4.75-5.9-85.179-.484-33.095-.409-65.986-.372-75.757-8.304 1.197-33.317 4.74-58.528 7.688-63.377 7.415-66.207 4-67.729 2.165-1.338-1.614-4.472-5.395 13.433-93.468 7.108-34.966 18.644-87.419 20.909-90.796 3.435-5.124 29.093-11.95 40.937-12.708 5.872-.375 9.432.394 11.203 2.42 1.49 1.705 3.983 4.558-7.804 69.524-4.663 25.698-9.794 51.19-11.573 59.937l56.92-3.043c-.338-9.489-1.561-44.947-2.257-80.4-1.662-84.624 1.081-86.692 2.896-88.061 1.406-1.06 4.44-2.245 14.529-.315 11.752 2.248 35.371 9.724 38.699 15.193.606.996 1.522 2.5 3.616 56.895 1.221 31.709 2.517 73.489 3.65 117.644 1.155 44.987 1.99 86.771 2.354 117.654.642 54.533-.332 56.022-1.042 57.109-2.716 4.156-18.136 11.606-24.64 14.616-9.794 4.533-22.77 9.826-27.111 9.826zm-5.95-167.272a2.503 2.503 0 0 1 2.5 2.514c-.323 56.787.651 148.3 4.572 159.642 8.744-1.508 42.574-17.37 46.28-21.843 2.774-14.204-5.111-329.544-8.614-344.331-1.402-1.604-9.627-5.644-22.281-9.466-13.129-3.966-21.231-4.711-23.276-4-3.32 9.211-1.072 106.707 1.16 166.866a2.5 2.5 0 0 1-2.365 2.589l-62.604 3.347a2.499 2.499 0 0 1-2.582-3.001c9.437-45.772 23.382-120.59 21.033-128.425-.379-.233-1.743-.825-5.728-.692-13.489.446-35.914 7.849-38.34 10.534-1.707 3.797-11.182 44.798-20.006 88.125-12.177 59.795-15.45 85.704-14.57 90.146 7.409 3.045 69.138-3.826 124.456-11.979.122-.017.244-.026.365-.026zM422.258 81.421c-5.728-5.495-157.042-24.005-163.88-18.165s-10.162 335.934-6.838 343.369 204.445 17.654 210.312 13.959-33.866-333.668-39.594-339.163zm-11.04 281.141c-6.876 9.084-118.305 13.886-121.96 7.645s-.154-236.855 5.372-241.407c5.525-4.552 93.692 12.42 98.849 18.165 5.156 5.745 24.615 206.513 17.739 215.597z"/><path d="M448.102 423.868c-4.415 0-10.18-.078-17.732-.27-18.015-.457-41.316-1.452-65.609-2.801-45.535-2.53-98.698-6.598-111.343-10.429-1.768-.536-3.496-1.237-4.161-2.723-2.546-5.695-1.26-130.181-.609-173.341.686-45.431 1.684-86.653 2.811-116.075 2.073-54.123 3.935-55.713 5.295-56.875 1.19-1.016 3.181-2.716 29.473-.991 14.42.946 33.88 2.808 54.796 5.242 7.963.926 77.94 9.191 82.966 14.012 1.034.992 2.596 2.491 9.696 52.852 4.13 29.296 9.146 68.314 14.123 109.866 8.726 72.855 18.412 162.89 16.992 176.86-.131 1.286-.374 2.723-1.615 3.504-.742.467-1.858 1.169-15.083 1.169zm-194.324-18.64c5.08 2.368 38.44 6.341 103.323 10.125 54.236 3.164 95.331 4.133 102.774 3.156 1.08-9.972-5.406-77.71-16.127-167.995-10.388-87.474-20.545-160.125-23.372-167.336-4.351-2.114-35.35-7.412-79.666-12.575-47.178-5.497-75.742-6.886-80.505-5.464-2.572 7.777-5.14 74.167-6.579 170.656-1.241 83.203-1.159 160.751.152 169.433zm207.016 13.102s0 .001 0 0zM420.655 83.332h.01zM317.839 375.53c-6.056 0-11.506-.128-16.006-.395-12.04-.712-13.839-2.14-14.732-3.666-3.206-5.475-1.324-110.67-1.099-122.647.591-31.427 1.46-60.327 2.447-81.378 1.794-38.27 3.345-39.548 4.592-40.575 1.343-1.105 4.024-2.144 18.924-.444 8.771 1 20.381 2.825 32.69 5.138 7.705 1.447 46.361 8.913 50.685 13.731.837.932 2.394 2.667 6.535 36.197 2.44 19.759 5.166 45.928 7.477 71.797 2.49 27.87 4.343 53.598 5.219 72.445 1.599 34.429-.398 37.068-1.358 38.336-1.129 1.491-4.564 6.03-47.168 9.438-16.366 1.311-33.956 2.023-48.206 2.023zm-26.425-6.806c4.149 1.801 28.283 2.551 59.332.81 34.883-1.957 56.086-5.801 58.449-8.445 1.943-3.901 1.278-38.9-4.776-106.819-5.174-58.046-10.801-101.168-12.891-105.711-2.5-1.968-20.629-6.947-47.115-11.952-26.732-5.051-44.21-6.754-47.953-5.887-1.708 5.733-4.091 44.636-5.476 119.172-1.113 59.782-.911 112.082.43 118.832zm119.804-6.162h.01z"/></g></svg></g><g transform="translate(1116.0 962.0) rotate(0.0 111.5 176.5) scale(1.0125317835088994 1.013206122864876)"><svg width="220.24" height="348.399" viewBox="0 0 220.24 348.399"><path d="M152.883 2.5C138.945 2.5.468 177.983 2.523 186.469s95.701 8.451 95.701 8.451-74.486 148.262-67.785 150.953 190.546-204.767 187.258-213.945-105.014-12.591-105.014-12.591S166.821 2.5 152.883 2.5z" fill="#ffd04d"/><path d="M30.648 348.453c-.421 0-.775-.113-1.141-.26-.794-.319-1.407-.959-1.726-1.802-.78-2.063-2.404-6.355 32.917-80.467 14.048-29.476 28.512-58.56 33.486-68.519-7.74-.048-25.461-.243-43.152-1.029-13.813-.614-24.921-1.464-33.015-2.526C4.062 192.019.759 189.811.092 187.059c-.385-1.588-.911-3.762 16.109-27.528 9.863-13.772 23.762-32.12 39.137-51.661 21.164-26.9 42.957-53.315 59.789-72.472C146.23 0 150.724 0 152.883 0c1.563 0 2.889.727 3.732 2.046 1.499 2.346 5.009 7.841-18.12 64.314-8.849 21.607-18.322 42.602-21.98 50.618 8.039.318 27.815 1.186 47.635 2.72 53.299 4.126 54.992 8.849 55.901 11.387.663 1.849 1.487 4.15-21.186 32.481-12.692 15.86-30.533 37.068-51.593 61.33-41.759 48.11-85.779 96.231-104.67 114.422-7.809 7.519-10.363 9.135-11.954 9.135zM98.223 192.42a2.502 2.502 0 0 1 2.235 3.623c-24.541 48.847-61.999 126.502-67.32 145.224 10.779-9.194 45.434-45.763 93.274-100.108 55.542-63.094 86.179-101.76 88.685-108.535-4.878-3.829-43.662-8.813-102.5-10.789a2.498 2.498 0 0 1-2.184-3.549c.122-.263 12.3-26.582 23.471-53.861 19.394-47.36 19.287-57.306 18.675-59.322-5.697 2.042-32.113 29.605-78.065 86.721-39.383 48.952-66.999 87.236-69.352 93.99 4.83 3.304 39.915 6.606 92.618 6.606zm117.206-59.476c0 .001 0 .001 0 0z" fill="#ffd04d"/><g fill="#ffde8a"><path d="M124.356 53.354c-10.13 0-94.641 115.721-93.147 121.889s84.814 9.307 84.814 9.307-51.241 102.635-46.371 104.591 128.705-142.757 126.315-149.427-100.293-10.648-100.293-10.648 38.811-75.712 28.682-75.712z"/><path d="M69.788 291.681a2.81 2.81 0 0 1-1.068-.221c-.76-.305-1.346-.913-1.649-1.712-.693-1.824-1.853-4.878 22.499-56.441 9.217-19.517 18.706-38.764 22.499-46.418-7.017-.304-22.572-1.039-38.078-2.187-43.851-3.247-44.606-6.366-45.212-8.872-.355-1.467-.95-3.922 19.273-33.01 11.988-17.243 26.944-37.451 40.008-54.056 29.827-37.911 34.36-37.911 36.296-37.911 1.423 0 2.66.688 3.393 1.887 1.164 1.904 3.585 5.866-13.09 42.688-5.845 12.907-12.053 25.436-15.005 31.31 7.897.358 26.682 1.272 45.454 2.658 51.17 3.775 52.399 7.205 53.212 9.475.595 1.662 1.211 3.38-14.725 24.06-8.802 11.421-21.116 26.59-35.612 43.867-24.917 29.698-57.213 66.572-70.729 79.587-4.05 3.899-5.92 5.296-7.466 5.296zm-35.855-117.31c6.567 3.125 46.031 6.318 82.184 7.681a2.5 2.5 0 0 1 2.142 3.615c-15.88 31.808-39.814 81.75-45.292 97.925 8.938-8.478 31.3-33.01 61.016-67.968 35.889-42.219 56.357-68.914 59.211-75.004-7.444-3.498-54.412-7.3-97.622-9.055a2.5 2.5 0 0 1-2.123-3.639c15.16-29.575 30.364-64.099 30.166-71.664-4.954 3.033-21.295 21.288-47.796 56.693-23.09 30.849-39.607 55.654-41.886 61.416z"/></g></svg></g><g transform="translate(297.0 216.0) rotate(0.0 173.5 159.0) scale(1.0045974083123923 1.004977482815833)"><svg width="345.412" height="316.425" viewBox="0 0 345.412 316.425"><path d="M95.332 2.579C72.754 7.372-14.701 297.259 5.506 311.935s336.79-55.776 337.405-80.947S117.584-2.145 95.332 2.579z" fill="#aef45d"/><path d="M18.646 316.349c-7.114 0-12.295-.711-14.609-2.391-2.541-1.845-9.289-6.746 3.572-67.239 9.306-43.774 26.084-103.179 43.788-155.034 8.792-25.753 17.147-47.57 24.161-63.092C86.353 4.7 91.518.833 94.813.134c2.702-.573 10.931-2.321 68.1 45.152 36.842 30.594 82.389 72.187 118.868 108.549 29.177 29.084 63.901 66.089 63.63 77.214-.102 4.168-4.74 8.298-15.037 13.389-21.138 10.449-80.617 30.126-178.681 51.192-18.476 3.968-98.518 20.719-133.047 20.719zM95.851 5.024c-3.839.815-16.524 20.325-39.723 88.276-17.644 51.68-34.361 110.865-43.629 154.458-11.598 54.553-6.636 61.346-5.524 62.154 1.299.944 8.577 3.61 47.679-1.69 25.543-3.462 59.632-9.67 95.988-17.48 80.34-17.258 150.019-37.193 177.515-50.786 11.839-5.853 12.247-8.721 12.255-9.028.134-5.469-16.126-27.664-62.161-73.551-36.38-36.263-81.798-77.74-118.532-108.244C107.081 5.421 97.284 4.725 95.851 5.024z" fill="#aef45d"/><g fill="#3054e5"><path d="M100.464 112.225c1.486-4.42 44.452-19.437 49.086-16.401 4.634 3.037 12.229 111.423 9.684 114.653s-22.151 7.244-26.48 5.416-33.776-99.248-32.29-103.668z"/><path d="M136.098 218.764c-1.874 0-3.39-.177-4.316-.568-1.25-.528-2.542-1.074-8.465-17.817-3.177-8.982-7.183-21.275-11.278-34.614-4.623-15.058-15.236-50.495-13.944-54.336.995-2.959 9.074-7.082 24.013-12.252 11.08-3.835 25.073-7.89 28.813-5.443 1.145.75 2.135 2.032 3.591 10.951 2.396 14.688 4.764 42.577 6.062 61.996 2.844 42.528 1.345 44.43.625 45.345-2.802 3.553-17.155 6.738-25.101 6.738zm-2.001-5.054c3.924.976 19.969-2.215 22.946-4.576.623-3.841-.176-26.439-2.437-55.679-2.594-33.549-5.211-51.916-6.661-55.528-2.268-.232-10.347 1.258-23.104 5.597-12.701 4.32-20.293 8.11-21.931 9.572.449 9.714 26.477 93.714 31.187 100.614z"/><ellipse cx="151.948" cy="242.608" rx="13.383" ry="12.133" transform="matrix(.9797 -.2004 .2004 .9797 -45.5289 35.3649)"/><path d="M151.436 257.295c-7.255 0-13.651-4.667-15.049-11.504-1.617-7.905 4.049-15.764 12.629-17.519 4.112-.84 8.288-.172 11.759 1.884 3.551 2.103 5.942 5.395 6.735 9.27.793 3.875-.115 7.842-2.554 11.17-2.385 3.253-5.963 5.508-10.075 6.349-1.159.236-2.313.35-3.445.35zm1.051-24.377c-.817 0-1.644.083-2.469.252-5.879 1.203-9.797 6.415-8.733 11.619 1.065 5.204 6.714 8.462 12.593 7.257 2.893-.592 5.395-2.157 7.044-4.407 1.595-2.175 2.194-4.737 1.688-7.212-.506-2.475-2.063-4.595-4.384-5.97-1.715-1.016-3.694-1.539-5.739-1.539z"/></g><path d="M114.365 39.099c8.322-1.937 35.672 8.486 59.558 18.719C135.205 24.84 103.041.943 95.332 2.579c-10.949 2.324-37.157 71.7-58.943 144.219 26.278-42.012 67.34-105.224 77.976-107.699z" fill="#d4ff9c"/><path d="M36.387 149.299a2.501 2.501 0 0 1-2.394-3.22c11.272-37.52 23.208-72.551 33.608-98.639C85.689 2.071 92.317.664 94.812.134c3.078-.654 9.229.465 29.64 15.05 13.282 9.49 30.949 23.575 51.091 40.73a2.5 2.5 0 0 1-2.606 4.201c-42.221-18.087-54.464-19.406-58.007-18.582-2.677.623-16.101 10.151-76.423 106.59a2.495 2.495 0 0 1-2.12 1.176zM96.343 4.978c-.183 0-.347.016-.492.046-1.087.231-7.332 3.45-23.604 44.267-8.675 21.759-18.428 49.79-27.972 80.309 10.686-16.816 23.39-36.358 34.917-52.907 23.558-33.824 30.869-39.16 34.606-40.03 6.267-1.458 21.399 2.67 46.074 12.597C120.66 16.691 101.354 4.978 96.343 4.978z" fill="#d4ff9c"/></svg></g><g transform="translate(298.0 1173.0) rotate(-30.700731653660906 46.5 46.5) scale(0.5337097996005784 0.5366354687193454)"><svg width="174.252" height="173.302" viewBox="0 0 174.252 173.302"><g fill="#D4FF9C"><path d="M33.773 28.099C36.036 21.708 65.486.427 70.7 2.664s28.255 49.223 28.255 49.223 47.42-29.808 52.06-27.725 23.681 48.777 20.349 54.162c-3.332 5.386-46.658 20.824-46.658 20.824s33.285 48.599 31.914 53.723c-1.371 5.123-43.887 19.432-49.975 17.802s-25.234-53.247-25.234-53.247-41.877 28.687-47.325 28.088S1.068 106.467 2.558 100.9C4.048 95.334 61.159 77 61.159 77S31.51 34.49 33.773 28.099z"/><path d="M107.868 173.284c-.735 0-1.367-.062-1.869-.196-1.742-.466-4.985-1.334-16.556-28.675-3.926-9.277-7.505-18.539-9.252-23.136-3.825 2.585-11.31 7.597-19.056 12.527-23.042 14.666-25.827 14.358-27.321 14.195-5.648-.622-19.767-20.879-22.54-24.934C-1.113 104.952-.167 101.416.144 100.254c.474-1.771 1.268-4.735 31.417-15.74 10.299-3.759 20.598-7.197 25.642-8.854-2.679-3.923-7.783-11.5-12.706-19.391C29.6 32.395 30.827 28.93 31.416 27.265c1.38-3.898 8.935-10.139 13.316-13.513C51.673 8.407 59.09 3.727 64.088 1.539 67.625-.009 69.967-.37 71.685.367c1.32.566 4.065 1.744 17.303 26.571 4.62 8.666 8.943 17.269 10.983 21.369 4.087-2.535 12.942-7.977 22.021-13.228 25.979-15.025 28.426-13.924 30.046-13.198 5.194 2.333 16.037 30.183 19.52 41.552 3.49 11.39 2.934 14.584 1.93 16.207-3.227 5.216-32.138 16.146-44.904 20.771 2.909 4.299 8.876 13.194 14.7 22.334 16.891 26.508 16.176 29.177 15.749 30.772-.331 1.236-1.338 4.999-24.814 13.149-3.429 1.191-19.444 6.618-26.351 6.618zm-.476-5.004c1.82.316 10.559-1.331 24.207-5.999 13.447-4.599 21.021-8.534 22.523-10.088-.894-4.861-16.484-29.738-31.479-51.632a2.5 2.5 0 0 1 1.224-3.768c20.527-7.315 42.979-16.652 45.33-19.729.468-1.684-1.093-10.131-7.333-26.113-5.32-13.627-10.087-22.572-11.793-24.374-4.798.59-28.747 14.202-49.785 27.426a2.497 2.497 0 0 1-3.575-1.016C86.002 31.154 73.079 7.42 69.735 4.991c-4.973-.382-31.518 18.428-33.585 23.887-.532 4.113 13.607 27.402 27.06 46.691a2.5 2.5 0 0 1-1.286 3.811C36.283 87.612 8.376 98.067 5.009 101.663c.552 5.974 24.048 39.097 29.383 41.348 4.04-.515 26.214-14.363 45.606-27.647a2.5 2.5 0 0 1 3.756 1.193c8.596 23.172 20.028 49.406 23.638 51.723zm61.785-91.154c-.001 0-.001 0 0 0zM33.773 28.099h.01z"/></g></svg></g></svg>