<svg xmlns="http://www.w3.org/2000/svg" viewBox="0 0 1600 1200" width="1600" height="1200"><g transform="translate(244.0 778.0) rotate(0.0 170.5 120.5) scale(3.438539881012403 3.400112866817156)"><svg width="99.17" height="70.88" viewBox="0 0 99.17 70.88"><linearGradient id="a" gradientUnits="userSpaceOnUse" x1="40.327" x2="76.859" y1="16.18" y2="16.18"><stop offset="0" stop-color="#eee"/><stop offset=".355" stop-color="#e7e8e8"/><stop offset=".757" stop-color="#d9dadb"/><stop offset="1" stop-color="#d6d7d8"/></linearGradient><linearGradient id="b" gradientTransform="matrix(1.169 0 0 1.09 -980.278 -519.194)" gradientUnits="userSpaceOnUse" x1="899.568" x2="916.018" y1="518.293" y2="518.293"><stop offset=".006" stop-color="#23286b"/><stop offset=".381" stop-color="#212667"/><stop offset=".757" stop-color="#1b205b"/><stop offset="1" stop-color="#151a4f"/></linearGradient><linearGradient id="c" gradientUnits="userSpaceOnUse" x2="38.01" y1="6.188" y2="6.188"><stop offset="0" stop-color="#a1c3fc"/><stop offset=".354" stop-color="#9abffa"/><stop offset=".859" stop-color="#88b2f4"/><stop offset="1" stop-color="#81aef2"/></linearGradient><path d="m68.857 30.373-9.668-18.779a4.435 4.435 0 0 1-.249-.581 1.14 1.14 0 0 0-.3-.026l-18.113.4-.2-9 18.111-.4c4.318-.091 8.094 2.483 9.036 6.037l9.385 18.228z" fill="url(#a)"/><rect fill="url(#b)" height="51.091" rx="5.767" transform="matrix(.89929078 -.43735122 .43735122 .89929078 -11.775 40.149)" width="19.237" x="71.67" y="20.095"/><path d="M31.7 12.376c-3.493 0-31.7-2.77-31.7-6.188S28.207 0 31.7 0a6.252 6.252 0 0 1 6.31 6.188 6.252 6.252 0 0 1-6.31 6.188z" fill="url(#c)"/><path d="M31.523 9.57c-1.906 0-6.265-1.514-6.265-3.382s4.359-3.382 6.265-3.382a3.418 3.418 0 0 1 3.452 3.382 3.418 3.418 0 0 1-3.452 3.382z" fill="#e94a47"/></svg></g><g transform="translate(180.0 666.0) rotate(21.97336050218305 53.0 52.0) scale(1.5700214767088796 1.5681780485230477)"><svg width="67.515" height="66.319" viewBox="0 0 67.515 66.319"><path d="M19.695 62.913 27.4 51.95l4.845 3.405-7.704 10.963zM14.854 38.48l8.35-15.515 9.126 4.912-8.35 15.515z" fill="#E94A47"/><g fill="#E94A47"><path d="m52.117 60.268 11.845-8.883 3.553 4.737-11.845 8.884zM0 8.945 4.288 0l5.34 2.56-4.288 8.945zm44.768 6.642 2.827-5.952 3.544 1.683-2.827 5.952z"/></g></svg></g><g transform="translate(427.0 388.0) rotate(0.0 561.0 385.0) scale(2.3970517545265184 2.3957983297863072)"><svg width="468.075" height="321.396" viewBox="0 0 468.075 321.396"><linearGradient id="d" gradientTransform="matrix(.839 .544 .544 -.839 -158.967 4326.576)" gradientUnits="userSpaceOnUse" x1="-1655.356" x2="-1783.009" y1="3668.632" y2="3668.632"><stop offset=".006" stop-color="#23286b"/><stop offset=".381" stop-color="#212667"/><stop offset=".757" stop-color="#1b205b"/><stop offset="1" stop-color="#151a4f"/></linearGradient><linearGradient xmlns:xlink="http://www.w3.org/1999/xlink" id="e" gradientTransform="matrix(-1 0 0 1 -685.968 0)" x1="-724.979" x2="-874.188" xlink:href="#d" y1="292.931" y2="292.931"/><linearGradient id="f" gradientUnits="userSpaceOnUse" x1="53.276" x2="237.554" y1="199.843" y2="199.843"><stop offset="0" stop-color="#428dfc"/><stop offset=".339" stop-color="#2e7ee8"/><stop offset=".674" stop-color="#2175dc"/><stop offset="1" stop-color="#1d72d8"/></linearGradient><linearGradient id="g" gradientUnits="userSpaceOnUse" x1="155.233" x2="346.252" y1="212.124" y2="212.124"><stop offset="0" stop-color="#428dfc"/><stop offset="1" stop-color="#1d72d8"/></linearGradient><path d="m340.13 296.052-1.538 23.942s50.368-2.321 88.405-.411c29.246 1.075 41.078-2.216 41.078-2.216l-102.763-63.453-35.106 41.439" fill="url(#d)"/><path d="m167.063 265.869-47.324.17s-21.9 20.6-47.509 30.466-33.219 23.489-33.219 23.489H188.22z" fill="url(#e)"/><path d="M237.527 162.521c-.487-8.008-7.413-14.222-14.549-18.3s-14.66 1.258-22.8-.273c-39.271-13.137-105.706-28.087-136.39-14.4-9.938 4.432-11.926 22.986-9.686 29.591 4.614 13.6 55.627 115.3 55.627 115.3l68.375 1.142s-6.42-29.607-16.213-40.943c-4.547-5.263 1.474-22.072-1.8-28.156-2.551-4.741-15.189 2.323-16.62-2.84a62.68 62.68 0 0 0-26.661-35.7c27.97 13.406 36.743 20.24 55.183 21.895s38.381 1.563 53.72-8.479c6.587-4.312 12.281-11.164 11.814-18.837z" fill="url(#f)"/><path d="M189.361 130.92c-2.729 2.851-3.967 6.929-5.066 10.848-11.8 42.084-25.508 83.447-28.91 127.252-.59 7.6-.458 48.92 19.984 50.974 31.388 3.154 170.883 0 170.883 0-.964-16.562-.5-23.335-.988-42.416-.056-2.191-15.058-13.252-32.239-11.709-8.958.8-22.239 7.848-29.55 3.849-8.228-4.5-20.383-10.445-29.547-9.249-11.512 1.5-27.85 14.183-33.174 1.279-1-2.412 12.649-51.124 19.584-68.462s12.34-36 10.92-54.809c-.88-11.646-4.929-23.813-13.875-30.436-8.678-6.425-20.4-6.356-30.355-2.664-17.577 6.515-31.2 24.041-34.05 43.807" fill="url(#g)"/><path d="M76.9 87.794c45.949 17.324 46.959 37.429 45.494 77.965 27.013-15.791 37.1 16.162 92.8-8.491 28.68-12.694 43.007-25.017 43.007-25.017-2.418-6-5.433-12.967-9.042-18.376-7.76-11.63-23.664-25.65-36.491-31.778s-26.776-10.779-41.027-11.989c-9.319-.791-18.146-2.82-29.723-7.722-8.056-3.411-21.857-4.891-35.308-4.15-9.539.526-16.678 1.963-27.165 5.571" fill="#151a4f"/><path d="M245.488 154.707c.066.13.132.26.268.19.137-.07.273-.139.208-.268s-.131-.259-.268-.189-.273.138-.208.267zm-.372-6.152c.066.13.131.26.268.19s.273-.139.207-.268-.131-.259-.267-.189c-.137.069-.273.138-.208.267zm-12.341 1.375c-.071.2-.006.328.131.259.065.129.2.06.273-.138.137-.07.071-.2-.131-.259-.065-.129-.2-.06-.273.138zm-18.3 21.789a.629.629 0 0 0 .327.647.717.717 0 0 0 .683-.346c0-.328-.126-.587-.328-.647a.713.713 0 0 0-.682.346zm4.852-11.076c0 .328.126.587.328.647a.729.729 0 0 0 .683-.346.631.631 0 0 0-.328-.647.718.718 0 0 0-.683.346zm28.625-11.9a.453.453 0 0 0-.349.665.512.512 0 0 0 .672.31c.273-.138.48-.406.349-.665a.513.513 0 0 0-.672-.31zm-12.873 33.511c.273-.138.546-.277.552-.6-.131-.259-.263-.518-.6-.509-.273.138-.546.277-.552.6a.912.912 0 0 0 .604.508zm.131-11.934c.272-.139.545-.277.551-.6-.131-.258-.329-.646-.6-.508s-.546.276-.552.6c.134.257.266.516.605.507zm-.407-12.314c.131.259.263.518.6.509a.389.389 0 0 0 .481-.406c0-.328-.126-.587-.465-.578s-.611.148-.617.475zm-11.77 24.173c.2.06.409-.208.48-.406s-.2-.389-.4-.449-.409.208-.48.406.202.388.404.448zm.79-10.969c-.071.2.2.389.4.449s.409-.208.48-.406-.2-.389-.4-.449-.409.208-.48.406zm1.189-10.52.132.259c.066.129.131.259.268.189.2.061.409-.207.48-.405.071-.2-.2-.389-.4-.449l-.41.208a.148.148 0 0 0-.071.2zm21.405-17.347c-.137.069-.142.4-.011.656a.812.812 0 0 0 .677-.018.742.742 0 0 0 .011-.656.8.8 0 0 0-.677.018zm-38.945 17.942c-.207.267-.076.526.262.518a.389.389 0 0 0 .612-.148.424.424 0 0 0-.263-.517.388.388 0 0 0-.611.147zm36.13 13.073a.474.474 0 0 0 .607.181c.2.061.409-.208.279-.466a.366.366 0 0 0-.536-.379c-.335.006-.543.276-.346.663zm-2.879-10.084c-.071.2.2.389.47.25.2.061.41-.207.279-.466a.366.366 0 0 0-.535-.379.329.329 0 0 0-.21.594zm-2.939-10.542c-.2-.06-.343.337-.279.466-.07.2.2.389.47.25.2.061.41-.207.279-.466.071-.2-.2-.388-.47-.25zm1.066 1.087c-.137.069-.071.2-.143.4a.307.307 0 1 0 .143-.4zm-2.89-5.365a.29.29 0 1 0 .262.517.32.32 0 0 0 .142-.4.319.319 0 0 0-.4-.12zm-11.074 6.585c.066.13.132.26.268.19s.273-.139.208-.268c-.066-.129-.131-.259-.268-.189-.137.069-.273.138-.208.267zm22.055-11.661c.066.129.2.06.339-.01s.071-.2.006-.327c-.066-.13-.2-.06-.339.009-.067.198-.138.397-.002.327zm-36.568 21.616c-.071.2.131.259.333.319a.586.586 0 0 0 .345-.337.516.516 0 0 0-.334-.319.58.58 0 0 0-.344.337zm29.869-9.443c-.137.07-.207.268.06.457.065.13.2.06.338-.009s.071-.2.006-.328a.321.321 0 0 0-.4-.12zm-4.588-4.992c.066.13.2.06.339-.009s.071-.2.006-.327a.322.322 0 0 0-.4-.121.516.516 0 0 0 .059.456zm-10.511 9.39.137-.07a.29.29 0 1 0-.262-.517.32.32 0 0 0-.142.4c.069.126.135.256.271.186zm22.29-17.633c.137-.069.339-.009.41-.207-.066-.13 0-.329-.2-.389-.137.07-.339.01-.41.208s-.133.397.204.387zM228.3 191.544c-.338.009-.546.276-.349.665a.513.513 0 0 0 .672.31c.273-.138.48-.407.349-.665a.512.512 0 0 0-.672-.31zm-3.8-11.568a.822.822 0 0 0-.349.665.513.513 0 0 0 .672.31c.273-.138.48-.407.349-.665a.512.512 0 0 0-.672-.31zm-3.6-11.507a.639.639 0 0 0-.349.664.513.513 0 0 0 .672.311c.273-.139.48-.407.349-.665a.511.511 0 0 0-.672-.31zm25.871-21.4a.615.615 0 0 0 .192.716c.267.189.54.051.747-.216s.077-.527-.191-.716a.551.551 0 0 0-.748.216zm-43.291 18.516a.614.614 0 0 0 .464.578c.338-.009.611-.147.617-.475s-.126-.587-.464-.578-.612.148-.617.475zm36.008-.033c-.273.138-.278.465-.077.526.132.259.47.25.743.112.136-.07.142-.4.011-.656-.066-.13-.4-.121-.677.018zm-7.9-9.166c-.273.138-.278.466-.082.855.066.129.4.121.677-.018a.513.513 0 0 0 .148-.725c-.132-.259-.47-.251-.743-.112zm10.684 25.152a.782.782 0 0 0-.147.726c.131.259.469.25.742.112a.513.513 0 0 0 .148-.726c-.131-.259-.469-.25-.743-.112zm-7.641-8.646c.132.259.47.25.743.111a.513.513 0 0 0 .148-.725c-.132-.259-.47-.25-.743-.112-.21.267-.279.466-.151.726zm-7.493-9.374c.132.259.47.251.743.112a.513.513 0 0 0 .147-.725c-.131-.259-.469-.251-.742-.112a.513.513 0 0 0-.151.725zm-14.5 13.035a.513.513 0 0 0 .672.31c.272-.138.48-.407.349-.665a.511.511 0 0 0-.672-.31c-.272.138-.479.406-.348.665zm-2.775-12.253c-.273.138-.481.406-.349.665a.512.512 0 0 0 .672.31c.272-.138.48-.406.349-.665a.513.513 0 0 0-.672-.31zm33.692-11.379c0 .328-.011.656.191.716.268.189.54.051.748-.216s.077-.527-.191-.717c-.268-.189-.54-.051-.748.217zm-10.4 10.633c.066.129.339-.009.476-.078a.274.274 0 0 0-.061-.458c-.065-.129-.4-.12-.475.078-.204.27-.138.404.064.46zm-7.209-6.1a.274.274 0 0 0 .06.458c.066.129.4.12.475-.078a.274.274 0 0 0-.06-.458c-.065-.129-.4-.12-.475.078zm-11.062 14.06a.4.4 0 0 0-.213.6.46.46 0 0 0 .819-.416.476.476 0 0 0-.606-.18zm-4.266-8.082c-.273.138-.344.337-.279.466a.478.478 0 0 0 .606.181.475.475 0 0 0 .213-.6.809.809 0 0 0-.54-.05z" fill="#fff" opacity=".86"/><path d="M103.112 191.224c-.106.192-23.735 19.849-23.735 19.849l6.693 14.307 40.855-10.68-4.465-23.473z" fill="#ffbeb6"/><path d="M98.879 194.808S76.9 212.433 68.847 216.126c-7.086 3.249-12.266-1.281-20.5-2.2-2.7-.3-7.239-.38-9.058 1.632-1.609 1.781-.869 4.137.465 6.1-1.737-.047-14.328.541-17.741 4.441-1.282 1.465-.938 4.523-.4 5.722 3.819 8.59 10.108 14.768 19.368 16.392s22.237-1.635 28.752-8.413c2.936-3.054 6.092-5.961 7.6-7.773a4.786 4.786 0 0 1 2.428-1.566c5.812-1.593 27.1-7.4 32.382-8.392z" fill="#ffbeb6"/><path d="M79.442 63.6c39.807 0 73.17 14.011 92.573 31.7 12.651 11.533 23.586 28.373 28.822 43.878s3.69 33.429-7.212 46.048c-4.246 4.915-9.772 8.936-13.222 14.345-2.944 4.615-4.19 9.951-6.241 14.957-7.476 18.246-27.68 31.463-49.746 32.794l-32.182-66.181c14.3-4.077 27.246-17.644 28.8-33.835 1.783-18.606-20.134-42.57-44.134-59.715" fill="#23286b"/><path d="M79.442 63.807c-12.729-.507-13.112-6.534-25.01-9.635 1.8 5.592-2.609 15.456-2.984 21.3 1.138-.054 12.045 6.38 25.451 12.32 2.737-4.01 5.558-8.244 5.972-13.033.34-3.928-2.982-10.934-3.429-10.952z" fill="#f2a19c"/><path d="M22.082 72.772c2.265 7.453 11.538 10.373 19.19 10.978 11.087.876 19.576-6.8 25.2-13.412 19.253-22.66 4.37-44.5-7.818-52.935-12.4-8.584-29.832 2.283-44.218 15.435-3.79 3.464-7.021 9.156-6.215 13.65 2.608 14.536 1.464 11.587 12.18 31.7 2.385 4.477 4.216 7.678 6.726 8.219 3.868.832 7.967-2.9 10.087-6.863a25.939 25.939 0 0 0 3.524-11.779" fill="#ffbeb6"/><path d="M38.37 88.294a.5.5 0 0 1-.068-1 7.692 7.692 0 0 0 5.042-3.321 6.173 6.173 0 0 0-.082-5.861.5.5 0 1 1 .894-.449 7.152 7.152 0 0 1 .067 6.789 8.7 8.7 0 0 1-5.782 3.833.565.565 0 0 1-.071.009z" fill="#151a4f"/><path d="M49.628 0 4.324 40.937c-5.571 5.034-5.866 13.931-.26 18.926a9.733 9.733 0 0 0 5.952 2.617c5.642.341 17.553-1.88 18.509-13.926 4.308 2.91 7.954 2.83 12.517 1.487a14.736 14.736 0 0 0 9.748-9.574 16.428 16.428 0 0 1 1.51-4.04c1.675-2.53 5.465-2.949 8.346-1.35a11.772 11.772 0 0 1 5.426 8.044 18.384 18.384 0 0 1-.946 9.387 4.7 4.7 0 0 0-.391 2.667 4.834 4.834 0 0 0 1.135 1.874 32.7 32.7 0 0 0 5.944 5.418c2.879-2.785 3.5-7.178 4.416-11.312C81.267 28.326 49.628 0 49.628 0z" fill="#23286b"/></svg></g><g transform="translate(422.0 422.0) rotate(0.0 94.5 114.0) scale(2.5439127801332524 2.5317861306979066)"><svg width="74.295" height="90.055" viewBox="0 0 74.295 90.055"><linearGradient id="h" gradientTransform="matrix(.99999829 .00185005 -.00185005 .99999829 3.813 .173)" gradientUnits="userSpaceOnUse" x1="-3.757" x2="70.61" y1="44.783" y2="44.783"><stop offset="0" stop-color="#428dfc"/><stop offset="1" stop-color="#1d72d8"/></linearGradient><path d="M74.295 69.689 33.791 0 0 30.534l1.226 22.505 50.931 37.016z" fill="url(#h)"/><path d="M31.315 35.594 3.562 61.124l23.055 16.682 23.577-21.69z" fill="#a1c3fc"/><path d="M43.791 56.636 23.37 75.422 6.851 63.47l23.413-21.538z" fill="#151a4f"/></svg></g><g transform="translate(475.0 851.0) rotate(0.0 111.5 68.5) scale(2.415380449499052 2.429164154757261)"><svg width="92.325" height="56.398" viewBox="0 0 92.325 56.398"><linearGradient id="i" gradientUnits="userSpaceOnUse" x1="92.325" x2="0" y1="28.199" y2="28.199"><stop offset=".006" stop-color="#DA4747"/><stop offset=".34" stop-color="#DD4C4C"/><stop offset=".755" stop-color="#E65B5A"/><stop offset="1" stop-color="#ED6865"/></linearGradient><path d="M77.56 0S56.494 18.505 48.442 22.2c-7.086 3.249-11.934-1.51-21.225-1.776-2.711-.078-7.238-.38-9.057 1.632-1.61 1.78-.869 4.137.464 6.1C16.887 28.109 4.3 28.7.883 32.6-.4 34.062-.055 37.12.478 38.318 4.3 46.909 11.409 54.362 20.669 55.986s22.237-1.635 28.753-8.412c4.109-4.275 8.453-8.639 8.453-8.639s28.317-7.414 34.45-8.57z" fill="url(#i)"/></svg></g><g transform="translate(69.0 31.0) rotate(0.0 337.5 563.5) scale(1.927910430709471 1.9241604206860048)"><svg width="350.12" height="585.71" viewBox="0 0 350.12 585.71"><linearGradient id="j" gradientUnits="userSpaceOnUse" x1="11.91" x2="299.45" y1="229.07" y2="229.07"><stop offset=".09" stop-color="#eee"/><stop offset=".82" stop-color="#d6d7d8"/></linearGradient><linearGradient xmlns:xlink="http://www.w3.org/1999/xlink" id="l" x1="1.29" x2="112.51" xlink:href="#j" y1="490.53" y2="490.53"/><linearGradient id="k" gradientUnits="userSpaceOnUse" x1="14.53" x2="62.33" y1="432.69" y2="432.69"><stop offset="0" stop-color="#a1c3fc"/><stop offset=".7" stop-color="#81aef2"/><stop offset="1" stop-color="#78a9ef"/></linearGradient><linearGradient xmlns:xlink="http://www.w3.org/1999/xlink" id="m" x1="285.67" x2="350.01" xlink:href="#k" y1="38.6" y2="38.6"/><path d="m18.08 432.69-6.17-219.82L155.3 38.26l141.96-12.81 2.19 24.25-131.78 11.9L36.95 220.78l25.38 211.91z" fill="url(#j)"/><ellipse cx="161.4" cy="49.13" fill="#d6d7d8" rx="17.48" ry="17.46"/><ellipse cx="24.43" cy="216.82" fill="#d6d7d8" rx="17.48" ry="17.46"/><path d="M112.51 583.91H1.61L1.29 434a36.84 36.84 0 0 1 36.85-36.82A36.85 36.85 0 0 1 74 425.32z" fill="url(#l)"/><ellipse cx="38.43" cy="432.69" fill="url(#k)" rx="23.9" ry="23.88"/><path d="M323.07 76a37.42 37.42 0 1 1 24.37-65.89 7.33 7.33 0 0 1-9.53 11.15 22.8 22.8 0 1 0 0 34.62A7.31 7.31 0 1 1 347.42 67a37.56 37.56 0 0 1-24.35 9z" fill="url(#m)"/><ellipse cx="290.4" cy="38.01" fill="#d6d7d8" rx="17.48" ry="17.46"/></svg></g></svg>