<svg xmlns="http://www.w3.org/2000/svg" viewBox="0 0 1700 2200" width="1700" height="2200"><path fill="#FFF" d="M0 0h1700v2200H0z"/><g transform="translate(1095.0 152.0) rotate(0.0 -359.5 735.5) scale(-1.0005733466186466 1.0002753987331658)"><svg width="718.588" height="1470.595" viewBox="0 0 718.588 1470.595"><path d="M713.817 1442.557c-.01 2.749-.905 5.187-2.368 7.134-3.447 4.588-30.729 18.665-30.729 18.665l-632.9-383.505c-14.961-8.707-30.162-27.67-30.222-44.981L7.826 18.053S31.714 3.343 37.239 1.627c3.478-1.08 7.418-.825 11.018 1.235l643.589 368.085a51.121 51.121 0 0 1 25.741 44.564z" fill="#fff"/><path d="M680.721 1469.355a.992.992 0 0 1-.518-.145L47.301 1085.706c-14.829-8.63-30.64-27.633-30.703-45.833L6.826 18.063a1 1 0 0 1 .476-.861c.98-.603 24.06-14.795 29.641-16.529 3.97-1.233 8.165-.764 11.812 1.322L692.344 370.08c16.257 9.297 26.313 26.707 26.245 45.435l-3.77 1027.047c-.01 2.834-.898 5.508-2.568 7.73-3.544 4.717-29.947 18.374-31.07 18.953-.145.073-.303.11-.46.11zM8.832 18.61l9.767 1021.251c.058 16.829 15.159 35.649 29.725 44.126l632.438 383.222c7.883-4.088 27.233-14.583 29.89-18.119 1.409-1.875 2.158-4.136 2.167-6.537l3.77-1027.046c.066-18.01-9.604-34.751-25.238-43.692L47.761 3.73c-3.159-1.807-6.791-2.214-10.225-1.147C32.62 4.11 12.235 16.526 8.832 18.61z"/><path d="M687.439 1457.63c-.034 9.226-10.039 14.959-18.016 10.324l-640.624-372.28a48.792 48.792 0 0 1-24.249-42L1 30.095c-.037-10.737 11.559-17.49 20.879-12.16L665.468 386.02a51.121 51.121 0 0 1 25.741 44.564z" fill="#28465C"/><path d="M675.447 1470.598a12.96 12.96 0 0 1-6.526-1.779L28.296 1096.538c-15.203-8.848-24.685-25.271-24.746-42.861L0 30.098c-.019-5.404 2.758-10.253 7.427-12.972s10.258-2.741 14.948-.059l643.589 368.085c16.257 9.298 26.313 26.708 26.244 45.436l-3.77 1027.047-1-.004 1 .004c-.017 4.694-2.459 8.89-6.532 11.224a12.972 12.972 0 0 1-6.459 1.739zM14.951 17.074c-2.241 0-4.479.594-6.517 1.781C4.389 21.21 1.984 25.411 2 30.091L5.55 1053.67c.059 16.883 9.16 32.647 23.752 41.139l640.624 372.28c3.434 1.995 7.541 2.008 10.987.033s5.512-5.524 5.526-9.496l3.77-1027.046c.066-18.01-9.604-34.751-25.237-43.692L21.382 18.803a12.926 12.926 0 0 0-6.431-1.729z"/><path d="M665.464 386.022 21.882 17.936C12.555 12.604.967 19.359 1.005 30.098l3.543 1023.576a48.807 48.807 0 0 0 24.249 41.999l640.624 372.278c7.98 4.635 17.984-1.093 18.022-10.325l3.768-1027.043a51.12 51.12 0 0 0-25.747-44.561zm1.272 1031.131c.226 9.93-6.039 14.819-13.161 10.683L42.07 1071.716c-13.349-7.772-17.834-18.399-17.89-33.849L21.722 69.44c-.029-9.59 5.153-16.458 13.472-11.71l242.262 138.977-.33 20.036a19.973 19.973 0 0 0 10.02 17.647l110.551 63.517c3.954 2.272 8.886-.582 8.886-5.143v-21.981l239.031 137.124c14.254 8.159 24.391 13.952 24.334 30.383z" fill="#fff"/><path d="M675.448 1470.596c-2.244 0-4.487-.593-6.53-1.78L28.294 1096.538c-15.198-8.843-24.68-25.266-24.747-42.859L.005 30.102c-.019-5.406 2.757-10.258 7.425-12.977 4.667-2.719 10.255-2.74 14.948-.057L665.96 385.154c16.26 9.299 26.318 26.708 26.251 45.433l-3.768 1027.043c-.019 4.697-2.462 8.893-6.535 11.227a12.978 12.978 0 0 1-6.46 1.739zM14.95 17.074c-2.24 0-4.478.594-6.514 1.78-4.044 2.355-6.448 6.558-6.432 11.241l3.542 1023.576c.064 16.887 9.166 32.65 23.752 41.138l640.624 372.277c3.435 1.996 7.544 2.009 10.99.034 3.446-1.974 5.513-5.525 5.529-9.499l3.768-1027.043c.065-18.006-9.608-34.747-25.244-43.689L21.385 18.804a12.934 12.934 0 0 0-6.435-1.73zm643.571 1413.241c-1.749 0-3.599-.54-5.448-1.614L41.567 1072.58c-12.826-7.468-18.325-17.848-18.387-34.71L20.721 69.443c-.019-6.246 2.063-11.194 5.569-13.236 1.862-1.085 5.005-1.853 9.398.655L277.952 195.84a1 1 0 0 1 .502.884l-.33 20.036a18.98 18.98 0 0 0 9.518 16.763l110.551 63.517a4.877 4.877 0 0 0 4.927-.008 4.883 4.883 0 0 0 2.461-4.268v-21.981a.998.998 0 0 1 1.498-.867L646.11 407.04c14.462 8.278 24.895 14.25 24.837 31.253l-3.213 978.865c.127 5.645-1.753 10.044-5.157 12.056a7.883 7.883 0 0 1-4.056 1.101zM30.107 57.194a5.496 5.496 0 0 0-2.809.74c-2.839 1.654-4.592 6.062-4.576 11.503l2.459 968.427c.06 16.272 5.099 25.83 17.393 32.988l611.505 356.121c2.719 1.579 5.377 1.763 7.483.519 2.725-1.61 4.285-5.466 4.175-10.314v-.026l3.213-978.865c.055-15.839-9.438-21.273-23.808-29.498l-237.559-136.28v20.255a6.86 6.86 0 0 1-3.459 5.999 6.86 6.86 0 0 1-6.925.011l-110.551-63.517a20.978 20.978 0 0 1-10.522-18.53l.32-19.446L34.696 58.597c-1.636-.933-3.184-1.403-4.589-1.403z"/><path d="M681.398 1468.002c6.511-3.458 6.05-9.72 6.05-10.38l3.76-1027.04a50.626 50.626 0 0 0-2.1-14.633l25.582-17.603a51.1 51.1 0 0 1 2.898 17.166l-3.77 1027.04c-.01 2.75-.91 5.19-2.37 7.14-3.12 4.16-25.82 16.11-30.05 18.31z"/><path d="M681.398 1469.002a1.001 1.001 0 0 1-.47-1.884l.008-.004.002-.001c4.923-2.62 5.567-6.978 5.512-9.344l-.002-.148 3.76-1027.043a49.618 49.618 0 0 0-2.059-14.344 1 1 0 0 1 .392-1.109l25.582-17.603a1 1 0 0 1 1.51.492 51.967 51.967 0 0 1 2.954 17.502l-3.77 1027.04c-.01 2.829-.899 5.504-2.57 7.735-3.264 4.353-25.855 16.239-30.379 18.593a.984.984 0 0 1-.47.118zm8.871-1052.638a51.645 51.645 0 0 1 1.939 14.222l-3.76 1027.04.002.099c.052 2.255-.447 4.347-1.434 6.167 9.678-5.223 21.599-12.089 23.632-14.8 1.411-1.884 2.162-4.147 2.17-6.544l3.77-1027.04a49.988 49.988 0 0 0-2.421-15.588z"/></svg></g><g transform="translate(1604.0 620.0) rotate(0.0 -561.0 661.0) scale(-1.0006135669644132 1.0005191801494573)"><svg width="1121.312" height="1321.314" viewBox="0 0 1121.312 1321.314"><path d="M1120.312 303.603 586.447 1l1.339 412.46c-26.407 10.121-42.351 26.627-63.278 67.541-20.8 40.664-42.634 146.275-99.999 242.426-36.202 60.681-62.021 70.738-69.864 76.419l525.736 305.165a10.276 10.276 0 0 0 10.557-.136c11.27-6.953 34.336-22.226 64.714-73.145 57.364-96.151 79.199-201.762 99.999-242.426 20.927-40.914 36.827-57.134 63.235-67.255z" fill="#fff"/><path d="M885.55 1107.406c-1.955 0-3.912-.509-5.671-1.53L354.144 800.711a1 1 0 0 1-.085-1.674c1.056-.765 2.373-1.573 4.042-2.596 11.102-6.811 34.204-20.983 65.55-73.525 37.328-62.567 59.876-130.004 76.34-179.245 9.134-27.317 16.348-48.894 23.627-63.125 20.556-40.188 36.567-57.4 63.166-67.77L585.447 1.004A1.001 1.001 0 0 1 586.94.13l533.865 302.603c.314.178.508.512.507.874l-1.426 418.446a.999.999 0 0 1-.642.93c-26.547 10.174-42.369 27.024-62.702 66.777-7.211 14.097-14.404 35.611-23.511 62.849-16.493 49.327-39.081 116.882-76.518 179.634-31.488 52.778-55.869 67.821-65.048 73.483a11.254 11.254 0 0 1-5.915 1.68zM356.523 799.779l524.361 304.367a9.263 9.263 0 0 0 9.53-.122c9.064-5.592 33.143-20.448 64.38-72.806 37.327-62.567 59.875-130.004 76.34-179.244 9.134-27.317 16.348-48.895 23.627-63.125 20.432-39.945 36.429-57.083 63.128-67.486l1.422-417.178L587.452 2.719l1.333 410.737a.999.999 0 0 1-.642.937c-26.451 10.138-42.284 27.061-62.745 67.062-7.211 14.097-14.404 35.611-23.511 62.848-16.493 49.327-39.08 116.882-76.519 179.635-31.598 52.964-54.983 67.311-66.222 74.205-.999.615-1.87 1.149-2.623 1.636z"/><path d="M359.051 801.662c-3.623-2.101-6.448-5.401-7.776-9.374-1.074-3.212-1.884-7.489-1.504-12.711 1.153-15.858 15.999-39.176 17.851-54.458 2.898-23.926-12.07-30.718-12.07-30.718l521.938 303.18s24.16 13.439 21.137 35.488c-2.091 15.25-16.697 38.599-17.851 54.458-.911 12.532 6.443 18.348 6.443 18.348s-2.214 1.846-9.622-2.481c-129.513-75.646-518.546-301.732-518.546-301.732z"/><path d="M885.535 1107.275c-1.664 0-4.336-.618-8.443-3.017-128.03-74.78-514.654-299.47-518.544-301.731-3.923-2.275-6.843-5.799-8.222-9.921-1.366-4.085-1.889-8.492-1.553-13.101.615-8.463 5.036-18.965 9.312-29.121 3.948-9.38 7.678-18.239 8.544-25.384 2.24-18.492-6.288-26.321-9.934-28.777l-1.646-.956a.999.999 0 0 1 .916-1.775c.027.012.512.241 1.281.738L877.99 996.717c.231.128 24.706 14.022 21.626 36.489-.999 7.288-4.691 16.117-8.599 25.465-4.25 10.166-8.645 20.677-9.245 28.93-.863 11.867 5.997 17.436 6.066 17.491a1.001 1.001 0 0 1 .02 1.552c-.212.176-.897.631-2.323.631zm-522.21-407.201c3.564 4.866 6.783 12.83 5.289 25.166-.899 7.423-4.681 16.407-8.686 25.919-4.213 10.007-8.569 20.355-9.161 28.491-.316 4.343.174 8.488 1.455 12.321 1.224 3.661 3.827 6.795 7.329 8.826h.001c3.89 2.261 390.516 226.952 518.548 301.733 3.559 2.079 5.781 2.639 7.062 2.722-2.203-2.477-6.078-8.265-5.385-17.798.624-8.578 5.083-19.242 9.395-29.556 3.856-9.224 7.499-17.936 8.463-24.965 2.893-21.103-20.398-34.348-20.633-34.479z"/><path d="m1 1011.738 240.162-142.643s41.065-23.183 49.833-56.968c9.333-35.963 17.984-75.514 31.379-96.459 12.129-18.964 28.041-24.377 34.916-20.382l520.198 302.296s2.928 1.831 5.69 3.931c3.565 2.712 8.914 8.837 7.258 6.948-4.342-4.956-22.905-14.242-41.297 15.419-13.102 21.13-17.807 61.08-27.14 97.043-8.768 33.785-49.833 56.968-49.833 56.968l-240.162 142.424z" fill="#fff"/><path d="M532.005 1321.315c-.174 0-.347-.045-.503-.135L.498 1012.603a1 1 0 0 1-.009-1.725l240.162-142.644c.426-.241 40.817-23.382 49.376-56.359 1.344-5.178 2.673-10.429 4.005-15.689 7.84-30.969 15.947-62.993 27.5-81.058 11.653-18.22 28.157-25.418 36.261-20.708l520.198 302.296a86.316 86.316 0 0 1 5.793 4c1.677 1.275 4.071 3.55 6.799 6.457.231.22.433.431.606.628l.076.087c.038.044.09.103.146.174l.049.053-.005.005c.255.347.534.923-.039 1.439-.209.188-.752.535-1.439-.111l-.002.001-.019-.022a3.07 3.07 0 0 1-.097-.099c-.246-.267-.49-.528-.73-.785-2.136-2.021-7.017-4.934-13.583-4.397-6.247.515-15.751 4.447-25.555 20.258-8.997 14.509-14.032 38.164-19.363 63.208-2.357 11.072-4.794 22.521-7.658 33.559-8.773 33.805-49.895 57.354-50.309 57.587l-240.144 142.414a.989.989 0 0 1-.512.143zM2.974 1011.729 532 1319.155l239.657-142.125c.425-.24 40.817-23.382 49.375-56.358 2.854-10.995 5.286-22.422 7.638-33.473 5.368-25.22 10.439-49.041 19.62-63.846 10.243-16.519 20.386-20.645 27.09-21.198a20.606 20.606 0 0 1 8.198.968c-.36-.307-.696-.579-1.005-.814-2.691-2.047-5.586-3.861-5.615-3.88L356.788 696.15c-6.181-3.593-21.693 1.483-33.571 20.056-11.379 17.792-19.446 49.657-27.246 80.472-1.333 5.264-2.663 10.519-4.008 15.701-8.773 33.805-49.895 57.353-50.309 57.587z"/></svg></g><g transform="translate(1266.0 814.0) rotate(0.0 -85.5 126.5) scale(-1.0022036759189799 1.0020436938578285)"><svg width="170.624" height="252.484" viewBox="0 0 170.624 252.484"><path d="M160.159 208.297c0 23.852-33.51 43.187-74.848 43.187s-74.848-19.336-74.848-43.187V62.922l149.695 3.572.001 141.803z" fill="#fff"/><path d="M85.312 252.484c-41.823 0-75.848-19.822-75.848-44.188V62.922c0-.269.109-.527.301-.716.193-.188.458-.291.723-.284l149.695 3.572a1 1 0 0 1 .976 1v141.802c0 24.366-34.024 44.188-75.847 44.188zM11.464 63.946v144.35c0 23.262 33.128 42.188 73.848 42.188s73.847-18.925 73.847-42.188V67.47z"/><path d="M116.945 94.738s1.94-.499 3.374-.905c9.498-2.683 31.279-9.915 39.843-21.778v136.24c0 17.314-17.661 32.252-43.157 39.138z"/><path d="M117.004 248.435a1.003 1.003 0 0 1-1-.999l-.059-152.696a1 1 0 0 1 .751-.969c.003-.001 1.928-.497 3.351-.899 9.01-2.545 30.876-9.726 39.304-21.4a1 1 0 0 1 1.81.585v136.24c0 17.16-17.23 32.901-43.896 40.104a1.056 1.056 0 0 1-.261.034zm.941-152.924.058 150.609c25.048-7.103 41.158-21.861 41.158-37.824V74.88c-9.743 10.852-29.938 17.477-38.571 19.916-.877.248-1.944.531-2.645.715z"/><path d="M169.624 68.597c0 26.868-37.748 48.648-84.312 48.648S1 95.465 1 68.597V49.648h168.624z" fill="#fff"/><path d="M85.312 118.245C38.271 118.245 0 95.973 0 68.597V49.648a1 1 0 0 1 1-1h168.624a1 1 0 0 1 1 1v18.949c0 27.376-38.271 49.648-85.312 49.648zM2 50.648v17.949c0 26.273 37.374 47.648 83.312 47.648s83.312-21.375 83.312-47.648V50.648z"/><ellipse cx="85.312" cy="49.648" fill="#28465C" rx="84.312" ry="48.648"/><path d="M85.312 99.296C38.271 99.296 0 77.024 0 49.648S38.271 0 85.312 0s85.312 22.272 85.312 49.648-38.271 49.648-85.312 49.648zm0-97.296C39.374 2 2 23.375 2 49.648s37.374 47.648 83.312 47.648 83.312-21.375 83.312-47.648S131.25 2 85.312 2z"/><path d="M125.672 111.36c14.762-4.634 26.726-11.74 34.489-20.354 6.04-6.71 9.46-14.33 9.46-22.41v-18.95c0 8.08-3.42 15.71-9.46 22.41-6.184 6.862-15.116 12.766-25.956 17.227-2.728 1.123-8.533 3.086-8.533 3.086z"/><path d="M125.672 112.36a.999.999 0 0 1-1-1V92.369c0-.429.273-.81.68-.947.058-.02 5.806-1.965 8.473-3.063 10.709-4.407 19.559-10.276 25.594-16.972 6.021-6.678 9.203-14.196 9.203-21.74a1 1 0 0 1 2 0v18.95c0 8.037-3.36 16.017-9.717 23.079-7.953 8.825-20.032 15.961-34.933 20.639-.099.03-.2.045-.3.045zm1-19.275v16.905c13.961-4.571 25.264-11.35 32.746-19.653 6.106-6.784 9.203-14.098 9.203-21.741v-8.227c-1.622 4.304-4.215 8.472-7.717 12.356-6.233 6.917-15.334 12.962-26.318 17.482-2.201.907-6.293 2.323-7.914 2.878z"/></svg></g><g transform="translate(583.0 598.0) rotate(0.0 -243.5 334.5) scale(-0.9959711229727795 0.9987966664974633)"><svg width="488.97" height="669.806" viewBox="0 0 488.97 669.806"><path d="M1.838 27.661 47.57 1l219.66 12.015 220.741 242.048-.694 195.216s-3.484 122.392-80.967 167.488c-9.625 5.607-51.365 30.564-60.55 34.008 112.662-90.944 85.63-368.568 85.63-368.568L218.058 48.461z" fill="#adc4cb"/><path d="M345.759 652.775a1 1 0 0 1-.628-1.778c57.919-46.754 78.025-144.176 84.693-217.669 6.98-76.942 1.087-144.401.601-149.695L217.578 49.42 1.742 28.656a1 1 0 0 1-.408-1.859L47.066.136c.17-.099.368-.145.559-.135l219.659 12.015a1 1 0 0 1 .685.325L488.71 254.389c.168.185.262.427.261.677l-.694 195.216c-.009.332-.996 31.167-11.467 67.109-9.683 33.236-29.687 77.778-69.997 101.24-1.479.862-3.719 2.182-6.483 3.811-15.05 8.869-46.365 27.324-54.218 30.269a1.004 1.004 0 0 1-.352.064zM5.021 26.962l213.133 20.504c.247.024.478.139.645.323l213.332 234.745a.998.998 0 0 1 .255.576c.067.695 6.684 70.424-.566 150.367-4.26 46.978-12.403 88.249-24.204 122.666-13.672 39.872-32.322 70.616-55.497 91.517 12.319-6.388 35.062-19.79 47.195-26.941 2.769-1.631 5.011-2.953 6.493-3.816 39.727-23.121 59.487-67.156 69.069-100.025 10.408-35.704 11.392-66.323 11.4-66.628l.693-194.801L266.766 13.991 47.815 2.015z"/><path d="m487.97 255.062-.694 195.216s-3.484 122.392-80.967 167.488c-9.625 5.607-51.365 30.564-60.55 34.008 112.662-90.944 85.924-365.218 85.924-365.218z"/><path d="M345.759 652.775a1 1 0 0 1-.628-1.778c57.926-46.76 78.11-143.286 84.843-216.027 7.305-78.929.78-147.631.714-148.315a1 1 0 0 1 .507-.97l56.287-31.494a1 1 0 0 1 1.488.876l-.694 195.216c-.009.332-.996 31.167-11.467 67.109-9.683 33.236-29.687 77.778-69.997 101.24-1.479.862-3.719 2.182-6.483 3.811-15.05 8.869-46.365 27.324-54.218 30.269a1.004 1.004 0 0 1-.352.064zm86.979-365.662c.649 7.227 6.168 73.04-.773 148.041-4.303 46.492-12.48 87.375-24.307 121.516-13.698 39.547-32.358 70.111-55.532 90.986 12.321-6.389 35.056-19.788 47.187-26.937 2.769-1.631 5.011-2.953 6.493-3.816 39.74-23.129 59.502-67.185 69.083-100.071 10.399-35.699 11.379-66.277 11.387-66.582l.688-193.479-54.226 30.341z"/><path d="M220.654 39.637 1 27.616l.777 189.902s2.712 112.461 65.329 235.808C139.463 595.861 217.892 659.22 217.892 659.22s65.799 29.427 141.841-14.832c77.483-45.098 80.976-167.48 80.976-167.48l.682-195.222z" fill="#fff"/><path d="M271.604 669.794c-4.053 0-7.854-.149-11.377-.396-25.833-1.816-42.577-9.192-42.743-9.266a1.023 1.023 0 0 1-.221-.135c-.785-.635-79.424-65.125-151.049-206.219C4.212 331.641.804 218.668.777 217.541L0 27.62a1.004 1.004 0 0 1 1.055-1.003l219.654 12.021a1 1 0 0 1 .685.325l220.737 242.048c.168.185.262.427.261.677l-.683 195.222c-.009.332-.998 31.165-11.472 67.104-9.685 33.234-29.69 77.774-70.001 101.236-33.659 19.591-65.277 24.543-88.632 24.543zm-53.186-11.437c1.53.656 17.667 7.352 42.037 9.052 23.524 1.643 59.749-1.172 98.774-23.886 39.726-23.122 59.489-67.155 69.073-100.021 10.41-35.701 11.396-66.318 11.405-66.623l.682-194.807L220.191 40.613 2.003 28.672l.773 188.841c.027 1.103 3.435 113.646 65.221 235.36 70.229 138.344 147.142 202.781 150.421 205.484z"/><path d="M221.195 634.541s60.207 22.283 126.96-16.569c68.018-39.589 68.839-159.668 68.839-159.668V295.592L219.214 73.38l1.982 561.161z" fill="#adc4cb"/><path d="M264.413 641.899c-1.657 0-3.258-.026-4.8-.073-23.29-.711-38.612-6.291-38.764-6.347a.998.998 0 0 1-.653-.934l-1.982-561.161a1 1 0 0 1 1.747-.669l197.78 222.212a1 1 0 0 1 .253.665v162.712c-.002.308-.306 30.547-8.942 65.23-7.991 32.092-24.956 74.677-60.394 95.302-32.195 18.739-62.837 23.063-84.245 23.063zm-42.22-8.073c6.687 2.214 63.588 19.294 125.459-16.718 34.823-20.268 51.549-62.314 59.448-94.016 8.586-34.458 8.892-64.495 8.894-64.794V295.974L220.223 76.018z"/><path d="M221.196 635.541a1 1 0 0 1-.748-.336c-.706-.796-71.272-80.928-131.017-198.617-51.741-101.924-60.409-211.277-60.49-212.37L28.29 60.689c0-.277.113-.543.315-.733.204-.19.479-.284.751-.269L219.28 72.382a1 1 0 0 1 .934.994l1.982 561.161a1 1 0 0 1-1 1.004zM30.293 61.754l.645 162.385c.078 1.018 8.723 109.988 60.276 211.543 54.363 107.088 117.69 183.006 128.972 196.166l-1.97-557.533z"/></svg></g><g transform="translate(546.0 543.0) rotate(0.0 -47.0 51.5) scale(-1.0041447677648165 1.0063605897468466)"><svg width="93.612" height="102.349" viewBox="0 0 93.612 102.349"><path d="M70.195 32.212 18.79 2.602C10.879-1.955 1 3.755 1 12.884v17.949a46.769 46.769 0 0 0 23.425 40.526l6.04 3.479v20.991l19.122-9.977 23.917 13.777c8.498 4.895 19.109-1.239 19.109-11.045v-17.59a44.759 44.759 0 0 0-22.418-38.782z" fill="#fff"/><path d="M79.866 102.352c-2.356 0-4.713-.619-6.862-1.857L49.563 86.993l-18.635 9.723a1 1 0 0 1-1.463-.886V75.416l-5.539-3.191C9.168 63.725 0 47.864 0 30.833V12.884C0 8.236 2.403 4.071 6.428 1.745c4.025-2.327 8.833-2.33 12.861-.01l51.405 29.61C84.83 39.488 93.612 54.68 93.612 70.994v17.589c0 4.967-2.567 9.416-6.868 11.902a13.705 13.705 0 0 1-6.878 1.867zm-30.28-17.499c.172 0 .345.045.499.134l23.917 13.776c3.678 2.119 8.067 2.115 11.742-.009s5.868-5.926 5.868-10.17v-17.59c0-15.6-8.398-30.129-21.916-37.916L18.291 3.468c-3.402-1.959-7.463-1.957-10.862.008C4.029 5.441 2 8.958 2 12.884v17.949c0 16.318 8.784 31.514 22.924 39.659l6.04 3.479a1 1 0 0 1 .501.866v19.341l17.659-9.213c.145-.075.304-.112.462-.112z"/></svg></g><g transform="translate(170.0 1396.0) rotate(0.0 189.0 226.5) scale(1.0101361011418815 1.009720510254347)"><svg width="374.207" height="448.639" viewBox="0 0 374.207 448.639"><path d="M257.682 439.694c-21.765 5.121-45.597 7.944-70.578 7.944C84.321 447.639 1 399.843 1 340.885v-51.931l245.15 4.566 11.531 94.241v51.933z"/><path d="M187.103 448.639C83.934 448.639 0 400.3 0 340.885v-51.931a1 1 0 0 1 .3-.714.952.952 0 0 1 .719-.286l245.15 4.567a1 1 0 0 1 .974.878l11.531 94.241a.998.998 0 0 1 .007.122v51.933c0 .464-.319.867-.771.974-22.479 5.288-46.302 7.97-70.807 7.97zM2 289.973v50.912c0 58.313 83.037 105.754 185.104 105.754 24.072 0 47.475-2.603 69.578-7.737v-51.079l-11.418-93.318zm255.682 149.721h.01z"/><path d="m246.15 293.521 126.667 2.359s.389 37.635.389 45.005c0 44.629-47.741 82.861-115.525 98.81v-51.933z" fill="#adc4cb"/><path d="M257.682 440.694a.997.997 0 0 1-1-1v-51.872l-11.524-94.18c-.035-.288.056-.576.25-.791s.468-.349.761-.33l126.667 2.359c.541.01.976.448.981.99.004.376.39 37.724.39 45.015 0 43.994-45.649 83.161-116.296 99.783a1.051 1.051 0 0 1-.229.026zm-10.399-146.152 11.392 93.098a.998.998 0 0 1 .007.122v50.667c33.075-7.94 61.248-21.118 81.539-38.15 20.926-17.564 31.986-38.103 31.986-59.394 0-6.617-.319-38.067-.379-44.023z"/><ellipse cx="187.104" cy="288.954" fill="#fff" rx="186.104" ry="106.754"/><path d="M187.103 396.708C83.934 396.708 0 348.37 0 288.954S83.934 181.2 187.103 181.2s187.104 48.338 187.104 107.754-83.934 107.754-187.104 107.754zm0-213.508C85.037 183.2 2 230.641 2 288.954s83.037 105.754 185.104 105.754 185.104-47.441 185.104-105.754S289.17 183.2 187.103 183.2z"/><path d="M62.314 72.118c-3.535 13.108-.59 22.751 3.023 40.049 4.431 21.218 7.882 37.745 8.312 52.14.831 27.812-10.085 32.046-15.113 63.474-3.163 19.772 1.749 42.506 6.572 58.434 2.187 7.221 12.166 7.839 15.253.955 9.631-21.48 26.336-53.156 40.893-52.588 24.245.947 54.149 92.282 63.536 123.025 1.73 5.665 8.715 7.66 13.177 3.765 8.367-7.303 21.302-23.122 36.634-57.271 17.453-38.874 10.731-72.959 18.135-73.298 14.129-.645 30.109 58.237 31.656 61.45 3.141 6.524 12.57 6.066 15.036-.742 4.671-12.897 9.861-32.184 8.47-51.641-2.955-41.343-18.707-45.387-15.966-76.812 2.641-30.271 17.772-34.876 17.477-67.516-.086-9.49-4.069-28.864-18.894-43.14-14.527-13.989-23.52-7.993-51.381-21.089C210.569 17.885 218.23 1.006 183.474 1c-42.287-.007-31.778 24.885-76.287 36.125-20.362 5.141-38.753 12.296-44.873 34.993z" fill="#fff"/><path d="M192.607 364.391a9.195 9.195 0 0 1-2.53-.356 9.132 9.132 0 0 1-6.244-6.136c-4.786-15.675-14.548-45.949-26.156-72.579-14.017-32.156-26.625-49.355-36.462-49.739-10.567-.42-24.724 18.055-39.942 51.998-1.605 3.581-5.031 5.647-8.953 5.4-3.906-.249-7.036-2.73-8.17-6.474-4.783-15.793-9.811-38.829-6.603-58.882 2.234-13.962 5.631-22.625 8.628-30.268 3.719-9.483 6.931-17.672 6.472-33.019-.427-14.308-3.898-30.926-8.292-51.965-.432-2.069-.855-4.029-1.258-5.898-2.966-13.756-4.926-22.843-1.751-34.616 6.458-23.95 26.921-30.987 45.594-35.702 20.542-5.188 29.238-13.334 36.91-20.521C152.807 7.246 160.544 0 183.456 0h.018c21.155.004 26.968 6.186 34.328 14.012 4.873 5.182 10.396 11.055 21.758 16.396 12.112 5.693 20.706 7.769 27.611 9.437 9.102 2.199 15.679 3.787 24.038 11.837 18.437 17.753 19.177 41.232 19.2 43.851.161 17.793-4.128 27.191-8.67 37.141-3.74 8.194-7.607 16.667-8.811 30.471-1.394 15.978 2.107 24.886 6.161 35.201 3.921 9.977 8.365 21.285 9.806 41.453 1.407 19.68-3.861 39.169-8.527 52.053-1.278 3.528-4.398 5.838-8.141 6.028-3.758.185-7.103-1.8-8.737-5.193-.267-.555-.788-2.181-1.847-5.512-4.368-13.738-17.608-55.377-28.662-55.377-.066 0-.133.001-.199.005-2.269.104-2.929 6.888-3.765 15.479-1.343 13.804-3.373 34.666-13.504 57.23-15.51 34.546-28.621 50.399-36.888 57.615a9.15 9.15 0 0 1-6.018 2.264zm-71.738-130.817c.142 0 .282.003.424.008 10.81.422 23.668 17.561 38.218 50.939 11.648 26.721 21.437 57.077 26.236 72.794.712 2.334 2.537 4.127 4.881 4.797s4.843.112 6.682-1.494c8.117-7.084 21.017-22.711 36.379-56.927 9.997-22.265 12.007-42.93 13.338-56.604 1.073-11.026 1.664-17.1 5.664-17.283 11.19-.515 22.37 30.067 30.859 56.765.852 2.681 1.526 4.798 1.744 5.25 1.278 2.655 3.897 4.215 6.833 4.063 2.925-.148 5.363-1.953 6.362-4.711 4.601-12.702 9.795-31.9 8.413-51.229-1.42-19.863-5.804-31.021-9.673-40.865-4.146-10.55-7.726-19.66-6.291-36.106 1.234-14.147 5.174-22.78 8.984-31.128 4.447-9.742 8.646-18.944 8.489-36.292-.083-9.191-4.092-28.47-18.588-42.429-7.969-7.673-14.324-9.208-23.121-11.333-6.993-1.689-15.696-3.792-27.992-9.571-11.707-5.503-17.369-11.524-22.365-16.836C209.041 7.615 203.764 2.004 183.473 2h-.018c-22.124 0-29.59 6.995-38.237 15.094-7.849 7.353-16.745 15.686-37.788 21-18.952 4.787-37.974 11.376-44.151 34.284-3.048 11.304-1.129 20.203 1.775 33.673.404 1.873.828 3.837 1.261 5.911 4.414 21.136 7.9 37.83 8.333 52.314.471 15.755-2.81 24.121-6.609 33.809-2.96 7.549-6.316 16.104-8.515 29.853-3.148 19.677 1.82 42.394 6.542 57.986 1.059 3.497 3.992 4.905 6.383 5.058 2.399.152 5.499-.876 7-4.223 10.911-24.336 26.91-53.185 41.42-53.185zM62.314 72.118h.01z"/><path d="M101.728 60.936c34.295 1.475 41.413 22.856 46.465 25.076 11.204 4.925 22.248-11.465 40.564-14.75 9.449-1.695 23.003-.291 41.302 12.907" fill="#fff"/><path d="M152.535 87.932c-1.58 0-3.156-.306-4.744-1.004-1.424-.626-2.787-2.295-4.674-4.604-5.506-6.739-15.755-19.283-41.431-20.388-.552-.024-.98-.49-.956-1.042s.487-.985 1.042-.956c26.572 1.143 37.19 14.139 42.894 21.121 1.646 2.015 2.947 3.607 3.93 4.039 5.681 2.497 11.399-.997 18.638-5.419 6.052-3.697 12.913-7.887 21.347-9.4 12.715-2.281 26.868 2.121 42.063 13.08a1 1 0 1 1-1.17 1.622c-14.739-10.63-28.378-14.914-40.541-12.733-8.065 1.447-14.755 5.533-20.658 9.138-5.651 3.451-10.718 6.546-15.74 6.546z"/></svg></g><g transform="translate(1038.0 264.0) rotate(0.0 -31.5 31.5) scale(-1.0086455331412103 0.9873989091593003)"><svg width="62.46" height="63.804" viewBox="0 0 62.46 63.804"><path d="m1 1 60.029 35.232" fill="#fff"/><path d="M61.028 37.232a.988.988 0 0 1-.505-.138L.494 1.863A1 1 0 0 1 1.506.137l60.029 35.232a1 1 0 0 1-.507 1.863z"/><path d="M1.431 15.391 61.46 50.623" fill="#fff"/><path d="M61.459 51.623a.988.988 0 0 1-.505-.138L.925 16.253a1 1 0 1 1 1.013-1.725L61.966 49.76a1 1 0 0 1-.507 1.863z"/><path d="M1.431 27.573 61.46 62.804" fill="#fff"/><path d="M61.459 63.805a.988.988 0 0 1-.505-.138L.925 28.435a1 1 0 1 1 1.013-1.725l60.029 35.232a1 1 0 0 1-.508 1.863z"/></svg></g><g transform="translate(485.0 814.0) rotate(0.0 508.0 518.5) scale(1.0009743736767385 1.0005074898164354)"><svg width="1015.011" height="1036.474" viewBox="0 0 1015.011 1036.474"><path d="M307.674 557.223a1 1 0 0 1-.509-1.862l274.801-161.705a1 1 0 0 1 1.015 1.724l-274.8 161.705a.995.995 0 0 1-.507.138zm-156.631 86.89a1 1 0 0 1-.479-1.878l105.106-57.201a1 1 0 0 1 .956 1.756L151.52 643.991a.987.987 0 0 1-.477.122zm-28.062-88.121a1.001 1.001 0 0 1-.498-1.868l426.423-244.282a1 1 0 0 1 .994 1.736L123.477 555.86a.994.994 0 0 1-.496.132zM43.935 428.04a1.001 1.001 0 0 1-.498-1.868L380.95 232.823a1 1 0 0 1 .994 1.736L44.431 427.907a.996.996 0 0 1-.496.133zm385.931-221.085a1.001 1.001 0 0 1-.498-1.868l65.418-37.476a1 1 0 0 1 .994 1.736l-65.418 37.476a1.005 1.005 0 0 1-.496.132zM43.427 363.413a1.001 1.001 0 0 1-.492-1.872l177.124-99.688a1 1 0 0 1 .981 1.743L43.916 363.284a.997.997 0 0 1-.489.129zm225.517-127.357a1 1 0 0 1-.502-1.865l226.34-130.992a1 1 0 1 1 1.002 1.731l-226.34 130.992a.998.998 0 0 1-.5.134zM43.222 264.12a1 1 0 0 1-.5-1.867l206.521-118.768a1 1 0 1 1 .997 1.733L43.719 263.986a.987.987 0 0 1-.497.134zm238.69-137.269a1 1 0 0 1-.482-1.876l100.074-55.029a1 1 0 0 1 .963 1.752l-100.074 55.029a.996.996 0 0 1-.481.124zm-239.06 67.772a1 1 0 0 1-.5-1.866l134.539-77.426a1 1 0 1 1 .998 1.733L43.35 194.489a.996.996 0 0 1-.498.134zm167.92-96.637a.999.999 0 0 1-.49-1.872L381.497.128a1.001 1.001 0 0 1 1.361.383.998.998 0 0 1-.383 1.361L211.26 97.858a.995.995 0 0 1-.488.128zm243.493 479.992a1 1 0 0 1-.5-1.867l160.763-92.633a1 1 0 1 1 .998 1.733l-160.763 92.633a.994.994 0 0 1-.498.134zM183.596 733.939a1 1 0 0 1-.5-1.866l219.641-126.559a1 1 0 0 1 .998 1.733L184.094 733.806a.997.997 0 0 1-.498.133zM1.001 529.165a1 1 0 0 1-.504-1.865l531.005-308.576a1 1 0 1 1 1.005 1.729L1.502 529.03a1.003 1.003 0 0 1-.501.135zm587.737 507.309a1 1 0 0 1-.505-1.864l197.135-115.202a1 1 0 0 1 1.009 1.727l-197.135 115.202a.993.993 0 0 1-.504.137z"/><path d="m415.953 844.226 147.41-85.663" fill="#fff"/><path d="M415.954 845.226a1 1 0 0 1-.504-1.865l147.41-85.663a1 1 0 1 1 1.005 1.729l-147.41 85.663a.994.994 0 0 1-.501.136z"/><path d="m407.258 804.611 372.787-216.633" fill="#fff"/><path d="M407.259 805.611a1 1 0 0 1-.504-1.865l372.787-216.633a1 1 0 1 1 1.005 1.729L407.76 805.476a.993.993 0 0 1-.501.135z"/><path d="m588.737 745.339 159.231-92.532" fill="#fff"/><path d="M588.738 746.339a1 1 0 0 1-.504-1.865l159.23-92.532a1 1 0 1 1 1.005 1.729l-159.23 92.532a.979.979 0 0 1-.501.136z"/><path d="m389.015 873.466-52.862 30.946-14.121-65.974 54.183-30.729z" fill="#87c159"/><path d="M336.153 905.412a1.003 1.003 0 0 1-.978-.791l-14.121-65.974a1 1 0 0 1 .485-1.079l54.183-30.729a.997.997 0 0 1 1.474.678l12.8 65.757a1 1 0 0 1-.476 1.054l-52.862 30.946a.992.992 0 0 1-.505.138zm-12.989-66.466 13.678 63.904 51.057-29.889-12.398-63.696z"/><path d="M359.772 879.376a.997.997 0 0 1-.671-.259l-25.36-22.967a1.002 1.002 0 0 1 1.343-1.483l24.102 21.828 20.742-88.689a.999.999 0 1 1 1.947.455l-21.128 90.342a.998.998 0 0 1-.975.773zm544.01-21.224c-61.332 0-111.228-25.461-111.228-56.757s49.896-56.757 111.228-56.757 111.229 25.461 111.229 56.757-49.897 56.757-111.229 56.757zm0-111.515c-60.229 0-109.228 24.564-109.228 54.757s49 54.757 109.228 54.757c60.229 0 109.229-24.564 109.229-54.757s-49-54.757-109.229-54.757z"/><path d="M840.618 828.62a.993.993 0 0 1-.399-.084c-17.203-7.505-26.677-17.584-26.677-28.38 0-6.214 3.084-12.147 9.167-17.633a1 1 0 0 1 1.34 1.486c-5.645 5.091-8.507 10.524-8.507 16.148 0 9.952 9.048 19.38 25.477 26.547a1 1 0 0 1-.401 1.916zm139.771-47.113a.995.995 0 0 1-.595-.197c-15.781-11.715-44.986-18.993-76.219-18.993-11.218 0-22.148.902-32.489 2.682a.996.996 0 0 1-1.155-.816 1 1 0 0 1 .816-1.155c10.452-1.799 21.497-2.711 32.828-2.711 31.641 0 61.303 7.429 77.412 19.388a1 1 0 0 1-.598 1.802zm-76.814 58.489a1 1 0 0 1 0-2c43.902 0 81.416-14.122 87.26-32.849a1 1 0 0 1 1.909.595c-6.094 19.528-44.429 34.254-89.169 34.254z"/><path d="M903.985 831.642c-20.533 0-39.852-3.196-54.397-8.999-14.837-5.919-23.008-13.903-23.008-22.482s8.171-16.563 23.008-22.482c14.546-5.803 33.865-8.999 54.397-8.999s39.851 3.196 54.397 8.999c14.837 5.919 23.008 13.903 23.008 22.482s-8.171 16.563-23.008 22.482c-14.546 5.803-33.864 8.999-54.397 8.999zm0-60.962c-41.579 0-75.405 13.225-75.405 29.481s33.827 29.481 75.405 29.481 75.405-13.225 75.405-29.481-33.827-29.481-75.405-29.481z"/><path d="M882.516 823.872a1 1 0 0 1-.16-1.986c3.339-.543 8.987-3.799 11.311-9.172-9.135-1.242-17.408-4.246-24.161-8.804-8.426-5.687-8.653-11.298-8.039-14.137 1.054-4.868 5.656-8.098 9.657-8.773 8.613-1.455 15.303.508 19.884 5.83 6.218 7.223 6.539 18.702 5.309 24.183.878.088 1.763.159 2.656.214 5.874.361 13.714-.939 18.858-5.538-6.447-.405-12.083-2.447-16.029-5.302-4.242-3.069-6.233-6.846-5.461-10.362.441-2.013 1.831-3.267 3.912-3.531 6.216-.79 17.254 6.986 20.329 13.057.872 1.722 1.048 3.106.865 4.203 5.873-.209 12.283-1.867 18.58-5.591a1.001 1.001 0 0 1 1.018 1.722c-6.939 4.104-14.034 5.813-20.481 5.877a4.982 4.982 0 0 1-.32.373c-4.72 4.972-12.715 7.619-21.393 7.089a70.537 70.537 0 0 1-3.126-.26c-2.481 6.384-9.148 10.263-13.048 10.897a1.244 1.244 0 0 1-.161.011zm-6.187-41.333c-1.538 0-3.162.144-4.871.432-3.337.563-7.169 3.226-8.035 7.225-.877 4.048 1.681 8.33 7.203 12.056 6.593 4.45 14.712 7.364 23.696 8.532 1.218-4.937 1.032-15.842-4.828-22.649-3.205-3.723-7.62-5.596-13.165-5.596zm24.846 5.898c-.233 0-.456.013-.669.041-1.247.159-1.95.787-2.211 1.976-.584 2.662 1.166 5.77 4.681 8.313 3.967 2.87 9.775 4.855 16.406 5 .278-.889.083-1.998-.583-3.313-2.8-5.527-12.469-12.017-17.624-12.017z"/></svg></g><g transform="translate(1514.0 978.0) rotate(0.0 -192.0 114.5) scale(-0.9929690550503079 0.9943465536556348)"><svg width="386.719" height="230.302" viewBox="0 0 386.719 230.302"><path d="m3.545 86.965 241.223 139.309a22.589 22.589 0 0 0 22.869-.162l114.94-68.569c2.134-1.273 3.178-3.468 3.14-5.645-.037-2.14.001-4.933.001-4.933L142.326 8.959a21.455 21.455 0 0 0-21.562.143L1.043 77.318s-.098 3.826.003 5.595a4.964 4.964 0 0 0 2.499 4.052z"/><path d="M256.064 230.299a23.582 23.582 0 0 1-11.796-3.158L3.045 87.831A5.993 5.993 0 0 1 .048 82.97c-.102-1.79-.008-5.52-.004-5.678.009-.35.2-.67.505-.843l119.72-68.216c6.92-4.084 15.567-4.141 22.554-.142l243.389 138.004a1 1 0 0 1 .507.884c0 .028-.038 2.802-.001 4.902a7.364 7.364 0 0 1-3.628 6.521l-114.94 68.57a23.595 23.595 0 0 1-12.086 3.327zM4.045 86.099l241.223 139.309a21.606 21.606 0 0 0 21.857-.155l114.94-68.569a5.386 5.386 0 0 0 2.653-4.769 179.132 179.132 0 0 1-.006-4.371L141.833 9.829a20.496 20.496 0 0 0-20.561.135L2.03 77.907c-.022 1.122-.061 3.641.014 4.949a3.95 3.95 0 0 0 2.001 3.243z"/><path d="M3.545 81.841 244.768 221.15a22.589 22.589 0 0 0 22.869-.162l114.94-68.569c4.233-2.525 4.177-8.674-.1-11.122L142.326 3.835a21.455 21.455 0 0 0-21.562.143L3.504 73.177C.197 75.128.22 79.92 3.545 81.841z" fill="#28465C"/><path d="M256.064 225.174a23.582 23.582 0 0 1-11.796-3.158L3.045 82.707a5.962 5.962 0 0 1-3.008-5.182 5.959 5.959 0 0 1 2.958-5.209l117.26-69.199a22.503 22.503 0 0 1 22.568-.15l240.151 137.461c2.321 1.328 3.72 3.718 3.744 6.392s-1.332 5.088-3.629 6.458l-114.94 68.569a23.579 23.579 0 0 1-12.085 3.327zM4.045 80.975l241.223 139.309a21.606 21.606 0 0 0 21.857-.155l114.94-68.569a5.391 5.391 0 0 0 2.654-4.722 5.392 5.392 0 0 0-2.738-4.674L141.829 4.702a20.495 20.495 0 0 0-20.557.136l-117.26 69.2c-1.243.734-1.982 2.033-1.975 3.477s.758 2.738 2.008 3.46z"/><path d="M110.799 35.233c0 6.378 8.994 11.549 20.089 11.549s20.089-5.171 20.089-11.549v-5.125s-10.526-6.425-20.089-6.425c-9.561 0-20.089 6.792-20.089 6.792v4.758z"/><path d="M130.888 47.782c-11.825 0-21.089-5.512-21.089-12.549v-4.757c0-.34.172-.656.458-.84.44-.284 10.887-6.952 20.631-6.952 9.732 0 20.17 6.303 20.61 6.571a1 1 0 0 1 .479.854v5.125c0 7.036-9.264 12.548-21.089 12.548zm-19.089-16.748v4.199c0 5.817 8.563 10.549 19.089 10.549s19.089-4.732 19.089-10.549v-4.55c-2.139-1.218-11.052-6-19.089-6-8.05.001-16.989 5.085-19.089 6.351z"/><ellipse cx="130.888" cy="30.108" fill="#fff" rx="20.089" ry="11.549"/><path d="M130.888 42.658c-11.825 0-21.089-5.512-21.089-12.549s9.263-12.549 21.089-12.549 21.089 5.512 21.089 12.549c0 7.036-9.264 12.549-21.089 12.549zm0-23.099c-10.526 0-19.089 4.732-19.089 10.549s8.563 10.549 19.089 10.549 19.089-4.732 19.089-10.549-8.564-10.549-19.089-10.549zM39.49 75.596c0 6.378 8.994 11.549 20.089 11.549s20.089-5.171 20.089-11.549v-5.125s-10.526-6.425-20.089-6.425c-9.561 0-20.089 6.792-20.089 6.792v4.758z"/><path d="M59.579 88.145c-11.825 0-21.089-5.512-21.089-12.549v-4.757c0-.34.172-.656.458-.84.44-.284 10.887-6.952 20.631-6.952 9.732 0 20.17 6.303 20.61 6.571a1 1 0 0 1 .479.854v5.125c0 7.036-9.264 12.548-21.089 12.548zM40.49 71.397v4.199c0 5.817 8.563 10.549 19.089 10.549s19.089-4.732 19.089-10.549v-4.55c-2.139-1.218-11.052-5.999-19.089-5.999-8.061 0-16.991 5.084-19.089 6.35z"/><ellipse cx="59.579" cy="70.471" fill="#fff" rx="20.089" ry="11.549"/><path d="M59.579 83.02c-11.825 0-21.089-5.512-21.089-12.549s9.263-12.549 21.089-12.549 21.089 5.512 21.089 12.549S71.404 83.02 59.579 83.02zm0-23.098c-10.526 0-19.089 4.732-19.089 10.549S49.053 81.02 59.579 81.02s19.089-4.732 19.089-10.549-8.564-10.549-19.089-10.549zm117.267 14.314c0 6.378 8.994 11.549 20.089 11.549s20.089-5.171 20.089-11.549v-5.125s-10.526-6.425-20.089-6.425c-9.561 0-20.089 6.792-20.089 6.792v4.758z"/><path d="M196.935 86.785c-11.825 0-21.089-5.512-21.089-12.549v-4.757c0-.34.172-.656.458-.84.44-.284 10.887-6.952 20.631-6.952 9.732 0 20.17 6.303 20.61 6.571a1 1 0 0 1 .479.854v5.125c0 7.036-9.263 12.548-21.089 12.548zm-19.089-16.748v4.199c0 5.817 8.563 10.549 19.089 10.549s19.089-4.732 19.089-10.549v-4.55c-2.139-1.218-11.052-5.999-19.089-5.999-8.061 0-16.991 5.084-19.089 6.35z"/><ellipse cx="196.935" cy="69.112" fill="#fff" rx="20.089" ry="11.549"/><path d="M196.935 81.661c-11.825 0-21.089-5.512-21.089-12.549s9.263-12.549 21.089-12.549 21.089 5.512 21.089 12.549-9.263 12.549-21.089 12.549zm0-23.098c-10.526 0-19.089 4.732-19.089 10.549s8.563 10.549 19.089 10.549 19.089-4.732 19.089-10.549-8.563-10.549-19.089-10.549zm-91.398 56.036c0 6.378 8.994 11.549 20.089 11.549s20.089-5.171 20.089-11.549v-5.125s-10.526-6.425-20.089-6.425c-9.561 0-20.089 6.792-20.089 6.792v4.758z"/><path d="M125.626 127.148c-11.825 0-21.089-5.512-21.089-12.549v-4.757c0-.34.172-.656.458-.84.44-.284 10.887-6.952 20.631-6.952 9.732 0 20.17 6.303 20.61 6.571a1 1 0 0 1 .479.854v5.125c0 7.036-9.264 12.548-21.089 12.548zM106.537 110.4v4.199c0 5.817 8.563 10.549 19.089 10.549s19.089-4.732 19.089-10.549v-4.55c-2.139-1.218-11.052-5.999-19.089-5.999-8.05 0-16.989 5.085-19.089 6.35z"/><ellipse cx="125.626" cy="109.475" fill="#fff" rx="20.089" ry="11.549"/><path d="M125.626 122.024c-11.825 0-21.089-5.512-21.089-12.549s9.263-12.549 21.089-12.549 21.089 5.512 21.089 12.549-9.264 12.549-21.089 12.549zm0-23.098c-10.526 0-19.089 4.732-19.089 10.549s8.563 10.549 19.089 10.549 19.089-4.732 19.089-10.549-8.564-10.549-19.089-10.549zm117.821 12.288c0 6.378 8.994 11.549 20.089 11.549s20.089-5.171 20.089-11.549v-5.125s-10.526-6.425-20.089-6.425c-9.561 0-20.089 6.792-20.089 6.792v4.758z"/><path d="M263.536 123.763c-11.825 0-21.089-5.512-21.089-12.549v-4.757c0-.34.172-.656.458-.84.44-.284 10.887-6.952 20.631-6.952 9.732 0 20.17 6.303 20.61 6.571a1 1 0 0 1 .479.854v5.125c0 7.036-9.264 12.548-21.089 12.548zm-19.089-16.748v4.199c0 5.817 8.563 10.549 19.089 10.549s19.089-4.732 19.089-10.549v-4.55c-2.139-1.218-11.052-5.999-19.089-5.999-8.05 0-16.989 5.084-19.089 6.35z"/><ellipse cx="263.536" cy="106.089" fill="#fff" rx="20.089" ry="11.549"/><path d="M263.536 118.638c-11.825 0-21.089-5.512-21.089-12.549s9.263-12.549 21.089-12.549c11.825 0 21.089 5.512 21.089 12.549s-9.264 12.549-21.089 12.549zm0-23.098c-10.526 0-19.089 4.732-19.089 10.549s8.563 10.549 19.089 10.549 19.089-4.732 19.089-10.549-8.563-10.549-19.089-10.549zm-91.398 56.891c0 6.378 8.994 11.549 20.089 11.549s20.089-5.171 20.089-11.549v-5.125s-10.526-6.425-20.089-6.425c-9.561 0-20.089 6.792-20.089 6.792v4.758z"/><path d="M192.227 164.98c-11.825 0-21.089-5.512-21.089-12.549v-4.757c0-.34.172-.656.458-.84.44-.284 10.887-6.952 20.631-6.952 9.732 0 20.17 6.303 20.61 6.571a1 1 0 0 1 .479.854v5.125c-.001 7.035-9.264 12.548-21.089 12.548zm-19.089-16.748v4.199c0 5.817 8.563 10.549 19.089 10.549s19.089-4.732 19.089-10.549v-4.55c-2.139-1.218-11.052-5.999-19.089-5.999-8.05-.001-16.989 5.084-19.089 6.35z"/><ellipse cx="192.227" cy="147.306" fill="#fff" rx="20.089" ry="11.549"/><path d="M192.227 159.855c-11.825 0-21.089-5.512-21.089-12.549s9.263-12.549 21.089-12.549 21.089 5.512 21.089 12.549-9.264 12.549-21.089 12.549zm0-23.098c-10.526 0-19.089 4.732-19.089 10.549s8.563 10.549 19.089 10.549 19.089-4.732 19.089-10.549-8.564-10.549-19.089-10.549zm117.267 12.606c0 6.378 8.994 11.549 20.089 11.549s20.089-5.171 20.089-11.549v-5.125s-10.526-6.425-20.089-6.425c-9.561 0-20.089 6.792-20.089 6.792v4.758z"/><path d="M329.583 161.912c-11.825 0-21.089-5.512-21.089-12.549v-4.757c0-.34.172-.656.458-.84.44-.284 10.887-6.952 20.631-6.952 9.732 0 20.17 6.303 20.61 6.571a1 1 0 0 1 .479.854v5.125c0 7.036-9.264 12.548-21.089 12.548zm-19.089-16.748v4.199c0 5.817 8.563 10.549 19.089 10.549s19.089-4.732 19.089-10.549v-4.55c-2.139-1.218-11.052-5.999-19.089-5.999-8.05 0-16.988 5.084-19.089 6.35z"/><ellipse cx="329.583" cy="144.238" fill="#fff" rx="20.089" ry="11.549"/><path d="M329.583 156.787c-11.825 0-21.089-5.512-21.089-12.549s9.263-12.549 21.089-12.549 21.089 5.512 21.089 12.549-9.264 12.549-21.089 12.549zm0-23.098c-10.526 0-19.089 4.732-19.089 10.549s8.563 10.549 19.089 10.549 19.089-4.732 19.089-10.549-8.563-10.549-19.089-10.549zm-91.398 56.891c0 6.378 8.994 11.549 20.089 11.549s20.089-5.171 20.089-11.549v-5.125s-10.526-6.425-20.089-6.425c-9.561 0-20.089 6.792-20.089 6.792v4.758z"/><path d="M258.274 203.129c-11.825 0-21.089-5.512-21.089-12.549v-4.757c0-.34.172-.656.458-.84.44-.284 10.887-6.952 20.631-6.952 9.732 0 20.17 6.303 20.61 6.571a1 1 0 0 1 .479.854v5.125c0 7.036-9.264 12.548-21.089 12.548zm-19.089-16.748v4.199c0 5.817 8.563 10.549 19.089 10.549s19.089-4.732 19.089-10.549v-4.55c-2.139-1.218-11.052-5.999-19.089-5.999-8.05 0-16.989 5.084-19.089 6.35z"/><ellipse cx="258.274" cy="185.455" fill="#fff" rx="20.089" ry="11.549"/><path d="M258.274 198.004c-11.825 0-21.089-5.512-21.089-12.549s9.263-12.549 21.089-12.549c11.825 0 21.089 5.512 21.089 12.549s-9.264 12.549-21.089 12.549zm0-23.098c-10.526 0-19.089 4.732-19.089 10.549s8.563 10.549 19.089 10.549 19.089-4.732 19.089-10.549-8.564-10.549-19.089-10.549z"/><path d="M316.244 182.36a6.556 6.556 0 0 1-6.73.136L72.141 45.97a1.653 1.653 0 0 1-.026-2.85l.203-.122a6.998 6.998 0 0 1 7.07-.077l236.768 135.175c1.633.931 1.681 3.267.088 4.264z" fill="#fff"/><path d="M312.764 184.361a7.549 7.549 0 0 1-3.747-.996L71.643 46.837c-.824-.474-1.321-1.324-1.33-2.275s.473-1.811 1.288-2.3l.203-.122a8.007 8.007 0 0 1 8.081-.087l236.767 135.175c1.075.613 1.732 1.718 1.758 2.955s-.586 2.368-1.635 3.025a7.561 7.561 0 0 1-4.011 1.153zM75.919 43.002c-1.07 0-2.138.285-3.086.854l-.203.122c-.289.174-.318.454-.317.566s.035.392.327.56L310.012 181.63a5.55 5.55 0 0 0 5.701-.117c.454-.284.708-.753.697-1.288s-.284-.994-.749-1.259L78.893 43.79a5.994 5.994 0 0 0-2.974-.788z"/></svg></g><g transform="translate(97.0 598.0) rotate(0.0 244.5 335.0) scale(1.0000613534572673 1.0002896361035882)"><svg width="488.97" height="669.806" viewBox="0 0 488.97 669.806"><g><g><g><path style="fill:#adc4cb" d="M487.133 27.661 441.401 1l-219.66 12.015L1 255.062l.694 195.216S5.178 572.67 82.661 617.766c9.625 5.607 51.365 30.564 60.55 34.008-112.662-90.944-85.63-368.568-85.63-368.568L270.912 48.461l216.221-20.8z"/><path d="M143.211 652.775c-.117 0-.236-.021-.351-.064-7.851-2.945-39.161-21.396-54.208-30.263a1695.708 1695.708 0 0 0-6.495-3.817c-40.31-23.461-60.314-68.004-69.997-101.239C1.69 481.449.703 450.614.694 450.307L0 255.066a.998.998 0 0 1 .261-.677L221.003 12.341c.177-.194.422-.31.684-.325L441.347.001c.198-.009.39.036.558.135l45.732 26.66a1 1 0 0 1-.408 1.859L271.392 49.42 58.545 283.632c-.485 5.294-6.379 72.753.601 149.695 4.247 46.812 12.358 87.92 24.107 122.182 14.656 42.739 35.04 74.866 60.586 95.487a.999.999 0 0 1-.628 1.779zM2.002 255.448l.692 194.827c.008.28.993 30.899 11.401 66.603 9.582 32.869 29.343 76.903 69.069 100.024 1.484.865 3.731 2.189 6.504 3.823 12.131 7.149 34.867 20.548 47.184 26.935-23.175-20.9-41.825-51.644-55.496-91.517-11.801-34.418-19.944-75.689-24.205-122.666-7.25-79.943-.634-149.672-.566-150.367.021-.214.11-.416.255-.576L270.172 47.789a1 1 0 0 1 .645-.323L483.95 26.962 441.156 2.015 222.205 13.991 2.002 255.448z"/></g><g><path d="m1 255.062.694 195.216S5.178 572.67 82.661 617.766c9.625 5.607 51.365 30.564 60.55 34.008-112.662-90.944-85.63-368.568-85.63-368.568L1 255.062z"/><path d="M143.211 652.775c-.117 0-.235-.021-.351-.064-7.851-2.944-39.161-21.396-54.208-30.263a1695.708 1695.708 0 0 0-6.495-3.817c-22.249-12.949-52.454-41.025-69.997-101.239C1.69 481.449.703 450.614.694 450.307L0 255.066a1 1 0 0 1 1.446-.899l56.581 28.144c.372.185.59.579.55.992-.067.693-6.666 70.263.57 150.024 4.247 46.812 12.358 87.92 24.107 122.182 14.656 42.739 35.04 74.866 60.586 95.487a.999.999 0 0 1-.629 1.779zM2.006 256.68l.688 193.595c.008.28.993 30.899 11.401 66.603 17.36 59.55 47.142 87.263 69.069 100.024 1.484.865 3.731 2.188 6.504 3.823 12.131 7.149 34.867 20.548 47.184 26.935-23.175-20.9-41.825-51.644-55.496-91.517-11.801-34.418-19.944-75.689-24.205-122.666-6.864-75.693-1.298-142.229-.629-149.68L2.006 256.68z"/></g><g><path style="fill:#fff" d="M268.317 39.637 487.97 27.616l-.777 189.902s-2.712 112.461-65.329 235.808C349.507 595.861 271.078 659.22 271.078 659.22s-65.799 29.427-141.841-14.832c-77.483-45.098-80.976-167.48-80.976-167.48l-.681-195.223L268.317 39.637z"/><path d="M217.366 669.794c-23.354 0-54.97-4.951-88.631-24.543-40.311-23.462-60.317-68.003-70.001-101.236-10.474-35.94-11.463-66.772-11.472-67.079l-.682-195.248a.998.998 0 0 1 .261-.677L267.578 38.963c.177-.194.422-.31.684-.325l219.654-12.021a1 1 0 0 1 1.055 1.003l-.777 189.901c-.027 1.147-3.436 114.12-65.437 236.257-71.625 141.094-150.263 205.584-151.049 206.219a.993.993 0 0 1-.22.135c-.166.074-16.91 7.45-42.743 9.266a162.75 162.75 0 0 1-11.379.396zM48.581 282.071l.68 194.832c.008.28.995 30.896 11.406 66.598 9.584 32.867 29.348 76.899 69.074 100.021 39.024 22.714 75.253 25.525 98.774 23.886 24.371-1.699 40.507-8.395 42.038-9.052 3.279-2.703 80.191-67.141 150.42-205.485 61.787-121.713 65.193-234.257 65.221-235.38l.772-188.821L268.78 40.613 48.581 282.071z"/></g><g><path style="fill:#fff" d="M267.775 634.541s-60.207 22.283-126.96-16.569c-68.018-39.589-68.839-159.668-68.839-159.668V295.592L269.757 73.38l-1.982 561.161z"/><path d="M224.558 641.899c-21.409 0-52.049-4.323-84.246-23.063-35.438-20.626-52.402-63.21-60.394-95.302-8.636-34.683-8.94-64.921-8.942-65.223V295.592a1 1 0 0 1 .253-.665l197.78-222.212a1 1 0 0 1 1.747.669l-1.981 561.161a.999.999 0 0 1-.653.934c-.152.056-15.475 5.636-38.764 6.347-1.541.047-3.144.073-4.8.073zM72.977 295.973v162.331c.002.292.307 30.33 8.894 64.788 7.899 31.702 24.625 73.748 59.448 94.016 61.875 36.013 118.775 18.932 125.459 16.719l1.97-557.808L72.977 295.973zm194.798 338.568h.01-.01z"/></g><g><path style="fill:#adc4cb" d="m269.757 73.38 189.924-12.695-.648 163.458s-8.136 109.068-60.385 211.992C338.271 555.07 267.775 634.541 267.775 634.541l1.982-561.161z"/><path d="M267.775 635.541a1 1 0 0 1-1-1.004l1.981-561.161a1 1 0 0 1 .933-.994l189.924-12.695a1 1 0 0 1 1.066 1.002l-.648 163.458c-.084 1.163-8.752 110.517-60.493 212.44-59.744 117.688-130.31 197.821-131.016 198.617a.993.993 0 0 1-.747.337zm2.978-561.225-1.968 557.533c11.281-13.16 74.608-89.078 128.971-196.166 51.553-101.555 60.198-210.525 60.279-211.614l.641-162.314-187.923 12.561z"/></g></g></g></svg></g><g transform="translate(857.0 459.0) rotate(0.0 -111.0 131.0) scale(-1.0046567196600458 1.010603623515435)"><svg width="220.971" height="259.251" viewBox="0 0 220.971 259.251"><path d="M109.636 87.058s-6.766-30.575-25.24-54.413C65.429 8.172 28.704-15.718 8.237 16.828.983 28.363-6.568 64.184 16.532 115.744 45.555 180.526 109.7 258.251 109.7 258.251s86.004.158 105.076-51.604c21.674-58.822-29.174-133.62-65.97-143.129-33.52-8.662-39.17 23.54-39.17 23.54z" fill="#0794FC"/><path d="M109.702 259.251h-.004a.996.996 0 0 1-.769-.364c-.642-.778-64.564-78.571-93.31-142.735C-7.754 63.983.016 28.022 7.39 16.295 13.859 6.009 22.332.539 32.575.037c8.667-.425 18.567 2.855 28.627 9.485 8.618 5.679 17.136 13.674 23.984 22.51 14.602 18.842 21.999 42.104 24.464 51.057 1.535-4.724 5.149-12.756 12.901-17.748 7.089-4.565 16.007-5.505 26.506-2.792 19.021 4.916 41.621 26.97 56.237 54.879 16.199 30.931 19.997 63.576 10.421 89.564-7.915 21.482-28.791 37.33-60.369 45.832-23.64 6.366-45.251 6.427-45.644 6.427zM34.082 2.001c-.472 0-.941.011-1.409.034-9.552.468-17.489 5.624-23.59 15.325-7.177 11.413-14.666 46.577 8.36 97.975 27.619 61.648 87.91 136.018 92.726 141.912 6.849-.104 85.78-2.396 103.669-50.945 9.381-25.459 5.621-57.514-10.316-87.945-14.37-27.439-36.459-49.088-54.966-53.87-9.928-2.566-18.309-1.716-24.908 2.527-10.541 6.777-13.004 20.084-13.027 20.218a1 1 0 0 1-1.961.043c-.067-.304-6.937-30.639-25.054-54.017C71.404 17.514 51.544 2.001 34.082 2.001z"/><path d="M159.765 217.519a.997.997 0 0 1-.938-.654l-19.919-53.999-27.549 49.295a1 1 0 0 1-1.815-.153L53.126 53.217l-23.912 55.531a1.002 1.002 0 0 1-1.722.201L2.554 75.353a1 1 0 1 1 1.606-1.192l23.903 32.202 24.233-56.277a1.002 1.002 0 0 1 1.861.061l56.532 159.113 27.532-49.265a1.001 1.001 0 0 1 1.811.142l20.123 54.553 22.028-22.524a1 1 0 0 1 1.195-.178l29.903 16.346a1 1 0 1 1-.959 1.755l-29.238-15.983-22.604 23.113c-.19.194-.449.3-.715.3z"/></svg></g><g transform="translate(1161.0 1680.0) rotate(0.0 -145.0 158.5) scale(-1.181411909446814 1.1870569600107845)"><svg width="245.469" height="267.047" viewBox="0 0 245.469 267.047"><path d="M239.844 199.101c0 36.973-52.127 66.946-116.428 66.946S6.988 236.075 6.988 199.101c0-3.667-.986-30.793 0-34.3 8.96-31.852 58.504-32.646 116.428-32.646 58.536 0 116.428 36.238 116.428 36.238z" fill="#0091FC"/><path d="M123.416 267.047c-64.75 0-117.428-30.48-117.428-67.946 0-.815-.051-2.881-.116-5.498-.315-12.682-.589-26.434.154-29.073 9.388-33.375 61.85-33.375 117.391-33.375 58.15 0 116.377 36.027 116.958 36.391a1 1 0 0 1 .469.848v30.708c0 37.465-52.678 67.946-117.428 67.946zm0-133.892c-54.762 0-106.487 0-115.466 31.917-.723 2.57-.288 20.071-.08 28.482.068 2.733.117 4.708.117 5.547 0 36.363 51.781 65.946 115.428 65.946s115.428-29.583 115.428-65.946v-30.147c-5.634-3.411-60.616-35.799-115.428-35.799z"/><ellipse cx="123.416" cy="168.394" fill="#0091FC" rx="116.428" ry="66.946"/><path d="M123.416 236.34c-64.75 0-117.428-30.48-117.428-67.946s52.678-67.946 117.428-67.946 117.428 30.48 117.428 67.946-52.678 67.946-117.428 67.946zm0-133.892c-63.647 0-115.428 29.583-115.428 65.946s51.781 65.946 115.428 65.946 115.428-29.583 115.428-65.946-51.781-65.946-115.428-65.946z"/><ellipse cx="123.203" cy="167.666" fill="#0091FC" rx="93.506" ry="47.299"/><path d="M123.203 215.965c-52.111 0-94.506-21.667-94.506-48.299s42.395-48.299 94.506-48.299 94.506 21.667 94.506 48.299-42.395 48.299-94.506 48.299zm0-94.598c-51.008 0-92.506 20.77-92.506 46.299s41.498 46.299 92.506 46.299 92.506-20.77 92.506-46.299-41.498-46.299-92.506-46.299zm20.201 144.697a1 1 0 0 1-1-1v-30.708a1 1 0 0 1 2 0v30.708a1 1 0 0 1-1 1zm-36.843.367a1 1 0 0 1-1-1v-30.708a1 1 0 0 1 2 0v30.708a1 1 0 0 1-1 1zm94.226-16.303a1 1 0 0 1-1-1V218.42a1 1 0 0 1 2 0v30.708a1 1 0 0 1-1 1zm9.372-5.46a1 1 0 0 1-1-1V212.96a1 1 0 0 1 2 0v30.708a1 1 0 0 1-1 1z"/><path d="M244.469 160.069c0 36.973-52.127 66.946-116.428 66.946S11.613 197.043 11.613 160.069c0-3.667-.986-30.793 0-34.3 8.96-31.852 58.504-32.646 116.428-32.646 58.536 0 116.428 36.238 116.428 36.238z" fill="#0091FC"/><path d="M128.041 228.016c-64.75 0-117.428-30.48-117.428-67.946 0-.815-.051-2.881-.116-5.497-.315-12.682-.589-26.434.154-29.074C20.039 92.124 72.5 92.124 128.042 92.124c58.15 0 116.377 36.027 116.959 36.391a1 1 0 0 1 .469.848v30.708c0 37.466-52.678 67.946-117.428 67.946zm0-133.893c-54.762 0-106.487 0-115.465 31.917-.723 2.571-.289 20.071-.08 28.482.068 2.733.117 4.708.117 5.547 0 36.363 51.781 65.946 115.428 65.946s115.428-29.583 115.428-65.946v-30.147c-5.634-3.411-60.616-35.799-115.428-35.799z"/><ellipse cx="128.041" cy="129.362" fill="#0091FC" rx="116.428" ry="66.946"/><path d="M128.041 197.308c-64.75 0-117.428-30.48-117.428-67.946s52.678-67.947 117.428-67.947 117.428 30.48 117.428 67.946-52.678 67.946-117.428 67.946zm0-133.892c-63.647 0-115.428 29.583-115.428 65.946s51.781 65.946 115.428 65.946 115.428-29.583 115.428-65.946-51.781-65.946-115.428-65.946z"/><ellipse cx="127.828" cy="128.634" fill="#0091FC" rx="93.506" ry="47.299"/><path d="M127.827 176.933c-52.111 0-94.506-21.667-94.506-48.299s42.395-48.299 94.506-48.299 94.506 21.667 94.506 48.299-42.395 48.299-94.506 48.299zm0-94.598c-51.008 0-92.506 20.77-92.506 46.299s41.498 46.299 92.506 46.299 92.506-20.77 92.506-46.299-41.498-46.299-92.506-46.299zM64.716 217.257a1 1 0 0 1-1-1v-30.708a1 1 0 0 1 2 0v30.708a1 1 0 0 1-1 1zM41.27 205.26a1 1 0 0 1-1-1v-30.708a1 1 0 0 1 2 0v30.708a1 1 0 0 1-1 1zm149.607 12.225a1 1 0 0 1-1-1v-30.708a1 1 0 0 1 2 0v30.708a1 1 0 0 1-1 1z"/><path d="M234.295 129.362c0 36.973-52.127 66.946-116.428 66.946S1.438 166.335 1.438 129.362c0-3.667-.986-30.793 0-34.3 8.96-31.852 58.504-32.646 116.428-32.646 58.536 0 116.428 36.238 116.428 36.238v30.708z" fill="#0091FC"/><path d="M117.867 197.308C53.116 197.308.438 166.827.438 129.362c0-.815-.051-2.881-.116-5.497-.315-12.683-.589-26.434.154-29.074 9.389-33.375 61.85-33.375 117.391-33.375 58.15 0 116.377 36.027 116.958 36.391a1 1 0 0 1 .469.848v30.708c0 37.465-52.678 67.946-117.428 67.946zm0-133.892c-54.762 0-106.487 0-115.466 31.917-.723 2.57-.288 20.071-.08 28.482.068 2.733.117 4.708.117 5.547 0 36.363 51.781 65.946 115.428 65.946s115.428-29.583 115.428-65.946V99.215c-5.634-3.411-60.616-35.799-115.428-35.799z"/><ellipse cx="117.866" cy="98.654" fill="#0091FC" rx="116.428" ry="66.946"/><path d="M117.867 166.6C53.116 166.6.438 136.12.438 98.654s52.678-67.946 117.429-67.946 117.428 30.48 117.428 67.946S182.617 166.6 117.867 166.6zm0-133.892c-63.648 0-115.429 29.583-115.429 65.946S54.219 164.6 117.866 164.6s115.428-29.583 115.428-65.946-51.781-65.946-115.428-65.946z"/><ellipse cx="117.653" cy="97.926" fill="#0091FC" rx="93.506" ry="47.299"/><path d="M117.653 146.225c-52.111 0-94.506-21.667-94.506-48.299s42.395-48.299 94.506-48.299 94.506 21.667 94.506 48.299-42.395 48.299-94.506 48.299zm0-94.598c-51.008 0-92.506 20.77-92.506 46.299s41.498 46.299 92.506 46.299 92.506-20.77 92.506-46.299-41.498-46.299-92.506-46.299zm-12.234 145.302a1 1 0 0 1-1-1v-30.708a1 1 0 0 1 2 0v30.708a1 1 0 0 1-1 1zm-6.572-.766a1 1 0 0 1-1-1v-30.708a1 1 0 0 1 2 0v30.708a1 1 0 0 1-1 1zm113.936-27.021a1 1 0 0 1-1-1v-30.708a1 1 0 0 1 2 0v30.708a1 1 0 0 1-1 1z"/><path d="M244.469 98.654c0 36.973-52.127 66.946-116.428 66.946S11.613 135.627 11.613 98.654c0-3.667-.986-30.793 0-34.3 8.96-31.852 58.504-32.646 116.428-32.646 58.536 0 116.428 36.238 116.428 36.238z" fill="#0091FC"/><path d="M128.041 166.6c-64.75 0-117.428-30.48-117.428-67.946 0-.814-.051-2.881-.116-5.497-.315-12.683-.589-26.434.154-29.074C20.039 30.708 72.5 30.708 128.042 30.708c58.15 0 116.377 36.027 116.959 36.391a1 1 0 0 1 .469.848v30.708c0 37.466-52.678 67.946-117.428 67.946zm0-133.892c-54.762 0-106.487 0-115.465 31.917-.723 2.571-.289 20.072-.08 28.482.068 2.732.117 4.707.117 5.546 0 36.363 51.781 65.946 115.428 65.946s115.428-29.583 115.428-65.946V68.506c-5.634-3.411-60.616-35.799-115.428-35.799z"/><ellipse cx="128.041" cy="67.946" fill="#0091FC" rx="116.428" ry="66.946"/><path d="M128.041 135.892c-64.75 0-117.428-30.48-117.428-67.946S63.291 0 128.041 0s117.428 30.48 117.428 67.946-52.678 67.946-117.428 67.946zm0-133.893C64.393 2 12.613 31.583 12.613 67.946s51.781 65.946 115.428 65.946 115.428-29.583 115.428-65.946S191.688 2 128.041 2z"/><ellipse cx="127.828" cy="67.218" fill="#0091FC" rx="93.506" ry="47.299"/><path d="M127.827 115.517c-52.111 0-94.506-21.667-94.506-48.299s42.395-48.299 94.506-48.299 94.506 21.667 94.506 48.299-42.395 48.299-94.506 48.299zm0-94.598c-51.008 0-92.506 20.77-92.506 46.299s41.498 46.299 92.506 46.299 92.506-20.77 92.506-46.299-41.498-46.299-92.506-46.299zM83.31 161.479a1 1 0 0 1-1-1v-30.707a1 1 0 0 1 2 0v30.707a1 1 0 0 1-1 1zm-13.201-3.742a1 1 0 0 1-1-1v-30.708a1 1 0 0 1 2 0v30.708a1 1 0 0 1-1 1zm135.302-8.057a1 1 0 0 1-1-1v-30.708a1 1 0 0 1 2 0v30.708a1 1 0 0 1-1 1z"/></svg></g><g transform="translate(914.0 1776.0) rotate(0.0 -122.5 127.0) scale(-1.1879824663485783 1.185298564575439)"><svg width="206.232" height="214.292" viewBox="0 0 206.232 214.292"><path d="M183.524 186.007s-10.192 8.766-15.598 13.406c-32.52 27.909-91.609 12.401-131.978-34.638-40.37-47.039-46.65-106.954-14.212-135.706 4.627-4.101 14.953-12.777 14.953-12.777z" fill="#0091FC"/><path d="M127.807 214.239c-30.353 0-65.688-17.432-92.619-48.813-40.893-47.65-47.094-107.874-14.115-137.105 4.583-4.063 14.869-12.708 14.973-12.794a1.002 1.002 0 0 1 1.4.111l146.835 169.715a1.002 1.002 0 0 1-.104 1.413s-10.193 8.767-15.599 13.406c-11.106 9.531-25.292 14.067-40.77 14.067zM36.578 17.693c-2.465 2.076-10.339 8.722-14.178 12.125C6.96 43.503-.095 64.862 2.534 89.96c2.642 25.227 14.779 51.565 34.172 74.164 39.946 46.546 98.519 62.036 130.568 34.53 4.517-3.876 12.375-10.633 14.837-12.751z"/><ellipse cx="111.367" cy="100.05" fill="#0091FC" rx="77.595" ry="112.237" transform="matrix(.75886226 -.65125115 .65125115 .75886226 -38.303 96.654)"/><path d="M144.343 200.048c-30.353 0-65.688-17.432-92.619-48.813-19.656-22.903-31.97-49.742-34.675-75.574-2.719-25.968 4.586-47.824 20.572-61.542 32.886-28.222 92.725-12.636 133.388 34.746 19.656 22.903 31.97 49.742 34.675 75.574 2.719 25.968-4.586 47.824-20.572 61.542-11.106 9.531-25.292 14.067-40.769 14.067zM78.431 2.021c-15.019 0-28.755 4.388-39.508 13.616-15.472 13.278-22.534 34.521-19.885 59.816 2.663 25.432 14.81 51.882 34.203 74.479 39.946 46.546 98.519 62.036 130.568 34.53 15.472-13.278 22.534-34.521 19.885-59.816-2.663-25.432-14.81-51.882-34.203-74.479-26.543-30.928-61.314-48.146-91.06-48.146z"/><ellipse cx="110.918" cy="98.549" fill="#0091FC" rx="57.06" ry="88.909" transform="matrix(.75886226 -.65125115 .65125115 .75886226 -37.434 96)"/><path d="M140.883 176.541c-23.559 0-51.991-14.506-74.024-40.18-15.59-18.166-25.708-39.156-28.492-59.105-2.807-20.111 2.165-36.779 13.998-46.935s29.063-12.541 48.515-6.714c19.296 5.779 38.508 18.965 54.097 37.13 15.59 18.166 25.708 39.156 28.492 59.105 2.807 20.111-2.165 36.779-13.998 46.935-7.715 6.621-17.625 9.764-28.588 9.764zM80.987 22.489c-10.727 0-20.099 3.152-27.32 9.35-11.299 9.696-16.029 25.728-13.32 45.141 2.732 19.574 12.686 40.201 28.029 58.079 21.649 25.226 49.51 39.524 72.444 39.526 10.508 0 19.978-3 27.348-9.325 11.299-9.696 16.029-25.728 13.32-45.141-2.732-19.574-12.686-40.201-28.029-58.079s-34.22-30.847-53.154-36.517c-6.775-2.029-13.263-3.034-19.319-3.034z"/></svg></g><g transform="translate(1178.0 905.0) rotate(0.0 38.0 67.0) scale(0.989068193649141 0.986019131714496)"><svg width="76.84" height="135.9" viewBox="0 0 76.84 135.9"><path d="M75.84 1v90.71c0 23.85-33.51 43.19-74.84 43.19V27.23c32.55 0 60.79-10.64 74.84-26.23z" fill="#0091FC"/><path d="M1 135.9a1 1 0 0 1-1-1V27.23a1 1 0 0 1 1-1c31.308 0 59.7-9.924 74.097-25.899A.999.999 0 0 1 76.84 1v90.71c0 24.366-34.021 44.19-75.84 44.19zM2 28.226v105.669c40.258-.306 72.84-19.113 72.84-42.186v-88.2C59.781 18.644 32.254 28.024 2 28.226z"/></svg></g></svg>