<svg xmlns="http://www.w3.org/2000/svg" viewBox="0 0 1600 1200" width="1600" height="1200"><path fill="#FFF" d="M0 0h1600v1200H0z"/><g transform="translate(72.0 45.0) rotate(0.0 243.5 549.5) translate(0.0 0.0) scale(1.0219713344385453 1.020607163752194)"><svg width="476.53" height="1076.81" viewBox="0 0 476.53 1076.81"><linearGradient id="c" gradientUnits="userSpaceOnUse" x1="476.53" x2="266.98" y1="468.4" y2="468.4"><stop offset="0" stop-color="#FFBDB6"/><stop offset="1" stop-color="#F2A09C"/></linearGradient><linearGradient id="a" gradientTransform="matrix(-.13 0 0 -.12 -4385.56 8737.73)" gradientUnits="userSpaceOnUse" x1="-32793.49" x2="-35487.26" y1="66190.22" y2="64519.4"><stop offset="0" stop-color="#a1c3fc"/><stop offset=".7" stop-color="#81aef2"/><stop offset="1" stop-color="#78a9ef"/></linearGradient><linearGradient xmlns:xlink="http://www.w3.org/1999/xlink" id="d" gradientTransform="matrix(-.12 .05 -.05 -.11 -3968.55 8864.18)" x1="-54876.34" x2="-57466.6" xlink:href="#a" y1="46633.32" y2="45026.7"/><linearGradient id="b" gradientTransform="matrix(.13 0 0 -.13 -3417.39 8771.94)" gradientUnits="userSpaceOnUse" x1="27432.44" x2="30200" y1="65369.02" y2="62605.36"><stop offset=".09" stop-color="#EEEDEE"/><stop offset=".82" stop-color="#D6D6D8"/></linearGradient><linearGradient xmlns:xlink="http://www.w3.org/1999/xlink" id="e" x1="141.13" x2="361.17" xlink:href="#b" y1="263.54" y2="390.58"/><linearGradient id="f" gradientTransform="matrix(-.97 -.24 -.24 .97 -4378.54 -535.04)" gradientUnits="userSpaceOnUse" x1="-4752.22" x2="-4698.09" y1="-475.55" y2="-475.55"><stop offset=".13" stop-color="#428DFC" stop-opacity="0"/><stop offset="1" stop-color="#1D72D8" stop-opacity="0"/></linearGradient><path d="M429.79 523.18s-38 3.38-52.75-23.23-21.15-24.07-42-28.58c-9-1.95-42.38-10.75-68.08-17.95l51.36-39.94c21.94 19.21 52.6 44.26 66.41 47.5 22.69 5.28 44-1.75 54.16-.05s12.82 3.3 12.71 10.87c0 0 4.92 1.69 17.93 5 24.89 7.96-23.41 46.2-39.74 46.38z" fill="url(#c)"/><path d="M33.42 983.53 0 1076.81h238.36s-12.22-23.6-53-41.09-73.33-52-73.33-52l-78.65-.24" fill="#23286b"/><path d="m248.82 983.05-33.44 93.76h238.36s-12.22-23.6-53-41.09-78.57-53.33-78.57-53.33l-73.39.66" fill="#23286b"/><path d="M112.07 983.77c20.07-34.3 107.73-227.91 116.62-273.95 7.74-40.21 9.18-86.94 7.13-129.72l-2-177.16L109.19 393c-6.06 8-11.68 49.39 11.5 180.35 17.94 101.42-9.12 112.57-27.21 147S73.1 765.91 66.68 799c-7.32 37.64-22.44 46.94-30.6 84.69-9 41.54-5.75 85.83-2.66 99.88z" fill="url(#a)"/><path d="M90.1 411.58c-2.16 9.78-17.54 88.22 67.66 181.85 65.54 67.84 35.32 85.7 34.5 139.73-.47 31 12.45 47.72 20.42 80.42 9.09 37.25-5.37 39.86 2.7 91.39 8.11 51.77 33.44 78.08 33.44 78.08l73.38-.66s17.32-240.94 5.05-291c-9.78-39.76-34.73-123.66-54.48-161.65L203.87 376z" fill="url(#d)"/><path d="M168.47 464a.47.47 0 0 0 .61-.25.47.47 0 1 0-.86-.37.47.47 0 0 0 .25.62zm4.44-10.67a.5.5 0 0 0 .65-.26.47.47 0 0 0-.28-.61.45.45 0 0 0-.6.2s0 0 0 .05a.47.47 0 0 0 .25.62zm4.48-10.67a.46.46 0 0 0 .61-.25.52.52 0 0 0-.25-.66.53.53 0 0 0-.65.29.5.5 0 0 0 .29.62zm39.45 21.21a.49.49 0 0 0 .63.28.44.44 0 0 0 .27-.56v-.06a.46.46 0 0 0-.59-.28.49.49 0 0 0-.28.62zm-65-18.59a.46.46 0 1 0 .66-.65.46.46 0 0 0-.65 0 .45.45 0 0 0 0 .63zm40.49 17.08a.54.54 0 0 0 .49.49.49.49 0 1 0 0-1 .52.52 0 0 0-.49.49zm0-11.57a.47.47 0 0 0 .49.46.46.46 0 0 0 .49-.42.5.5 0 0 0-.49-.49.52.52 0 0 0-.49.49zm-86.85 16.07a.9.9 0 0 0 1.26.11.89.89 0 0 0 .1-1.25.89.89 0 0 0-1.26-.11.89.89 0 0 0-.09 1.25zM122 452.49a.92.92 0 0 0 1.29.09.93.93 0 0 0 .09-1.29.89.89 0 0 0-1.25-.1.93.93 0 0 0-.12 1.29zm49.21 69.31a.91.91 0 0 0 .85 1 .86.86 0 0 0 1-.77.09.09 0 0 0 0-.05.92.92 0 0 0-.86-1 .89.89 0 0 0-1 .82zm1.52-21.86a.91.91 0 1 0 1.82.12.91.91 0 0 0-.82-1 1 1 0 0 0-1 .86zm1.6-21.94a.9.9 0 0 0 .82 1 .87.87 0 0 0 1-.77v-.05a1 1 0 0 0-.86-1 .92.92 0 0 0-1 .85zm1.53-21.85a.89.89 0 0 0 .86 1 .91.91 0 0 0 .13-1.82.92.92 0 0 0-1 .83zm-46.22 44.15a.91.91 0 0 0 1.2-.44.9.9 0 0 0-1.63-.77.94.94 0 0 0 .43 1.21zm9.78-19.62a.9.9 0 1 0-.43-1.22.93.93 0 0 0 .43 1.22zm9.79-19.6a.91.91 0 0 0 1.22-.44.92.92 0 0 0-1.65-.82.94.94 0 0 0 .39 1.25zm9.79-19.66a.89.89 0 0 0 1.21-.37.9.9 0 1 0-1.59-.83.88.88 0 0 0 .34 1.17zm53.74 65a.92.92 0 0 0 1.16.56.88.88 0 0 0 .56-1.12.87.87 0 0 0-1.06-.62h-.07a1 1 0 0 0-.59 1.17zm-6.93-20.82a1 1 0 0 0 1.16.59.92.92 0 0 0 .56-1.16.9.9 0 0 0-1.14-.56.88.88 0 0 0-.56 1.12zm-6.93-20.78a.86.86 0 0 0 1.08.58h.05a.89.89 0 0 0 .6-1.12.91.91 0 0 0-1.72.59zm-7-20.81a.92.92 0 0 0 1.16.56.86.86 0 0 0 .57-1.09.91.91 0 0 0-1.13-.59.94.94 0 0 0-.59 1.16zm-81.21 46.22a.8.8 0 0 0 1.11-.25.81.81 0 0 0-.26-1.11.8.8 0 0 0-1.11.25.83.83 0 0 0 .26 1.11zm10.36-16.59a.81.81 0 0 0 1.11-.26.79.79 0 0 0-.22-1.11.8.8 0 0 0-1.11.21v.05a.78.78 0 0 0 .23 1.09zm10-17.08a.64.64 0 0 0 .33.48.82.82 0 0 0 1.11-.25.84.84 0 0 0-.25-1.14.82.82 0 0 0-.76-.05.61.61 0 0 0-.32.31.7.7 0 0 0-.07.66zm10.69-16.12a.8.8 0 0 0 1.12-.27.82.82 0 0 0-1.38-.87.83.83 0 0 0 .25 1.14zm49.69 62.86a.86.86 0 0 0 1 .62.78.78 0 0 0 .59-.93.81.81 0 0 0-1-.62.85.85 0 0 0-.62 1zm-4.36-19a.8.8 0 0 0 1 .59.79.79 0 0 0 .6-.93.81.81 0 0 0-1-.62.84.84 0 0 0-.58 1zm-4.41-19.1a.8.8 0 0 0 .95.62.76.76 0 0 0 .6-.89.24.24 0 0 0 0-.08.8.8 0 0 0-1-.62.81.81 0 0 0-.5.89zm-4.4-19a.82.82 0 0 0 1 .58.81.81 0 0 0 .58-1 .84.84 0 0 0-1-.62.86.86 0 0 0-.61 1zm-75.78-2.72a.8.8 0 0 0 1.11.19.78.78 0 0 0 .21-1.07.79.79 0 0 0-1.11-.22.84.84 0 0 0-.17 1.14zm47 51a.82.82 0 0 0 1.61.27.86.86 0 0 0-.66-1 .84.84 0 0 0-.95.69zM152.8 475a.77.77 0 0 0 .6.91.8.8 0 0 0 .92-.65.85.85 0 0 0-.65-1 .82.82 0 0 0-.92.69zm3.2-19.28a.8.8 0 1 0 1.57.28.8.8 0 1 0-1.57-.27zm66.7 23a.77.77 0 0 0 1.06.21h.05a.8.8 0 0 0 .22-1.11.84.84 0 0 0-1.14-.17.81.81 0 0 0-.19 1.11zm-11.35-15.94a.81.81 0 1 0 .2-1.14.79.79 0 0 0-.22 1.1zM112 441.69a.48.48 0 0 0 .68 0 .48.48 0 1 0-.71-.65.5.5 0 0 0 0 .68zm45.31 16.7a.47.47 0 0 0 .49.46.48.48 0 1 0 0-1 .47.47 0 0 0-.46.49zm-.42-11.53a.5.5 0 0 0 .52.45.48.48 0 0 0 .46-.49.45.45 0 0 0-.45-.45.48.48 0 0 0-.49.48zm-22 2a.51.51 0 0 0 .61-.29.45.45 0 0 0-.25-.6.46.46 0 0 0-.6.24.49.49 0 0 0 .28.62zm43.85-1.43a.47.47 0 0 0 .62.24.48.48 0 0 0 .24-.62.45.45 0 0 0-.57-.27h-.05a.47.47 0 0 0-.25.61zm-75 5.74a.51.51 0 0 0 .71-.15.53.53 0 0 0-.13-.74.52.52 0 0 0-.72.16.55.55 0 0 0 .17.76zM110.8 442a.55.55 0 0 0 .77-.16.56.56 0 0 0-.17-.77.52.52 0 0 0-.72.15.53.53 0 0 0 .1.74zm47.2 20.55a.5.5 0 0 0 .58.41h.06a.54.54 0 0 0 .4-.65.58.58 0 0 0-.64-.43.54.54 0 0 0-.4.67zm-2.86-12.87a.57.57 0 0 0 .68.4.54.54 0 0 0 .4-.65.59.59 0 0 0-.65-.43.6.6 0 0 0-.43.68zm-24.1 6.84a.58.58 0 0 0 .21.1.52.52 0 0 0 .62-.42.55.55 0 0 0-.41-.63.55.55 0 0 0-.63.43.49.49 0 0 0 .24.52zm2.13-13.52a.53.53 0 0 0 .41.63.59.59 0 0 0 .67-.42.61.61 0 0 0-.45-.66.55.55 0 0 0-.63.44zm47 3a.53.53 0 0 0 .75.13.54.54 0 0 0 .13-.73.52.52 0 0 0-.72-.18.56.56 0 0 0-.15.77zm-69.92 65a1 1 0 0 0 .8 1.07.94.94 0 0 0 1.07-.77 1 1 0 0 0-.8-1.07.94.94 0 0 0-1.07.77zm3.52-22.33a.92.92 0 0 0 .77 1.07.93.93 0 1 0-.77-1.07zm3.49-22.33a1 1 0 0 0 .8 1.07.92.92 0 0 0 1-.81.92.92 0 0 0-1.83-.26zm3.56-22.34a.93.93 0 1 0 1.07-.77.93.93 0 0 0-1.07.77zm82 45.35a1 1 0 0 0 1.34.2.94.94 0 0 0 .16-1.32A1 1 0 0 0 203 488a1 1 0 0 0-.21 1.31zm-13.28-18.27a1 1 0 0 0 1.31.21.94.94 0 0 0-1.09-1.52 1 1 0 0 0-.21 1.31zm-13.28-18.26a1 1 0 0 0 1.3.21 1 1 0 0 0 .21-1.34.94.94 0 0 0-1.51 1.13zm-82.85-5.52a.95.95 0 1 0-.31-1.3 1 1 0 0 0 .31 1.3zm61.26 52.12a1 1 0 0 0 1.14.7 1 1 0 0 0 .66-1.14.93.93 0 0 0-1.09-.71.93.93 0 0 0-.69 1.14zm-5.3-22a1 1 0 0 0 1.14.7.92.92 0 0 0 .67-1.11.93.93 0 0 0-1.81.41zm-5.29-22a.93.93 0 0 0 1.09.71.94.94 0 1 0-.39-1.84.92.92 0 0 0-.72 1.11zm-57.93-22.86a1 1 0 0 0 1.3-.25 1 1 0 0 0-.27-1.3.9.9 0 0 0-1.25.2.94.94 0 0 0 .23 1.3zM141 506.69a.92.92 0 1 0 .73-1.12 1 1 0 0 0-.73 1.12zm-4.36-22.09a.94.94 0 0 0 1.11.73 1 1 0 0 0 .73-1.08 1 1 0 0 0-1.11-.77 1 1 0 0 0-.73 1.12zm-4.36-22.09a.93.93 0 0 0 1.11.73.93.93 0 0 0-.35-1.82 1 1 0 0 0-.76 1.09zm-4.33-22.09a.9.9 0 0 0 1 .75h.05a.93.93 0 0 0 .73-1.09.92.92 0 0 0-1.07-.74.91.91 0 0 0-.74 1.08zm-29.32 31.63a.93.93 0 0 0 .73 1.08.94.94 0 0 0 1.11-.71 1 1 0 0 0-.74-1.11 1 1 0 0 0-1.11.74zm4.44-22.05a.93.93 0 1 0 1.81.39 1 1 0 0 0-.74-1.11.91.91 0 0 0-1.07.73zm75.83 28.88a.93.93 0 0 0 1.31.24.94.94 0 0 0-1-1.58.92.92 0 0 0-.29 1.28zm-12.47-18.78a1 1 0 0 0 1.31.25.93.93 0 0 0 .25-1.28.91.91 0 0 0-1.25-.3.94.94 0 0 0-.3 1.29zM154 441.37a1 1 0 0 0 1.31.24.94.94 0 0 0-1.05-1.55.94.94 0 0 0-.28 1.29zm-12.5 26.45a.69.69 0 0 0 .92.36.71.71 0 0 0 .38-.9.68.68 0 0 0-.87-.39h-.06a.7.7 0 0 0-.37.9zm-6.67-15.58a.71.71 0 0 0 .94.36.71.71 0 0 0-.55-1.31.74.74 0 0 0-.37.94zm-29.27 13.88a.71.71 0 0 0 .72.69.74.74 0 0 0 .68-.72.7.7 0 0 0-.71-.69.69.69 0 0 0-.69.67zm-.22-17a.74.74 0 0 0 .72.72.69.69 0 0 0 .68-.71.67.67 0 0 0-.66-.69.69.69 0 0 0-.72.67zm60.26-7.59a.69.69 0 0 0 1 0 .7.7 0 0 0 0-1 .7.7 0 0 0-1 .05.71.71 0 0 0 0 1zm-53.46 2.13a.63.63 0 0 0 .87.18.58.58 0 0 0 .21-.79V443a.6.6 0 0 0-.81-.24.61.61 0 0 0-.23.84z" fill="#fff" opacity=".86"/><path d="M242.53 280.58v1.8l-16.84 101.76L316.23 574c-7.33.55-234.39 11.81-234.39 11.81-51.62-289.42 55.71-414.89 151.62-442.49-.13 27.6 27.8 26.24 27.8 26.24s-19.47 66.56-18.73 111.02z" fill="url(#b)"/><path d="m326.43 393.5-37.91 122.9S245.14 507.62 227 475c-10.89-19.6-21.29-29.45-31.61-35.48-9-5.28-17.89-7.64-27-11.07-19.61-7.34-59-34.94-45.4-101.45s42.46-118.68 110.48-183.72l27.81 26.24s-19.47 66.56-18.74 111v1.79c.84 43.1 5.59 58.3 36.49 79.89 24.48 17.14 47.4 31.3 47.4 31.3z" fill="url(#e)"/><path d="m271.28 139.79-.08.16a226.77 226.77 0 0 0-9.94 29.61s-30.19 10.39-27.8-26.24a40.42 40.42 0 0 0 5.54-12.64 103.05 103.05 0 0 0 11.35 4.32 89 89 0 0 0 12.16 3.64 10.65 10.65 0 0 0 1.36.3 16.4 16.4 0 0 0 2 .35.88.88 0 0 0 .27.06 38.77 38.77 0 0 0 5.14.44z" fill="#F8AEA9"/><path d="M242.69 115c-3.37-11.54-9.41-24.27 3.08-28.22 10.16-3.18 11.5 6.81 27.47 4 12.12-2.44 16.13-7.9 16.13-7.9s19.67 17.36 43.95 17.88c-.29 3.41-1.8 20.75-2.2 26.82-.32 6.9.38 16.19-14.95 11.94 0 0-21.92 28.49-55.47 7.5-14.67-9.18-19.58-14.4-22.45-18 1-.94 7.5-3.39 4.44-14.02z" fill="#FFBDB6"/><path d="M351.73 118.82c4-6.54 3.75-14.38-.82-17.63-4.58-3.26-11.64-.68-15.89 5.81-.44.69-.94 1.65-1.38 2.35a12.9 12.9 0 0 0-10.17 1c.12-.51-.07-.82 0-1.33a11.82 11.82 0 0 0-4.24-9.07c-5.21-3.94-13.47-.85-18.22 6.59a20.9 20.9 0 0 0-3.33 11.53 13.47 13.47 0 0 0 2.71 7.63 6.61 6.61 0 0 0 1.53 1.44 9.35 9.35 0 0 0 9.43.94 19.12 19.12 0 0 0 8.8-7.52 24.5 24.5 0 0 0 3-8.12c3-1.16 6.81-2.64 9.67-1.15a12.19 12.19 0 0 0 1.35 12.13l1.34 1.13c4.66 3.27 11.72.69 16.22-5.73zm-40.91 7.27a7.83 7.83 0 0 1-7.91-.58 9.42 9.42 0 0 1-3.54-7.56 16.72 16.72 0 0 1 3-10.27c4.25-6.48 11.13-9.37 15.7-6.12l1.34 1.13a10.49 10.49 0 0 1 2.2 6.43 16.72 16.72 0 0 1-3 10.27 16.18 16.18 0 0 1-7.79 6.7zm25.71-3.17c-3.88-2.82-3.93-9.27-.43-14.86 3.75-5.53 9.68-7.85 13.3-5.09 3.88 2.81 3.93 9.26.43 14.85s-9.42 7.92-13.3 5.1z" fill="url(#f)"/><path d="M204.61 61.76c-3.36 23.86 14.79 49.71 33.58 67.4 0 0 14-9 6.25-18.07-6.26-7.41-11.16-20.4 1.33-24.35 10.16-3.17 11.5 6.81 27.47 4 12.06-2.18 16.13-7.9 16.13-7.9s19.86 17.68 44.46 18c19.31 3.33 39.3-3.9 46.35-25.26a1 1 0 0 0-2-.5c-5.25 16.17-18.35 23.73-32.76 24.53A43.8 43.8 0 0 0 355.93 96c33.76-16.5 14.36-40.51-11.55-29.88 0 0 13.49-22.49-2.83-40.39s-46-5-46-5S285.83-1.2 262.19.05s-36.76 41.78-36.76 41.78c-8.07-3.51-16.74.9-20.82 19.93z" fill="#23286b"/></svg></g><g transform="translate(690.0 420.0) rotate(0.0 45.5 45.5) scale(0.5675510484102334 0.5675510484102334)"><svg width="160.338" height="160.338" viewBox="0 0 160.338 160.338"><g fill="#F1B505"><circle cx="80.169" cy="80.096" r="66.636"/><path d="M90.668 4.349c0 5.799-4.701 10.499-10.499 10.499-5.799 0-10.499-4.701-10.499-10.499s20.998-5.799 20.998 0zm0 151.64c0-5.799-4.701-10.499-10.499-10.499-5.799 0-10.499 4.701-10.499 10.499-.001 5.798 20.998 5.798 20.998 0zM141.206 33.98c-4.1 4.1-10.748 4.1-14.849 0-4.1-4.1-4.1-10.748 0-14.849 4.101-4.099 18.949 10.749 14.849 14.849zM33.98 141.206c4.1-4.1 4.1-10.748 0-14.849-4.1-4.1-10.748-4.1-14.848 0-4.1 4.101 10.748 18.949 14.848 14.849zm122.009-50.538c-5.799 0-10.499-4.701-10.499-10.499 0-5.799 4.701-10.499 10.499-10.499 5.798-.001 5.798 20.998 0 20.998zm-151.64 0c5.799 0 10.499-4.701 10.499-10.499 0-5.799-4.701-10.499-10.499-10.499s-5.799 20.998 0 20.998zm122.008 50.538c-4.1-4.1-4.1-10.748 0-14.849 4.1-4.1 10.748-4.1 14.849 0 4.1 4.101-10.748 18.949-14.849 14.849zM19.132 33.98c4.1 4.1 10.748 4.1 14.848 0s4.1-10.748 0-14.849S15.032 29.88 19.132 33.98z"/></g><circle cx="42.823" cy="77.189" fill="#FFC206" r="10.5"/><circle cx="91.21" cy="44.556" fill="#FFC206" r="10.5"/><circle cx="95.43" cy="117.417" fill="#FFC206" r="10.5"/></svg></g><g transform="translate(1462.0 632.0) rotate(0.0 45.5 45.5) scale(0.5675510484102334 0.5675510484102334)"><svg width="160.338" height="160.338" viewBox="0 0 160.338 160.338"><g fill="#F1B505"><circle cx="80.169" cy="80.096" r="66.636"/><path d="M90.668 4.349c0 5.799-4.701 10.499-10.499 10.499-5.799 0-10.499-4.701-10.499-10.499s20.998-5.799 20.998 0zm0 151.64c0-5.799-4.701-10.499-10.499-10.499-5.799 0-10.499 4.701-10.499 10.499-.001 5.798 20.998 5.798 20.998 0zM141.206 33.98c-4.1 4.1-10.748 4.1-14.849 0-4.1-4.1-4.1-10.748 0-14.849 4.101-4.099 18.949 10.749 14.849 14.849zM33.98 141.206c4.1-4.1 4.1-10.748 0-14.849-4.1-4.1-10.748-4.1-14.848 0-4.1 4.101 10.748 18.949 14.848 14.849zm122.009-50.538c-5.799 0-10.499-4.701-10.499-10.499 0-5.799 4.701-10.499 10.499-10.499 5.798-.001 5.798 20.998 0 20.998zm-151.64 0c5.799 0 10.499-4.701 10.499-10.499 0-5.799-4.701-10.499-10.499-10.499s-5.799 20.998 0 20.998zm122.008 50.538c-4.1-4.1-4.1-10.748 0-14.849 4.1-4.1 10.748-4.1 14.849 0 4.1 4.101-10.748 18.949-14.849 14.849zM19.132 33.98c4.1 4.1 10.748 4.1 14.848 0s4.1-10.748 0-14.849S15.032 29.88 19.132 33.98z"/></g><circle cx="42.823" cy="77.189" fill="#FFC206" r="10.5"/><circle cx="91.21" cy="44.556" fill="#FFC206" r="10.5"/><circle cx="95.43" cy="117.417" fill="#FFC206" r="10.5"/></svg></g><g transform="translate(658.0 878.0) rotate(0.0 28.5 28.5) scale(0.1356051558507677 0.1356051558507677)"><svg width="420.338" height="420.338" viewBox="0 0 420.338 420.338"><g fill="#F1B505"><circle cx="210.169" cy="209.979" r="174.693"/><path d="M237.694 11.401c0 15.202-12.323 27.525-27.525 27.525s-27.525-12.323-27.525-27.525 55.05-15.201 55.05 0zm0 397.535c0-15.202-12.323-27.525-27.525-27.525s-27.525 12.323-27.525 27.525 55.05 15.202 55.05 0zM370.182 89.082c-10.749 10.749-28.177 10.749-38.926 0s-10.749-28.177 0-38.927c10.749-10.749 49.675 28.178 38.926 38.927zm-281.1 281.1c10.749-10.749 10.749-28.177 0-38.926s-28.177-10.749-38.927 0c-10.749 10.749 28.178 49.675 38.927 38.926zm319.854-132.488c-15.202 0-27.525-12.323-27.525-27.525s12.323-27.525 27.525-27.525 15.202 55.05 0 55.05zm-397.535 0c15.202 0 27.525-12.323 27.525-27.525s-12.323-27.525-27.525-27.525-15.201 55.05 0 55.05zm319.854 132.488c-10.749-10.749-10.749-28.177 0-38.926s28.177-10.749 38.926 0c10.75 10.749-28.176 49.675-38.926 38.926zM50.156 89.082c10.749 10.749 28.177 10.749 38.927 0s10.749-28.177 0-38.927-49.677 28.178-38.927 38.927z"/></g><circle cx="112.265" cy="202.356" fill="#FFC106" r="27.527"/><circle cx="239.114" cy="116.806" fill="#FFC106" r="27.527"/><circle cx="250.176" cy="307.818" fill="#FFC106" r="27.527"/></svg></g><g transform="translate(1311.0 271.0) rotate(0.0 28.5 28.5) scale(0.1356051558507677 0.1356051558507677)"><svg width="420.338" height="420.338" viewBox="0 0 420.338 420.338"><g fill="#F1B505"><circle cx="210.169" cy="209.979" r="174.693"/><path d="M237.694 11.401c0 15.202-12.323 27.525-27.525 27.525s-27.525-12.323-27.525-27.525 55.05-15.201 55.05 0zm0 397.535c0-15.202-12.323-27.525-27.525-27.525s-27.525 12.323-27.525 27.525 55.05 15.202 55.05 0zM370.182 89.082c-10.749 10.749-28.177 10.749-38.926 0s-10.749-28.177 0-38.927c10.749-10.749 49.675 28.178 38.926 38.927zm-281.1 281.1c10.749-10.749 10.749-28.177 0-38.926s-28.177-10.749-38.927 0c-10.749 10.749 28.178 49.675 38.927 38.926zm319.854-132.488c-15.202 0-27.525-12.323-27.525-27.525s12.323-27.525 27.525-27.525 15.202 55.05 0 55.05zm-397.535 0c15.202 0 27.525-12.323 27.525-27.525s-12.323-27.525-27.525-27.525-15.201 55.05 0 55.05zm319.854 132.488c-10.749-10.749-10.749-28.177 0-38.926s28.177-10.749 38.926 0c10.75 10.749-28.176 49.675-38.926 38.926zM50.156 89.082c10.749 10.749 28.177 10.749 38.927 0s10.749-28.177 0-38.927-49.677 28.178-38.927 38.927z"/></g><circle cx="112.265" cy="202.356" fill="#FFC106" r="27.527"/><circle cx="239.114" cy="116.806" fill="#FFC106" r="27.527"/><circle cx="250.176" cy="307.818" fill="#FFC106" r="27.527"/></svg></g><g transform="translate(410.0 162.0) rotate(26.769796422832137 -35.5 27.0) scale(-1.1884834281888181 1.200293405054569)"><svg width="59.74" height="44.989" viewBox="0 0 59.74 44.989"><path d="M23.926 44.824 59.74 41.78c-7.005-12.143-8.26-23.263 0-32.69L6.997.094C-5.704-2.47-1.716 48.243 23.926 44.824z" fill="#c3d9fd"/></svg></g><g transform="translate(1430.0 831.0) rotate(0.0 28.5 28.5) scale(0.1356051558507677 0.1356051558507677)"><svg width="420.338" height="420.338" viewBox="0 0 420.338 420.338"><g fill="#F1B505"><circle cx="210.169" cy="209.979" r="174.693"/><path d="M237.694 11.401c0 15.202-12.323 27.525-27.525 27.525s-27.525-12.323-27.525-27.525 55.05-15.201 55.05 0zm0 397.535c0-15.202-12.323-27.525-27.525-27.525s-27.525 12.323-27.525 27.525 55.05 15.202 55.05 0zM370.182 89.082c-10.749 10.749-28.177 10.749-38.926 0s-10.749-28.177 0-38.927c10.749-10.749 49.675 28.178 38.926 38.927zm-281.1 281.1c10.749-10.749 10.749-28.177 0-38.926s-28.177-10.749-38.927 0c-10.749 10.749 28.178 49.675 38.927 38.926zm319.854-132.488c-15.202 0-27.525-12.323-27.525-27.525s12.323-27.525 27.525-27.525 15.202 55.05 0 55.05zm-397.535 0c15.202 0 27.525-12.323 27.525-27.525s-12.323-27.525-27.525-27.525-15.201 55.05 0 55.05zm319.854 132.488c-10.749-10.749-10.749-28.177 0-38.926s28.177-10.749 38.926 0c10.75 10.749-28.176 49.675-38.926 38.926zM50.156 89.082c10.749 10.749 28.177 10.749 38.927 0s10.749-28.177 0-38.927-49.677 28.178-38.927 38.927z"/></g><circle cx="112.265" cy="202.356" fill="#FFC106" r="27.527"/><circle cx="239.114" cy="116.806" fill="#FFC106" r="27.527"/><circle cx="250.176" cy="307.818" fill="#FFC106" r="27.527"/></svg></g><g transform="translate(800.0 465.0) rotate(0.0 270.5 277.0) scale(4.361324707638074 4.352777020668698)"><svg width="124.045" height="127.275" viewBox="0 0 124.045 127.275"><circle cx="62.015" cy="63.636" fill="#23286B" r="44.5"/><g fill="#C3D9FD"><path d="M66.412 4.52a3.03 3.03 0 0 0-1.287.607c-.18.153-.212.448-.355.634a3.067 3.067 0 0 0-.354.583 3.057 3.057 0 0 0-.255.639 3.116 3.116 0 0 0-.095.687c-.008.36-.138.356-.148.716-.01.357.14.361.13.718-.01.357-.154.354-.163.71-.01.36.12.363.11.72-.01.36-.047.36-.056.72l-.022.72c-.01.36-.04.36-.05.719-.01.359.013.36.004.719-.01.36.059.361.05.721-.01.361-.14.358-.15.72-.01.36.134.364.125.724s-.091.358-.1.719c-.01.362-.043.36-.053.723-.01.36.063.363.053.724-.01.36-.137.357-.146.718-.01.36.108.363.099.724-.01.362.027.363.017.725-.01.363-.106.36-.116.723-.01.364.052.365.042.729s-.035.363-.044.727a.982.982 0 0 1-.36.666.903.903 0 0 1-.676.257c-.273 0-.273.165-.546.165s-.273-.189-.546-.189a.928.928 0 0 1-.696-.207.954.954 0 0 1-.273-.688c-.012-.36-.078-.358-.09-.718-.012-.357-.027-.356-.039-.713-.012-.358.08-.36.068-.718-.012-.359-.168-.354-.18-.712-.012-.36.109-.364.097-.724-.012-.36 0-.361-.012-.722-.012-.36.037-.361.025-.72-.011-.36-.01-.36-.023-.72-.011-.36-.069-.357-.08-.717-.013-.362-.038-.36-.05-.722-.011-.361.042-.363.03-.724s-.075-.358-.086-.719c-.012-.362.025-.363.013-.725-.012-.361-.015-.361-.027-.722s.036-.363.024-.724c-.012-.36-.073-.358-.084-.719-.012-.362-.11-.359-.122-.721-.011-.363.048-.365.036-.728-.012-.364.087-.367.075-.73s-.08-.362-.088-.726a3.365 3.365 0 0 0-.026-.715 3.326 3.326 0 0 0-.34-.63 3.134 3.134 0 0 0-.383-.575 3.206 3.206 0 0 0-.443-.534 3.245 3.245 0 0 0-1.242-.59c-.231-.067-.432-.208-.638-.284a6.427 6.427 0 0 1-.63-.296 3.783 3.783 0 0 1-.546-.413 2.216 2.216 0 0 1-.512-.432 1.054 1.054 0 0 1-.256-.614 1.06 1.06 0 0 1 .31-.612 2.142 2.142 0 0 1 .497-.476 4.325 4.325 0 0 1 .612-.348 6.25 6.25 0 0 1 .63-.342c.213-.076.46-.078.7-.144.222-.061.449-.126.69-.178.228-.048.438-.237.68-.276.231-.037.486.038.73.01.232-.027.465-.117.708-.136.236-.017.48.047.725.038.236-.008.476.054.72.054.241 0 .484-.184.72-.176.242.009.48.1.715.117.243.018.474.111.708.138.243.028.483.034.714.07.243.04.48.07.708.118.242.051.49.046.713.107.241.067.436.245.65.322.24.085.469.15.672.248a5.363 5.363 0 0 1 .672.273 2.163 2.163 0 0 1 .455.56 1.127 1.127 0 0 1 .31.633 1.116 1.116 0 0 1-.307.607 2.06 2.06 0 0 1-.44.52 4.62 4.62 0 0 1-.62.307 5.85 5.85 0 0 1-.592.376c-.206.077-.459.057-.69.123zm-.009 118.208a3.283 3.283 0 0 1-.63-.304 3.185 3.185 0 0 1-.555-.409c-.18-.152-.475-.2-.618-.386a3.456 3.456 0 0 1-.377-.62 3.401 3.401 0 0 1-.2-.693 3.34 3.34 0 0 1-.058-.713c-.007-.365.119-.368.11-.732-.01-.362-.16-.358-.17-.72-.01-.362.135-.366.125-.728-.01-.363-.14-.36-.149-.722-.01-.365.028-.366.018-.73-.01-.366-.008-.366-.017-.731-.01-.365.02-.365.01-.73-.009-.364-.032-.363-.042-.727-.01-.364-.078-.363-.088-.727-.01-.366.12-.37.11-.736-.01-.365-.154-.361-.163-.726s.071-.368.061-.733c-.01-.367.023-.368.013-.734s-.082-.364-.092-.73c-.01-.366.118-.37.108-.735-.01-.365-.128-.362-.138-.727-.01-.367-.046-.366-.056-.733-.01-.367.086-.37.077-.737-.01-.369-.072-.367-.082-.736s.015-.369.006-.737a.888.888 0 0 0-.2-.612.955.955 0 0 0-.618-.27c-.368 0-.368.166-.736.166s-.369-.188-.737-.188a.952.952 0 0 0-.592.314.902.902 0 0 0-.29.582c-.013.365.053.367.041.732-.012.361.004.362-.008.724s-.103.359-.114.721c-.012.363.144.368.132.732-.012.364-.133.36-.144.725-.012.365-.024.365-.036.73-.012.365-.061.364-.073.728l-.025.728c-.011.365.046.366.034.731-.012.366.013.367.001.733s-.065.364-.077.73.05.367.039.732c-.012.367-.05.366-.061.733-.012.366-.01.366-.021.732-.012.365-.06.364-.072.73-.012.365.05.367.037.732-.012.367.085.37.073.737-.012.368-.071.366-.084.734-.012.368-.11.365-.122.734s.05.37.04.74a3.136 3.136 0 0 1-.128.685 2.076 2.076 0 0 1-.464 1.332 7.06 7.06 0 0 1-1.102.913 3.514 3.514 0 0 1-.656.301c-.232.067-.469.07-.674.145a6.917 6.917 0 0 0-.646.25 4.934 4.934 0 0 0-.637.29 2.233 2.233 0 0 0-.478.513 1.088 1.088 0 0 0-.199.654 1.14 1.14 0 0 0 .182.707 2.497 2.497 0 0 0 .549.486 4.568 4.568 0 0 0 .628.362c.202.096.455.119.694.204.214.076.421.217.661.283.222.06.46.108.702.16.227.048.488-.054.731-.015.231.037.452.178.696.206.233.027.477-.018.72 0 .236.018.47.109.714.118.237.008.478.079.722.079.242 0 .477-.193.713-.201.243-.01.484.055.719.037.243-.018.49.03.723.003.243-.028.479-.087.71-.124.243-.04.477-.097.704-.145.242-.051.459-.169.68-.23.242-.066.504-.031.719-.108a6.788 6.788 0 0 0 .66-.3 3.947 3.947 0 0 0 .568-.439 2.645 2.645 0 0 0 .59-.405 1.46 1.46 0 0 0 .025-1.343 2.478 2.478 0 0 0-.55-.423 3.953 3.953 0 0 0-.566-.396c-.194-.095-.448-.081-.676-.166-.206-.077-.392-.24-.624-.307zm36.38-105.075a1.135 1.135 0 0 0 .224-.687 2.39 2.39 0 0 0-.13-.722c-.076-.205-.342-.344-.469-.57a6.79 6.79 0 0 0-.38-.594c-.132-.185-.246-.391-.404-.583-.147-.177-.287-.368-.456-.549-.159-.17-.236-.431-.412-.603-.168-.163-.446-.216-.63-.38-.175-.155-.264-.42-.453-.575-.183-.15-.453-.197-.647-.344-.19-.143-.361-.314-.56-.453a19.789 19.789 0 0 0-.593-.403c-.204-.132-.392-.284-.594-.405-.21-.125-.43-.223-.637-.335-.215-.117-.459-.164-.67-.266-.22-.108-.385-.326-.599-.417-.227-.096-.502-.05-.719-.127-.236-.084-.438-.233-.658-.293-.245-.068-.475-.152-.697-.19a4.047 4.047 0 0 0-.716.009 2.837 2.837 0 0 0-.73-.028 1.119 1.119 0 0 0-.52.497.989.989 0 0 0-.135.632 2.018 2.018 0 0 0 .04.68 4.698 4.698 0 0 0 .34.603 6.35 6.35 0 0 0 .34.596c.126.181.212.407.363.595a3.225 3.225 0 0 1 .36.59c.108.211.346.375.405.601.06.229-.09.49-.079.724a3.189 3.189 0 0 1 .03.694 3.158 3.158 0 0 1-.224.66 3.174 3.174 0 0 1-.28.644c-.197.298-.181.308-.377.607s-.271.25-.467.55c-.195.3-.064.384-.26.684-.196.3-.297.235-.493.535-.197.302-.207.295-.403.597-.198.302-.239.276-.436.578l-.394.603c-.196.301-.148.333-.345.634-.197.301-.176.315-.372.617-.198.303-.243.274-.44.577-.198.302-.145.336-.342.639s-.228.282-.426.584c-.198.304-.195.305-.393.608-.197.302-.236.276-.433.577-.198.303-.147.336-.344.64-.198.302-.116.355-.313.657-.199.304-.249.271-.447.575-.199.305-.28.251-.48.556-.199.305-.145.34-.344.645s-.243.277-.442.582a1.054 1.054 0 0 0-.041.781.903.903 0 0 0 .413.59c.224.156.196.196.42.352s.242.13.466.287a.872.872 0 0 0 .7.128.911.911 0 0 0 .653-.32c.213-.287.232-.273.445-.56s.275-.241.487-.529c.213-.287.18-.311.393-.599.213-.288.185-.309.398-.597.215-.289.279-.242.493-.53.215-.29.204-.299.419-.59l.43-.576c.213-.29.152-.334.366-.623.214-.29.272-.247.487-.536.215-.29.207-.296.422-.587.215-.29.096-.377.311-.667s.303-.225.518-.515c.215-.29.16-.332.376-.622.214-.29.276-.243.49-.532.215-.29.269-.25.484-.541.215-.29.063-.402.278-.692.216-.292.278-.246.494-.537.216-.292.273-.25.49-.542.216-.292.194-.308.411-.601s.208-.3.423-.594a3.353 3.353 0 0 1 .42-.575 3.294 3.294 0 0 1 .635-.326 3.18 3.18 0 0 1 .626-.303 3.417 3.417 0 0 1 .675-.234 3.507 3.507 0 0 1 .705.114 3.369 3.369 0 0 1 .703.085c.229.079.426.23.638.285a6.023 6.023 0 0 0 .695.069 4.615 4.615 0 0 0 .682.104 1.988 1.988 0 0 0 .648-.212c.238-.081.462-.122.588-.3zm-71.067 96.905a3.282 3.282 0 0 1-.342-.61 3.185 3.185 0 0 1-.22-.654c-.06-.228-.275-.436-.285-.67a3.457 3.457 0 0 1 .046-.724 3.401 3.401 0 0 1 .235-.683 3.338 3.338 0 0 1 .361-.617c.202-.301.307-.231.506-.534s.075-.384.275-.686c.2-.302.32-.223.52-.525.2-.303.092-.374.293-.677.2-.305.232-.284.433-.588.201-.305.204-.304.405-.61.201-.303.227-.286.428-.59.2-.304.182-.317.382-.62.202-.305.144-.343.345-.647.202-.306.31-.234.513-.54.201-.305.081-.384.283-.69s.269-.26.47-.565c.203-.306.23-.287.432-.593.201-.304.14-.345.342-.648.202-.306.308-.236.51-.541.202-.305.103-.37.305-.675.202-.307.172-.327.374-.634.203-.307.284-.254.487-.56.203-.309.152-.343.355-.65s.225-.295.428-.603a.888.888 0 0 0 .187-.616.955.955 0 0 0-.351-.574c-.302-.21-.397-.076-.698-.287s-.194-.365-.496-.577a.952.952 0 0 0-.665-.082.902.902 0 0 0-.572.31c-.218.29-.165.33-.382.62s-.205.299-.422.589c-.218.29-.29.235-.508.525-.218.29-.094.384-.312.675-.219.292-.315.22-.534.512-.22.292-.23.285-.449.578-.219.292-.258.262-.477.554l-.437.583c-.22.292-.173.326-.392.618-.22.293-.2.308-.42.601-.22.293-.262.261-.482.554s-.169.33-.388.623c-.22.293-.25.271-.47.565-.22.291-.217.293-.436.584-.22.294-.257.265-.477.558-.22.293-.171.33-.39.622-.222.294-.144.353-.364.647-.221.294-.27.258-.49.553-.222.295-.3.236-.522.532s-.173.332-.392.63a3.136 3.136 0 0 1-.498.488c-.175.16-.295.394-.498.51a3.402 3.402 0 0 1-.646.314 3.445 3.445 0 0 1-.712.094 3.422 3.422 0 0 1-.715.022 3.513 3.513 0 0 1-.71-.13c-.228-.078-.425-.212-.638-.268a6.913 6.913 0 0 0-.671-.165 4.93 4.93 0 0 0-.687-.128 2.232 2.232 0 0 0-.686.146 1.088 1.088 0 0 0-.537.422 1.14 1.14 0 0 0-.257.68 2.49 2.49 0 0 0 .17.714 4.558 4.558 0 0 0 .307.657c.11.195.305.359.451.565.132.185.221.42.38.612.146.177.314.352.483.533.158.17.43.237.607.408.168.163.269.405.452.568.176.156.402.259.59.413.184.15.324.36.519.506.189.143.346.34.545.48.198.138.502.116.7.244.204.132.365.322.567.443.21.125.384.305.59.417.216.117.443.203.654.305.221.107.446.195.66.286.227.097.472.124.689.202.236.084.431.263.652.324a6.778 6.778 0 0 0 .712.131 3.943 3.943 0 0 0 .717-.033 2.643 2.643 0 0 0 .716.007 1.46 1.46 0 0 0 .79-1.087 2.478 2.478 0 0 0-.208-.66 3.954 3.954 0 0 0-.237-.65c-.104-.19-.32-.323-.458-.524-.125-.18-.184-.422-.335-.61zm90.068-65.206a1.135 1.135 0 0 0 .578-.435 2.39 2.39 0 0 0 .307-.665c.056-.211-.081-.478-.056-.735a6.787 6.787 0 0 0 .03-.702c-.002-.228.022-.462.003-.71-.019-.23-.025-.466-.059-.711-.032-.23.055-.488.009-.73-.045-.23-.241-.434-.298-.672-.055-.229.025-.498-.042-.733-.064-.228-.258-.421-.333-.654-.073-.226-.115-.465-.199-.694a19.793 19.793 0 0 0-.255-.67c-.091-.225-.157-.457-.254-.672-.1-.222-.224-.43-.329-.64-.11-.219-.282-.397-.396-.602-.12-.215-.129-.487-.252-.684-.131-.21-.383-.33-.516-.517-.145-.204-.224-.44-.37-.616-.162-.196-.301-.397-.462-.555a4.052 4.052 0 0 0-.592-.405c-.218-.153-.38-.38-.582-.442a1.119 1.119 0 0 0-.713.109.989.989 0 0 0-.472.44 2.018 2.018 0 0 0-.357.58 4.693 4.693 0 0 0-.067.682 6.335 6.335 0 0 0-.063.688c-.002.22-.06.456-.044.698a3.225 3.225 0 0 1-.043.69c-.034.235.067.506-.014.725-.082.221-.354.35-.48.547a3.915 3.915 0 0 1-1.534 1.365c-.333.13-.326.148-.657.281s-.366.049-.698.182c-.332.134-.274.278-.606.412-.333.133-.377.022-.71.155-.335.135-.339.123-.673.258-.335.134-.354.089-.689.224l-.668.267c-.334.134-.313.188-.646.322-.334.134-.325.157-.66.291-.335.135-.355.086-.69.22-.336.135-.312.194-.647.328s-.349.1-.684.235c-.336.135-.335.137-.671.272s-.353.091-.689.226c-.335.135-.313.19-.648.325s-.298.225-.633.36c-.337.135-.359.08-.695.214-.337.136-.374.045-.711.18-.338.136-.314.195-.652.331s-.358.087-.695.223a1.054 1.054 0 0 0-.482.616.903.903 0 0 0 0 .72c.094.257.049.273.142.53s.124.245.217.502a.872.872 0 0 0 .5.506.911.911 0 0 0 .72.113c.338-.113.346-.09.685-.204s.363-.04.702-.153c.339-.114.326-.153.665-.266.34-.113.329-.147.669-.26.341-.114.367-.039.708-.153.342-.114.338-.127.68-.242l.684-.226c.34-.114.316-.186.657-.3.342-.114.365-.045.706-.16.343-.114.34-.123.683-.238.342-.114.295-.254.637-.368s.377-.011.72-.125c.343-.115.321-.18.664-.294.343-.115.368-.041.71-.156.343-.114.364-.05.707-.165.342-.114.282-.293.624-.407.344-.115.368-.042.712-.157.344-.115.367-.047.71-.162.346-.115.338-.141.683-.257s.342-.126.686-.243a3.354 3.354 0 0 1 .674-.23 3.295 3.295 0 0 1 .707.097 3.18 3.18 0 0 1 .686.11 3.418 3.418 0 0 1 .688.195 3.506 3.506 0 0 1 .512.499 3.369 3.369 0 0 1 .527.473c.142.195.216.43.358.597a6.029 6.029 0 0 0 .53.456 4.618 4.618 0 0 0 .5.477 1.99 1.99 0 0 0 .652.198 1.068 1.068 0 0 0 .654.091zM7.988 87.969a3.283 3.283 0 0 1 .07-.695 3.185 3.185 0 0 1 .194-.662c.082-.222.025-.515.151-.713a3.457 3.457 0 0 1 .453-.566 3.402 3.402 0 0 1 .584-.425 3.34 3.34 0 0 1 .65-.298c.338-.131.384-.014.72-.147s.283-.272.62-.405c.336-.133.39.002.727-.131.337-.133.29-.254.628-.387.339-.134.353-.1.692-.234.34-.134.341-.132.681-.266s.35-.105.69-.239c.339-.134.33-.155.669-.289.34-.133.314-.198.653-.332.34-.134.389-.013.73-.148.34-.134.287-.268.627-.402s.37-.059.71-.193c.34-.134.353-.104.694-.239.34-.134.314-.202.654-.336s.388-.016.728-.15c.34-.134.296-.244.636-.378.342-.135.328-.17.67-.304.342-.135.377-.045.72-.18.343-.136.32-.193.663-.328s.352-.112.695-.248a.888.888 0 0 0 .506-.397.955.955 0 0 0 .042-.672c-.126-.346-.28-.29-.407-.636s.05-.41-.075-.757a.952.952 0 0 0-.497-.448.902.902 0 0 0-.647-.074c-.345.113-.324.175-.668.288s-.34.127-.684.24c-.345.113-.373.026-.717.14-.346.112-.297.26-.643.374-.346.113-.384-.001-.73.112-.349.114-.352.103-.7.216-.347.114-.362.068-.709.181l-.692.226c-.347.114-.33.168-.676.282-.349.114-.34.138-.69.252-.347.113-.363.063-.71.177s-.329.173-.677.287c-.348.114-.36.079-.709.193-.348.114-.347.117-.695.23-.348.115-.363.07-.71.184-.348.113-.33.17-.677.285-.349.114-.318.206-.668.32-.35.115-.368.058-.718.173-.35.114-.38.021-.732.136s-.331.173-.681.29a3.136 3.136 0 0 1-.689.115 3.38 3.38 0 0 1-.7.133 3.402 3.402 0 0 1-.71-.114 3.445 3.445 0 0 1-.636-.331 3.423 3.423 0 0 1-.598-.393 3.513 3.513 0 0 1-.508-.513c-.142-.194-.225-.416-.367-.584a6.917 6.917 0 0 0-.456-.52 4.936 4.936 0 0 0-.489-.5 2.234 2.234 0 0 0-.646-.274 1.088 1.088 0 0 0-.683.037 1.14 1.14 0 0 0-.6.41 2.49 2.49 0 0 0-.27.682 4.56 4.56 0 0 0-.126.714c-.021.222.044.467.046.719 0 .227-.06.47-.04.719.018.23.055.47.089.714.032.23.217.44.263.682.044.23-.012.486.045.725.054.229.18.443.247.678.064.228.059.48.134.713.073.226.089.477.172.706.083.228.345.383.433.602.092.225.114.473.21.688.101.222.14.47.245.68.11.22.247.42.36.625.12.215.254.415.377.612.131.21.315.373.449.561.144.204.201.462.347.638a6.786 6.786 0 0 0 .508.517 3.947 3.947 0 0 0 .606.384 2.645 2.645 0 0 0 .583.417 1.065 1.065 0 0 0 .697-.067 1.067 1.067 0 0 0 .574-.37 2.478 2.478 0 0 0 .209-.66 3.944 3.944 0 0 0 .177-.662c.025-.216-.075-.45-.074-.695.002-.221.092-.453.076-.695zm111.18-1.752a1.136 1.136 0 0 0 .725-.025 2.396 2.396 0 0 0 .633-.37c.167-.14.207-.439.375-.635a6.796 6.796 0 0 0 .428-.56c.13-.188.283-.365.41-.58.115-.198.246-.395.359-.615.105-.207.325-.37.425-.594.096-.213.051-.493.141-.72.087-.219.306-.393.386-.624.078-.223.03-.492.102-.725.07-.227.172-.446.235-.681.062-.234.122-.465.175-.695.054-.237.133-.465.177-.697.046-.24.063-.48.098-.713.036-.242-.003-.487.021-.72.025-.245.174-.473.186-.706.013-.247-.125-.489-.127-.72-.001-.25.07-.49.051-.718-.02-.254-.02-.498-.06-.72a4.046 4.046 0 0 0-.253-.67 2.837 2.837 0 0 0-.224-.695 1.118 1.118 0 0 0-.645-.319.989.989 0 0 0-.64.09 2.018 2.018 0 0 0-.625.27 4.698 4.698 0 0 0-.45.525 6.348 6.348 0 0 0-.444.525c-.127.18-.31.338-.434.544a3.224 3.224 0 0 1-.431.54c-.163.174-.236.453-.428.587-.194.134-.49.083-.707.173a3.915 3.915 0 0 1-2.04.238c-.349-.084-.353-.066-.704-.148-.348-.081-.327-.17-.675-.25-.348-.082-.384.07-.732-.011-.35-.082-.322-.199-.671-.28-.35-.082-.348-.094-.699-.176-.351-.081-.34-.129-.692-.211l-.701-.164c-.35-.082-.363-.026-.713-.107-.35-.082-.357-.057-.707-.14-.352-.081-.34-.133-.693-.215-.351-.082-.365-.02-.717-.103s-.343-.118-.694-.2c-.353-.082-.354-.08-.706-.161-.352-.082-.341-.128-.694-.21-.351-.082-.365-.023-.717-.105-.351-.082-.373.013-.724-.07-.353-.082-.34-.14-.693-.222-.353-.083-.331-.178-.685-.26-.354-.083-.369-.02-.723-.103s-.343-.134-.698-.217a1.054 1.054 0 0 0-.748.23.903.903 0 0 0-.412.589c-.07.264-.117.251-.188.515s-.04.272-.11.536a.872.872 0 0 0 .119.701.911.911 0 0 0 .525.505c.342.102.335.125.678.227s.32.175.663.277c.343.101.355.062.697.164.344.102.354.068.698.17.345.102.322.179.667.281.346.103.35.09.696.192l.69.207c.344.102.366.03.71.131.345.103.325.172.67.274.347.103.35.094.696.197.346.102.388-.04.734.063s.314.208.66.31c.347.104.367.038.714.141.346.103.324.178.67.28.347.103.328.167.674.27.346.102.4-.078.745.024.347.103.325.177.673.28.348.104.327.172.675.275.35.104.357.078.706.181s.352.093.702.194a3.354 3.354 0 0 1 .684.199c.21.11.344.334.523.485a3.18 3.18 0 0 1 .499.484 3.418 3.418 0 0 1 .451.554 3.507 3.507 0 0 1 .134.702 3.37 3.37 0 0 1 .16.69c.005.241-.07.478-.048.697a6.021 6.021 0 0 0 .172.676 4.613 4.613 0 0 0 .136.676 1.988 1.988 0 0 0 .42.537c.158.196.273.393.484.45zM3.801 52.58a3.283 3.283 0 0 1 .456-.53 3.185 3.185 0 0 1 .54-.43c.193-.135.315-.408.532-.498a3.457 3.457 0 0 1 .696-.204 3.402 3.402 0 0 1 .722-.013 3.339 3.339 0 0 1 .704.128c.354.088.324.21.678.295.352.084.387-.061.74.023.351.084.318.225.67.31.353.084.383-.042.736.042.355.085.346.121.7.206.357.085.356.088.712.173.354.085.347.115.701.2.354.084.36.062.714.147.354.085.37.018.725.103.356.085.326.211.682.297.355.085.389-.055.744.03s.337.164.692.249c.357.085.35.117.706.202.356.086.373.015.729.1.355.085.326.21.681.295.356.085.383-.03.738.055.357.085.366.05.723.135s.335.18.692.265c.359.086.373.026.732.112s.353.11.711.196a.888.888 0 0 0 .643-.036.955.955 0 0 0 .42-.526c.094-.356-.065-.398.03-.754s.277-.307.373-.663a.952.952 0 0 0-.15-.653.902.902 0 0 0-.488-.432c-.347-.105-.366-.042-.712-.147s-.351-.09-.698-.195c-.347-.105-.32-.193-.667-.298-.348-.105-.394.044-.741-.062-.35-.105-.315-.22-.664-.327-.35-.106-.346-.117-.697-.224-.349-.105-.335-.152-.684-.258l-.697-.212c-.349-.106-.366-.051-.715-.157-.35-.106-.358-.082-.709-.189-.35-.106-.334-.157-.684-.263s-.368-.046-.719-.152c-.35-.107-.34-.142-.691-.249-.35-.106-.352-.104-.702-.21s-.337-.151-.687-.258c-.35-.106-.367-.048-.717-.154-.352-.107-.38-.013-.732-.12s-.334-.164-.686-.27c-.354-.108-.325-.202-.678-.31s-.371-.048-.725-.152a3.135 3.135 0 0 1-.63-.3 3.379 3.379 0 0 1-.65-.294 3.402 3.402 0 0 1-.516-.5 3.444 3.444 0 0 1-.331-.637 3.423 3.423 0 0 1-.265-.664 3.513 3.513 0 0 1-.122-.712c-.004-.241.055-.472.034-.69a6.91 6.91 0 0 0-.074-.688 4.93 4.93 0 0 0-.114-.69 2.232 2.232 0 0 0-.373-.594 1.088 1.088 0 0 0-.58-.361 1.14 1.14 0 0 0-.73-.007 2.497 2.497 0 0 0-.611.404 4.567 4.567 0 0 0-.512.513c-.146.17-.233.41-.377.618-.129.186-.318.35-.444.565-.116.199-.224.416-.336.636-.106.207-.075.486-.176.71-.095.214-.289.391-.379.62-.086.217-.105.465-.186.695-.078.223-.227.427-.298.66-.07.226-.2.441-.264.676-.062.234.063.511.01.741-.054.237-.178.453-.222.685-.046.24-.156.465-.19.697-.036.242-.04.485-.063.718-.026.245-.031.486-.043.718-.013.247.044.487.046.718.001.25-.1.495-.082.723a6.778 6.778 0 0 0 .12.714 3.942 3.942 0 0 0 .277.662 2.642 2.642 0 0 0 .238.675 1.064 1.064 0 0 0 .609.345 1.067 1.067 0 0 0 .682.025 2.478 2.478 0 0 0 .55-.42 3.953 3.953 0 0 0 .53-.446c.142-.162.194-.41.335-.61.127-.179.334-.316.458-.522zm92.079 62.335a1.135 1.135 0 0 0 .606.394 2.39 2.39 0 0 0 .73.061c.218-.02.421-.24.672-.305a6.782 6.782 0 0 0 .67-.212c.213-.08.441-.136.667-.24.21-.095.43-.182.649-.298.205-.11.478-.116.69-.242.2-.12.325-.375.53-.51.196-.13.475-.147.674-.29.192-.137.307-.386.5-.536.187-.145.396-.267.583-.424.185-.155.367-.31.542-.468.18-.163.376-.305.545-.469.175-.17.327-.357.489-.528.168-.178.277-.4.43-.578.161-.186.414-.288.557-.471.153-.195.178-.472.31-.662.141-.206.337-.361.452-.558.129-.22.27-.42.363-.624a4.052 4.052 0 0 0 .178-.694 2.84 2.84 0 0 0 .216-.7 1.119 1.119 0 0 0-.345-.631.989.989 0 0 0-.575-.294 2.018 2.018 0 0 0-.667-.137 4.692 4.692 0 0 0-.665.17 6.333 6.333 0 0 0-.668.176c-.207.074-.449.1-.67.198a3.224 3.224 0 0 1-.663.195c-.233.05-.453.236-.686.235-.236 0-.45-.213-.679-.263a3.915 3.915 0 0 1-1.807-.975c-.237-.268-.25-.256-.49-.522s-.17-.327-.409-.593c-.239-.266-.355-.162-.594-.429-.24-.267-.15-.347-.389-.614-.24-.268-.231-.276-.472-.544-.241-.27-.205-.302-.446-.57l-.48-.537c-.24-.268-.283-.23-.523-.497-.24-.269-.26-.252-.5-.52-.241-.27-.201-.305-.443-.574-.24-.27-.288-.227-.529-.496s-.213-.293-.454-.562c-.239-.267-.241-.265-.48-.531-.24-.268-.205-.3-.446-.568-.242-.27-.287-.23-.529-.5-.241-.269-.314-.204-.555-.473-.243-.27-.198-.31-.441-.581-.243-.271-.17-.337-.413-.608-.244-.272-.291-.229-.535-.5s-.205-.308-.449-.58a1.054 1.054 0 0 0-.744-.241.903.903 0 0 0-.676.247c-.21.175-.24.138-.45.314s-.188.2-.397.375a.872.872 0 0 0-.305.643.911.911 0 0 0 .14.715c.223.28.204.294.426.574s.162.328.385.607c.222.28.254.255.477.535.223.28.25.259.473.54.224.281.162.33.386.612.224.283.235.275.46.557.223.282.222.283.446.565.224.281.283.234.507.515.224.282.167.327.391.609.225.283.233.277.458.56.224.282.34.19.564.473s.139.35.363.633c.225.283.279.24.504.524.224.282.163.33.387.612.224.283.172.324.397.607.225.283.372.165.597.448.225.284.165.332.39.616.227.284.17.328.397.613.226.285.248.268.474.553s.236.279.464.562a3.353 3.353 0 0 1 .447.555 3.295 3.295 0 0 1 .15.697 3.18 3.18 0 0 1 .131.683 3.418 3.418 0 0 1 .052.713 3.506 3.506 0 0 1-.293.652 3.368 3.368 0 0 1-.264.657c-.135.2-.33.35-.439.541a6.027 6.027 0 0 0-.247.653 4.618 4.618 0 0 0-.277.633 1.99 1.99 0 0 0 .036.681 1.068 1.068 0 0 0 .139.646zM20.67 21.189a3.283 3.283 0 0 1 .678-.173 3.184 3.184 0 0 1 .689-.043c.236 0 .492-.152.72-.102a3.457 3.457 0 0 1 .688.232 3.402 3.402 0 0 1 .6.403 3.34 3.34 0 0 1 .502.51c.238.272.144.355.384.626s.352.172.592.443.132.367.372.639c.24.271.338.186.579.457.242.273.214.298.456.57.242.275.24.276.483.55.242.273.219.294.46.566.242.273.259.258.5.53.242.273.294.228.536.5.243.275.145.361.388.635.243.274.35.179.593.452s.182.328.424.601c.243.275.219.297.462.571.241.273.296.225.537.498.243.274.148.358.39.632.243.274.332.196.574.47.244.274.271.25.515.525.244.276.172.34.416.615.245.276.29.236.535.512s.226.293.471.57a.888.888 0 0 0 .547.339.955.955 0 0 0 .645-.19c.282-.238.176-.364.459-.6s.403-.093.685-.33a.952.952 0 0 0 .252-.621.902.902 0 0 0-.152-.633c-.224-.285-.276-.245-.5-.53s-.235-.275-.46-.56c-.223-.285-.151-.341-.375-.626-.224-.286-.347-.19-.572-.476-.225-.287-.13-.361-.355-.648-.226-.288-.217-.296-.443-.584-.225-.287-.187-.317-.412-.604-.225-.286-.224-.287-.45-.573-.225-.287-.27-.252-.495-.539-.226-.288-.246-.273-.472-.561-.226-.288-.184-.32-.41-.608s-.275-.25-.501-.537c-.227-.289-.198-.312-.424-.6-.225-.287-.227-.285-.453-.572-.226-.288-.189-.318-.415-.606-.226-.288-.273-.25-.5-.538-.226-.29-.303-.229-.53-.518-.227-.29-.18-.327-.407-.617-.228-.29-.151-.35-.38-.641s-.275-.253-.506-.542a3.136 3.136 0 0 1-.343-.607 3.378 3.378 0 0 1-.364-.613 3.401 3.401 0 0 1-.136-.706 3.444 3.444 0 0 1 .094-.712 3.423 3.423 0 0 1 .164-.696 3.514 3.514 0 0 1 .308-.652c.135-.2.315-.354.424-.545a6.916 6.916 0 0 0 .333-.607 4.934 4.934 0 0 0 .302-.63 2.234 2.234 0 0 0 .037-.701 1.088 1.088 0 0 0-.268-.629 1.14 1.14 0 0 0-.591-.423 2.49 2.49 0 0 0-.734-.022 4.56 4.56 0 0 0-.714.127c-.216.056-.423.201-.66.289-.212.078-.462.104-.689.208-.209.096-.422.212-.64.328-.206.11-.341.355-.553.482-.2.12-.46.154-.665.29-.196.129-.355.32-.553.463-.192.138-.43.22-.623.37-.187.145-.418.246-.604.403-.186.155-.242.454-.417.613-.18.162-.407.269-.575.433-.175.17-.394.291-.556.462-.168.178-.31.375-.464.552-.16.186-.303.38-.447.564-.152.194-.242.424-.373.613-.142.206-.365.347-.48.544a6.787 6.787 0 0 0-.312.655 3.947 3.947 0 0 0-.154.7 2.645 2.645 0 0 0-.192.69 1.46 1.46 0 0 0 .845 1.046 2.478 2.478 0 0 0 .692-.03 3.943 3.943 0 0 0 .683-.06c.21-.05.397-.225.627-.307.208-.074.457-.068.678-.166zm57.684-2.775c-.214.286-.086.37-.206.706-.12.338-.163.323-.283.661-.12.34-.013.378-.133.717-.12.338-.215.305-.335.643-.12.338-.106.343-.226.68-.12.339-.123.338-.244.676-.12.34-.174.32-.295.66-.12.34-.083.353-.204.692s.017.387-.104.727c-.12.34-.246.295-.366.636-.121.34-.089.35-.21.69-.12.34-.162.325-.283.664-.12.339-.145.33-.265.669-.121.34.05.401-.071.742l-.242.682c-.121.342-.154.33-.276.673s-.14.335-.262.677c-.09.25-.336.382-.524.545-.193.167-.358.41-.609.462a1.581 1.581 0 0 1-.743-.18l-.04.123a1.544 1.544 0 0 1-.633-.444 1.522 1.522 0 0 1-.358-.673 1.486 1.486 0 0 1 .044-.753c.098-.344.077-.35.175-.694.1-.345.033-.364.132-.709.1-.346.224-.31.324-.656.099-.345-.04-.384.059-.73.099-.344.177-.321.276-.666.099-.345.13-.335.23-.68.099-.347.029-.367.128-.713.1-.346.222-.311.321-.657s-.014-.378.085-.724c.1-.347.064-.357.164-.704.1-.346.192-.32.291-.666.1-.346.04-.363.14-.709.1-.345.123-.339.222-.684.1-.347.164-.329.264-.676.1-.348.117-.343.217-.69.1-.35-.058-.395.042-.744s.39-.311.385-.674c-.213-.097-.507-.216-.707-.32-.209-.107-.394-.244-.588-.357-.204-.119-.433-.183-.62-.307-.197-.13-.395-.251-.572-.386-.188-.144-.306-.359-.471-.506-.179-.16-.454-.213-.602-.376a4.735 4.735 0 0 1-.34-.615 3.384 3.384 0 0 1-.321-.597 2.1 2.1 0 0 1-.128-.652 1.467 1.467 0 0 1 .062-.639 1.538 1.538 0 0 1 .307-.628 2.302 2.302 0 0 1 .554-.46 3.87 3.87 0 0 1 .681-.24 5.098 5.098 0 0 1 .687-.24c.228-.043.472-.039.723-.06.233-.021.473-.035.724-.037.236-.002.475.051.724.066.238.014.483-.026.73.003.238.028.495-.033.74.008.236.04.466.147.708.2.235.053.448.206.687.27.233.064.484.07.72.146.234.075.445.203.67.286.232.086.502.065.723.158.229.097.465.173.681.277.224.108.422.263.631.378.22.12.448.217.65.344.212.132.438.244.63.382.203.148.354.357.533.51a7.172 7.172 0 0 1 .517.517 5.032 5.032 0 0 1 .41.603 3.762 3.762 0 0 1 .404.595 2.393 2.393 0 0 1 .24.68 1.588 1.588 0 0 1-.136.693 1.5 1.5 0 0 1-.315.572 2.153 2.153 0 0 1-.515.419 3.274 3.274 0 0 1-.584.357 5.58 5.58 0 0 1-.674.117 6.66 6.66 0 0 1-.67.119c-.22.025-.441.188-.679.196-.223.007-.455-.102-.692-.11-.223-.008-.458.046-.692.024-.225-.02-.446-.125-.679-.158a17.194 17.194 0 0 1-.738-.131zm-29.105 91.54c-.008-.358.052-.338.15-.681.098-.346.142-.333.24-.678.099-.347-.012-.378.087-.725.098-.345.195-.317.293-.662.098-.345.084-.35.182-.694.098-.345.102-.344.2-.69.099-.346.154-.33.253-.677.098-.347.06-.357.159-.703s-.041-.386.057-.732c.1-.348.227-.311.326-.659.098-.346.065-.356.164-.702.099-.347.142-.334.24-.68.099-.347.125-.34.223-.685.099-.348-.076-.398.023-.745l.198-.697c.099-.349.133-.34.232-.688s.12-.344.218-.693a1.62 1.62 0 0 0 .138-.765c-.061-.249-.315-.414-.49-.602-.168-.181-.314-.444-.566-.525l-.04.124a1.442 1.442 0 0 0-.74-.075 1.48 1.48 0 0 0-.674.331 1.497 1.497 0 0 0-.453.612c-.12.337-.097.344-.216.681-.12.339-.054.362-.174.7-.12.34-.242.297-.361.636-.12.338.016.386-.103.725-.119.338-.196.31-.315.649-.119.338-.15.327-.27.666-.119.34-.05.364-.17.704-.12.339-.24.297-.36.636s-.007.379-.127.718c-.12.34-.085.352-.205.693-.12.34-.21.308-.33.647-.12.34-.062.36-.182.7-.12.339-.143.33-.262.67-.12.34-.183.318-.303.66-.12.34-.138.334-.258.676s.035.397-.085.74-.19.303-.406.596c-.23-.044-.374-.048-.598-.08-.232-.033-.458-.092-.683-.113-.234-.021-.469.03-.693.023-.236-.008-.465.007-.687.014-.237.008-.474-.066-.694-.041-.239.027-.44.217-.655.263a6.08 6.08 0 0 0-.691.072 3.598 3.598 0 0 0-.631.285 2.491 2.491 0 0 0-.574.408 1.443 1.443 0 0 0-.363 1.372 2.452 2.452 0 0 0 .235.694 3.642 3.642 0 0 0 .332.656 5.979 5.979 0 0 0 .521.518 7.088 7.088 0 0 0 .508.526 9.2 9.2 0 0 0 .576.448c.191.139.37.316.582.448.2.126.444.199.663.319.209.115.47.139.693.247.216.104.41.258.639.354.222.094.414.276.646.362.226.083.48.103.716.178.235.075.455.195.687.258.238.064.504.007.738.059.242.053.483.072.72.113.245.042.476.124.714.151.248.03.49.019.728.033.25.014.49-.013.726-.015.252-.002.493.059.727.038.254-.022.498-.03.728-.074a6.11 6.11 0 0 0 .731-.109 3.698 3.698 0 0 0 .66-.334 2.356 2.356 0 0 0 .552-.474 1.308 1.308 0 0 0 .496-1.304 2.408 2.408 0 0 0-.184-.68 3.891 3.891 0 0 0-.406-.565 4.83 4.83 0 0 0-.374-.581 7.057 7.057 0 0 0-.5-.48c-.164-.147-.434-.179-.624-.323-.177-.135-.3-.356-.496-.486-.187-.124-.418-.186-.62-.305-.196-.113-.36-.292-.57-.4-.201-.103-.354-.184-.568-.282zm58.09-71.45a1.757 1.757 0 0 0 .441-.598 2.406 2.406 0 0 0 .274-.687 4.323 4.323 0 0 0-.063-.736 5.049 5.049 0 0 0 .034-.734c-.036-.229-.101-.468-.165-.712a9.272 9.272 0 0 0-.209-.7c-.077-.224-.113-.476-.21-.706-.093-.219-.232-.428-.342-.652-.106-.214-.347-.362-.469-.579-.117-.209-.126-.486-.258-.695-.128-.204-.292-.391-.433-.595-.137-.198-.245-.424-.395-.62-.15-.196-.283-.406-.437-.59-.158-.19-.455-.253-.617-.43a14.782 14.782 0 0 0-.503-.524c-.177-.175-.328-.364-.506-.523-.187-.166-.358-.337-.545-.485-.196-.155-.317-.404-.512-.538-.207-.143-.493-.147-.696-.264-.22-.127-.371-.368-.583-.464a5.023 5.023 0 0 0-.732-.137 3.794 3.794 0 0 0-.7-.178 2.35 2.35 0 0 0-.72.033 1.388 1.388 0 0 0-1.1.808 2.34 2.34 0 0 0-.162.657 3.277 3.277 0 0 0-.196.668c-.001.216.157.434.188.672a6.267 6.267 0 0 0 .043.685c.05.215.08.446.152.673.068.212.214.404.3.624.082.208.056.47.154.684.095.205.304.36.413.568.106.2.247.457.366.66-.2.296-.353.165-.63.39-.28.226-.241.273-.52.5-.28.226-.296.206-.575.433-.28.225-.321.174-.6.4-.278.225-.29.21-.568.436-.28.226-.176.354-.455.58-.28.226-.398.08-.678.307-.28.226-.233.284-.513.51s-.3.202-.579.428c-.28.227-.239.279-.52.506-.278.225-.268.237-.547.463-.28.227-.337.156-.618.383-.28.226-.181.347-.46.574-.282.227-.357.134-.638.361-.282.228-.29.219-.571.446-.282.229-.313.19-.595.42s-.283.227-.565.456a1.609 1.609 0 0 0-.42.67 1.875 1.875 0 0 0 .184 1.5l.05-.039a1.533 1.533 0 0 0 .58.5 1.567 1.567 0 0 0 .764.114 1.596 1.596 0 0 0 .75-.233c.291-.207.256-.256.547-.464.293-.208.236-.287.528-.496.294-.209.328-.16.622-.369.292-.208.35-.128.641-.336.292-.208.255-.26.547-.468.293-.208.323-.166.615-.374.294-.21.225-.306.519-.515.293-.21.277-.232.57-.44s.32-.17.614-.379c.294-.21.275-.236.57-.445.292-.208.272-.235.564-.443.294-.21.336-.151.63-.36.292-.209.306-.19.6-.398.294-.21.339-.147.633-.357.295-.21.272-.244.567-.454.296-.21.275-.24.571-.45a1.587 1.587 0 0 1 .618-.346c.162.168.257.302.421.457.171.16.345.317.517.462.18.153.408.238.587.373.19.142.337.334.524.456.199.13.405.241.599.347.21.115.48.082.683.167a5.934 5.934 0 0 0 .61.328 3.292 3.292 0 0 0 .684.048 2.399 2.399 0 0 0 .682.026 1.744 1.744 0 0 0 .65-.26zm-82.348 55.75c.198-.297.236-.246.513-.472.278-.226.308-.19.586-.417.28-.227.207-.316.486-.543.279-.227.342-.149.62-.375.279-.226.27-.238.548-.464.278-.226.28-.223.559-.45.28-.227.316-.183.596-.41.279-.228.254-.258.533-.485s.188-.34.467-.567c.28-.227.364-.124.644-.352.279-.226.257-.253.535-.48.28-.227.308-.192.588-.42.28-.226.296-.206.575-.433.28-.228.166-.369.447-.597l.562-.458c.282-.229.304-.202.585-.43s.295-.214.577-.443c.205-.169.461-.317.552-.548a1.603 1.603 0 0 0-.056-.773 1.545 1.545 0 0 0-.164-.756l-.103.079a1.442 1.442 0 0 0-.562-.486 1.48 1.48 0 0 0-.743-.116 1.497 1.497 0 0 0-.722.241c-.29.208-.277.227-.568.435-.292.209-.252.265-.543.474-.293.21-.369.104-.662.313-.291.209-.207.326-.5.535-.29.208-.338.142-.63.351-.29.209-.31.182-.602.39-.293.21-.25.27-.544.48-.292.21-.367.105-.66.315s-.223.305-.515.515c-.294.21-.272.24-.566.45-.291.208-.347.13-.64.339-.292.21-.256.26-.55.469-.292.21-.306.19-.599.398-.294.21-.333.157-.627.367-.294.211-.305.196-.6.407-.295.211-.199.345-.494.557s-.33.14-.675.257c-.162-.168-.28-.254-.444-.409-.17-.16-.323-.338-.495-.484-.18-.152-.401-.245-.58-.38-.19-.141-.385-.26-.572-.381-.198-.13-.35-.327-.544-.432-.21-.115-.485-.075-.688-.16a6.081 6.081 0 0 0-.607-.337 3.599 3.599 0 0 0-.68-.13 2.492 2.492 0 0 0-.704.006 1.443 1.443 0 0 0-1.085.915 2.452 2.452 0 0 0-.205.703 3.642 3.642 0 0 0-.105.728 5.976 5.976 0 0 0 .13.723 7.087 7.087 0 0 0 .113.72c.06.227.133.462.215.699.078.223.122.47.22.7.092.22.25.418.36.642.106.214.305.384.427.6.117.21.188.448.32.657.128.204.181.464.322.667.138.199.335.36.484.557.15.196.262.421.416.606.158.19.408.294.57.471.167.183.354.337.525.506.176.174.32.375.498.533.186.166.391.297.578.445.196.155.408.27.603.404.207.143.37.331.573.448.22.127.424.26.636.355a6.116 6.116 0 0 0 .662.332 3.702 3.702 0 0 0 .732.105 2.358 2.358 0 0 0 .726-.072 1.308 1.308 0 0 0 1.156-.783 2.408 2.408 0 0 0 .238-.662 3.891 3.891 0 0 0-.008-.697 4.831 4.831 0 0 0 .027-.69 7.055 7.055 0 0 0-.134-.68c-.05-.215-.254-.396-.326-.622-.068-.213-.041-.463-.128-.683-.082-.209-.235-.392-.334-.606-.094-.205-.127-.445-.236-.653-.106-.2-.185-.355-.304-.558zm88.566-25.208a1.757 1.757 0 0 0 .705-.238 2.406 2.406 0 0 0 .618-.405 4.325 4.325 0 0 0 .37-.639 5.05 5.05 0 0 0 .449-.582c.102-.208.186-.441.274-.678.082-.22.162-.452.23-.694.065-.227.18-.453.233-.698.05-.232.056-.483.093-.728.037-.237-.076-.496-.051-.744.023-.238.174-.47.187-.718.012-.24-.015-.488-.014-.735.002-.242.042-.489.032-.736-.01-.246.002-.494-.019-.734-.02-.246-.227-.468-.258-.706a14.77 14.77 0 0 0-.113-.717c-.044-.245-.06-.487-.114-.72-.057-.242-.1-.48-.168-.709-.072-.24-.028-.513-.11-.734-.088-.236-.32-.404-.42-.616-.107-.231-.094-.516-.213-.717-.131-.22-.377-.35-.52-.531a3.79 3.79 0 0 0-.472-.547 2.348 2.348 0 0 0-.609-.385 1.388 1.388 0 0 0-1.362.031 2.34 2.34 0 0 0-.51.446c-.157.147-.403.236-.544.434-.125.177-.12.446-.231.658a6.265 6.265 0 0 0-.358.586c-.083.205-.19.412-.261.639-.067.213-.057.453-.113.683-.052.218-.224.417-.266.649-.04.222.042.469.012.702-.028.225-.06.516-.078.75-.333.129-.384-.067-.74-.042-.359.025-.354.086-.712.111-.36.025-.361 0-.72.025-.358.025-.363-.041-.72-.016-.358.024-.36.006-.717.031-.358.025-.346.19-.704.215-.36.025-.373-.163-.732-.138-.36.025-.354.1-.713.124s-.361-.006-.72.019c-.36.025-.355.09-.715.116-.36.025-.359.04-.718.065-.36.025-.366-.066-.725-.04-.358.024-.348.18-.706.205-.36.025-.369-.095-.73-.07-.36.025-.361.013-.722.039-.362.025-.366-.024-.728.001l-.724.05a1.609 1.609 0 0 0-.728.308 1.875 1.875 0 0 0-.709 1.334l.063-.003a1.533 1.533 0 0 0 .188.742 1.567 1.567 0 0 0 .56.532 1.596 1.596 0 0 0 .748.24c.358-.003.357-.064.715-.067.359-.002.358-.1.717-.103.36-.003.36.057.72.054.36-.002.36.096.72.093.358-.003.357-.067.716-.07.359-.003.359.05.718.047.36-.003.36-.122.72-.125.36-.003.36-.031.72-.034s.36.045.72.042c.36-.002.36-.035.722-.037.36-.003.36-.037.72-.04.36-.003.36.07.721.066.36-.002.36.022.72.019.36-.003.361.074.723.07.362-.002.361-.043.723-.046.363-.003.363-.038.726-.041a1.585 1.585 0 0 1 .704.07c.037.231.037.396.083.617.048.23.1.457.158.675.06.228.198.429.268.642.073.225.084.467.167.674.088.22.193.43.291.628.107.215.347.343.465.529a5.93 5.93 0 0 0 .312.618 3.291 3.291 0 0 0 .531.431 2.399 2.399 0 0 0 .545.413 1.744 1.744 0 0 0 .68.16zm-99.433-1.565a1.542 1.542 0 0 1 .691-.093c.358-.026.362.02.72-.005.36-.026.35-.14.71-.167.358-.025.365.075.723.05.358-.027.357-.041.714-.067.358-.026.358-.022.716-.048.36-.026.364.031.724.006.359-.026.356-.065.715-.091s.348-.17.707-.197c.36-.026.37.107.73.081.36-.026.357-.06.717-.086.359-.026.362.02.721-.007.36-.026.361.001.72-.025.36-.026.347-.207.708-.233l.722-.052c.362-.027.364.008.726-.018s.364-.005.726-.031a1.62 1.62 0 0 0 .766-.133c.213-.142.282-.437.398-.665a1.545 1.545 0 0 0 .3-.713l-.13.005a1.442 1.442 0 0 0-.183-.72 1.48 1.48 0 0 0-.542-.521 1.497 1.497 0 0 0-.73-.217c-.357.004-.357.027-.714.03-.359.004-.358.074-.717.077-.36.004-.361-.126-.721-.122-.359.003-.357.147-.716.151-.358.004-.36-.077-.717-.074-.36.004-.36-.029-.718-.025-.36.004-.36.076-.72.08-.36.004-.362-.124-.721-.12s-.359.122-.719.126c-.36.003-.36.04-.72.044-.361.004-.362-.093-.723-.089-.36.004-.359.065-.719.069-.36.004-.36-.021-.719-.018-.361.004-.362-.063-.723-.059-.362.004-.362-.014-.724-.01-.363.003-.361.168-.724.172s-.351-.075-.7-.177c-.036-.23-.083-.368-.13-.589-.047-.23-.07-.463-.127-.68-.06-.228-.188-.431-.258-.644-.073-.225-.166-.434-.249-.641-.088-.22-.1-.468-.198-.666-.107-.215-.354-.339-.472-.525a6.08 6.08 0 0 0-.303-.625 3.598 3.598 0 0 0-.484-.496 2.492 2.492 0 0 0-.58-.4 1.818 1.818 0 0 0-.704-.123 1.803 1.803 0 0 0-.71.251 2.453 2.453 0 0 0-.57.458 3.642 3.642 0 0 0-.503.537 5.977 5.977 0 0 0-.31.667 7.087 7.087 0 0 0-.32.655 9.95 9.95 0 0 0-.224.695c-.064.227-.17.455-.222.7-.05.232-.034.485-.072.73-.037.237.03.49.005.737-.024.239-.102.475-.115.723-.012.24-.117.483-.119.731 0 .242.068.487.078.735.01.246-.028.494-.007.733.02.246.165.476.196.714.033.246.097.48.14.715.045.244.047.49.102.723.057.243.15.467.219.695.071.24.179.456.262.677.087.236.113.484.212.696.108.231.2.458.32.659a6.109 6.109 0 0 0 .351.65 3.699 3.699 0 0 0 .54.505 2.356 2.356 0 0 0 .635.358 1.775 1.775 0 0 0 .71.211 1.786 1.786 0 0 0 .685-.191 2.409 2.409 0 0 0 .575-.406 3.891 3.891 0 0 0 .393-.575 4.83 4.83 0 0 0 .418-.55c.102-.194.19-.412.28-.633.082-.206.02-.47.09-.697.066-.213.232-.403.287-.633.052-.218.032-.456.074-.687.04-.223.151-.438.18-.672.03-.224.053-.396.071-.63zm87.008 30.15a1.757 1.757 0 0 0 .714.21 2.406 2.406 0 0 0 .739.022 4.325 4.325 0 0 0 .67-.311 5.05 5.05 0 0 0 .701-.22c.204-.112.407-.256.615-.4a9.26 9.26 0 0 0 .587-.435c.183-.15.407-.269.59-.439.174-.162.323-.364.496-.544.165-.172.22-.45.383-.638.156-.182.413-.285.565-.48.148-.19.267-.408.41-.61.14-.197.314-.376.448-.584.133-.207.284-.404.405-.612.124-.213.082-.514.193-.727.115-.22.22-.434.32-.652.103-.226.23-.432.319-.654.092-.232.194-.452.269-.678.078-.237.271-.436.33-.665.064-.243-.03-.514.01-.745.045-.25.22-.476.237-.71a5.017 5.017 0 0 0-.122-.733 3.79 3.79 0 0 0-.072-.718 2.347 2.347 0 0 0-.278-.665 1.388 1.388 0 0 0-1.134-.756 2.34 2.34 0 0 0-.674.072 3.276 3.276 0 0 0-.694.045c-.204.073-.354.296-.567.406a6.27 6.27 0 0 0-.629.275c-.185.12-.392.228-.58.373-.177.136-.307.339-.484.495-.168.149-.424.214-.59.38-.16.158-.235.407-.393.581a17.13 17.13 0 0 0-.495.57c-.347-.086-.276-.275-.582-.46-.308-.184-.34-.132-.647-.317-.308-.185-.295-.207-.604-.392-.307-.185-.273-.242-.58-.427-.308-.184-.298-.2-.605-.385-.308-.185-.393-.043-.7-.228-.31-.186-.212-.347-.521-.533-.309-.185-.347-.122-.655-.307s-.292-.212-.6-.398c-.31-.186-.344-.13-.653-.315-.307-.185-.315-.172-.623-.356-.309-.186-.262-.264-.57-.45-.309-.185-.39-.051-.698-.237-.31-.186-.247-.289-.557-.475-.31-.187-.305-.197-.615-.384-.311-.187-.286-.229-.597-.416l-.623-.375a1.609 1.609 0 0 0-.773-.165 1.875 1.875 0 0 0-1.346.686l.053.034a1.533 1.533 0 0 0-.27.715 1.567 1.567 0 0 0 .153.758 1.596 1.596 0 0 0 .475.625c.294.203.33.153.624.355.295.204.35.124.646.327.297.204.263.254.56.458.295.203.24.284.535.488.295.203.332.15.627.353.296.204.266.247.562.45.297.205.364.107.661.311.297.204.312.181.609.386s.27.243.565.447c.298.205.316.178.613.383.296.204.315.176.61.38.297.204.257.263.553.467.297.204.283.224.58.428.298.205.254.269.552.474.298.205.322.171.62.377.3.206.32.177.619.383a1.588 1.588 0 0 1 .536.462c-.102.21-.196.345-.285.552-.092.216-.18.432-.258.644-.082.22-.084.465-.15.68-.068.225-.198.43-.249.647-.054.231-.088.463-.121.682a6.16 6.16 0 0 0 .077.7 5.929 5.929 0 0 0-.1.685 3.29 3.29 0 0 0 .189.658 2.399 2.399 0 0 0 .21.65 1.744 1.744 0 0 0 .464.522zM20.58 39.316c.347.085.312.137.62.32.307.185.283.225.592.409.309.185.367.086.677.271.308.184.256.27.564.455.308.184.315.171.623.355.308.184.306.187.614.372.31.185.28.234.59.419.308.185.329.151.637.336s.384.06.693.245c.31.185.241.299.551.484.308.184.325.155.633.34.31.184.287.223.596.408.309.184.295.207.604.392.31.186.404.03.714.215l.622.372c.312.186.294.216.606.403s.3.204.613.39a1.62 1.62 0 0 0 .703.331c.256.006.482-.197.708-.316.22-.117.51-.19.654-.413l-.11-.07a1.442 1.442 0 0 0 .265-.694 1.48 1.48 0 0 0-.146-.738 1.497 1.497 0 0 0-.473-.596c-.295-.202-.308-.183-.603-.385-.296-.203-.335-.146-.631-.348-.297-.204-.223-.311-.52-.515-.296-.202-.378-.083-.674-.286-.295-.203-.25-.27-.545-.472-.296-.203-.278-.23-.574-.433-.297-.203-.338-.143-.636-.347-.297-.203-.224-.309-.521-.512s-.364-.106-.66-.309c-.298-.204-.32-.173-.617-.377-.296-.203-.241-.283-.537-.485-.297-.204-.332-.153-.63-.357-.296-.203-.282-.224-.579-.427-.298-.204-.26-.26-.559-.463-.299-.205-.288-.22-.587-.425-.3-.205-.393-.069-.693-.274s-.245-.263-.472-.546c.102-.21.143-.35.232-.557.092-.216.208-.42.286-.63.081-.222.092-.462.158-.676.068-.226.113-.451.163-.668.054-.231.187-.44.22-.66.036-.237-.096-.48-.085-.7a6.08 6.08 0 0 0 .11-.686 3.598 3.598 0 0 0-.112-.684 2.491 2.491 0 0 0-.246-.66 1.443 1.443 0 0 0-1.231-.706 2.452 2.452 0 0 0-.73.048 3.642 3.642 0 0 0-.72.151 5.979 5.979 0 0 0-.636.37 7.09 7.09 0 0 0-.64.354 9.32 9.32 0 0 0-.582.44c-.183.15-.4.276-.583.446-.174.162-.307.378-.48.558-.164.172-.255.417-.417.606-.157.181-.356.33-.508.525-.148.19-.373.329-.516.53-.14.198-.224.438-.358.646-.133.207-.306.39-.427.597-.124.214-.137.485-.248.698-.114.22-.195.448-.295.665-.104.226-.243.429-.331.651-.093.232-.145.47-.22.695-.079.238-.115.476-.174.705-.063.243-.184.461-.225.692-.044.251-.099.49-.116.722a6.11 6.11 0 0 0-.085.735 3.698 3.698 0 0 0 .152.723 2.356 2.356 0 0 0 .316.658 1.775 1.775 0 0 0 .46.58 1.786 1.786 0 0 0 .67.236 2.409 2.409 0 0 0 .704-.002 3.89 3.89 0 0 0 .652-.246 4.83 4.83 0 0 0 .658-.21c.194-.101.392-.229.592-.36.186-.12.286-.373.474-.518.177-.137.421-.198.598-.354.168-.149.288-.355.455-.52.16-.16.375-.273.533-.447.153-.168.27-.295.42-.476zm53.98 74.604a1.757 1.757 0 0 0 .463.58 2.406 2.406 0 0 0 .593.442 4.323 4.323 0 0 0 .727.13 5.05 5.05 0 0 0 .7.222c.231.025.479.024.731.026.235.002.48-.003.731-.02.235-.018.488.013.736-.021.235-.033.473-.113.718-.162.234-.046.44-.241.68-.303.233-.059.502.004.74-.069.23-.07.452-.18.685-.264.227-.082.473-.128.702-.222.228-.093.465-.167.683-.268.224-.104.362-.374.575-.485.22-.114.429-.23.636-.351.214-.126.437-.222.636-.353.209-.137.418-.259.61-.4.2-.15.472-.203.652-.356.191-.163.27-.438.435-.604.18-.18.451-.264.599-.444a5.024 5.024 0 0 0 .322-.67 3.794 3.794 0 0 0 .353-.632 2.35 2.35 0 0 0 .154-.704 1.388 1.388 0 0 0-.495-1.27 2.34 2.34 0 0 0-.593-.327c-.192-.097-.36-.298-.595-.362a6.463 6.463 0 0 0-.697.007 6.264 6.264 0 0 0-.673-.136c-.22-.007-.452-.038-.69-.027-.222.01-.445.102-.68.129-.222.025-.469-.069-.7-.029-.223.039-.427.2-.656.252-.221.05-.506.12-.732.183-.235-.27-.068-.384-.214-.71-.145-.328-.201-.303-.347-.631-.147-.33-.124-.34-.27-.668-.146-.328-.085-.355-.231-.683-.146-.327-.129-.334-.275-.662-.145-.328-.296-.26-.442-.589-.147-.329.025-.405-.121-.735-.147-.328-.214-.298-.36-.627s-.118-.341-.264-.67c-.147-.33-.207-.303-.354-.633-.146-.329-.16-.323-.307-.652-.146-.329-.063-.366-.21-.695-.146-.328-.288-.265-.434-.593-.147-.33-.037-.379-.184-.71-.147-.33-.136-.335-.283-.665-.148-.332-.103-.352-.25-.683l-.295-.664a1.609 1.609 0 0 0-.539-.579 1.875 1.875 0 0 0-1.496-.21l.024.058a1.533 1.533 0 0 0-.632.431 1.567 1.567 0 0 0-.309.709 1.596 1.596 0 0 0 .03.784c.125.335.183.314.308.65s.216.301.342.638c.126.337.07.358.196.696.125.336.033.37.158.706.126.336.186.314.311.65s.076.354.202.69c.126.338.238.297.364.635.125.337.151.327.277.664s.081.354.207.691c.126.339.156.327.282.666.126.337.158.326.284.663.125.338.058.363.184.7.126.337.103.346.229.683.126.338.054.365.18.704.127.339.166.324.292.664.127.34.16.328.287.668a1.585 1.585 0 0 1 .174.685c-.204.114-.358.17-.55.29-.2.123-.396.25-.581.378-.194.134-.335.333-.512.471-.186.146-.41.24-.576.388a9.045 9.045 0 0 0-.49.489c-.166.174-.204.443-.339.617-.148.19-.365.316-.474.504a3.292 3.292 0 0 0-.223.648 2.4 2.4 0 0 0-.202.652 1.744 1.744 0 0 0 .082.695zM42.021 19.948c.236.268.178.291.324.617.146.328.104.347.251.675.147.328.252.281.399.61.147.328.055.369.202.696.146.327.16.321.306.649.147.327.143.329.29.656.147.33.095.353.242.682.147.328.183.312.33.64s.28.27.427.598c.147.33.026.384.173.714.148.329.179.315.326.644.147.329.106.347.254.676.146.328.122.339.27.667.147.33.313.256.46.585l.297.661c.148.331.116.346.264.677s.13.34.278.671a1.62 1.62 0 0 0 .387.674 1.603 1.603 0 0 0 .761.147 1.545 1.545 0 0 0 .772.037l-.05-.12a1.442 1.442 0 0 0 .616-.417 1.48 1.48 0 0 0 .304-.688 1.497 1.497 0 0 0-.046-.76c-.126-.334-.148-.326-.273-.66-.126-.337-.191-.312-.317-.648-.127-.337-.005-.383-.132-.72-.126-.336-.26-.285-.387-.62-.126-.336-.05-.365-.176-.7-.126-.336-.096-.348-.222-.684-.127-.337-.195-.312-.321-.649-.127-.337-.008-.382-.134-.718s-.237-.295-.364-.632c-.127-.338-.161-.325-.288-.663-.127-.337-.037-.371-.163-.708-.127-.337-.184-.316-.311-.653-.126-.336-.103-.345-.23-.682-.127-.338-.064-.361-.191-.7-.128-.338-.11-.345-.238-.683-.127-.34-.282-.282-.41-.622s-.05-.355-.073-.717c.204-.114.318-.205.51-.324.199-.123.41-.224.595-.352.194-.135.34-.325.517-.463.186-.146.351-.304.517-.453.177-.158.406-.254.558-.414.166-.174.197-.449.332-.623.148-.19.375-.31.484-.5a3.598 3.598 0 0 0 .3-.623 2.492 2.492 0 0 0 .177-.68 1.818 1.818 0 0 0-.124-.706 1.803 1.803 0 0 0-.479-.58 2.452 2.452 0 0 0-.626-.38 3.641 3.641 0 0 0-.676-.29 5.976 5.976 0 0 0-.732-.061 7.085 7.085 0 0 0-.726-.077 9.19 9.19 0 0 0-.73.027c-.235.017-.485-.004-.733.03-.235.033-.469.134-.713.182-.234.047-.45.196-.69.257-.232.059-.481.067-.718.14-.23.07-.494.054-.727.138-.228.081-.435.23-.664.323-.228.094-.474.144-.692.245-.224.104-.39.318-.603.429-.22.114-.417.255-.624.376-.215.125-.445.211-.645.343-.208.137-.387.301-.578.443-.201.15-.367.324-.547.478-.191.163-.415.272-.581.438-.18.179-.36.342-.508.522a6.114 6.114 0 0 0-.492.554 3.702 3.702 0 0 0-.29.68 2.358 2.358 0 0 0-.12.72 1.775 1.775 0 0 0 .044.74 1.786 1.786 0 0 0 .415.578 2.409 2.409 0 0 0 .578.402 3.89 3.89 0 0 0 .674.173 4.831 4.831 0 0 0 .66.204c.217.03.452.038.69.046.222.007.45-.142.687-.153.223-.01.458.08.693.053.223-.025.44-.125.671-.166.222-.038.463-.007.693-.059.22-.05.39-.086.616-.15zm26.002 43.864c0 .252-.182.491-.212.735a5.978 5.978 0 0 1-.137.722 6.578 6.578 0 0 1-.085.752 6.32 6.32 0 0 1-.424.625 3.035 3.035 0 0 1-.836 1.207 6.402 6.402 0 0 1-.445.606 6.371 6.371 0 0 1-.646.38 4.152 4.152 0 0 1-2.018.859 5.955 5.955 0 0 1-.715.17 6.351 6.351 0 0 1-.736.189 6.327 6.327 0 0 1-.737-.177 6.136 6.136 0 0 1-.735-.1 7.594 7.594 0 0 1-1.353-.589c-.22-.116-.527-.09-.73-.23a4.52 4.52 0 0 1-1.103-1.024 6.302 6.302 0 0 1-.446-.602 6.446 6.446 0 0 1-.274-.7c-.115-.219-.353-.383-.441-.616a6.586 6.586 0 0 1-.083-.751 6.211 6.211 0 0 1-.26-.707 6.371 6.371 0 0 1-.008-.749 6.237 6.237 0 0 1 .047-.743 14.963 14.963 0 0 1 .362-1.443 6.32 6.32 0 0 1 .245-.71c.116-.22.356-.366.497-.57.141-.204.183-.489.347-.674a6.396 6.396 0 0 1 .587-.472 6.184 6.184 0 0 1 .604-.432 6.23 6.23 0 0 1 .599-.448 6.443 6.443 0 0 1 .728-.188 6.179 6.179 0 0 1 .671-.333 6.213 6.213 0 0 1 .732-.17 6.597 6.597 0 0 1 .751.05 6.404 6.404 0 0 1 .747-.016 6.16 6.16 0 0 1 .73.159 6.076 6.076 0 0 1 .689.284 5.992 5.992 0 0 1 .663.319c.22.116.519.104.722.245.205.141.284.442.469.606a6.17 6.17 0 0 1 .573.469 6.132 6.132 0 0 1 .431.6 3.947 3.947 0 0 1 .76 1.274 6.3 6.3 0 0 1 .134.734c.059.239.257.457.287.706a6.403 6.403 0 0 1 .049.753zM61.769 79.35c-.251 0-.508-.152-.751-.123a6.292 6.292 0 0 0-.743.13c-.243.06-.438.27-.669.357a6.496 6.496 0 0 0-.731.188 465.582 465.582 0 0 1-1.234.853 6.434 6.434 0 0 0-.446.608 6.339 6.339 0 0 0-.538.523 11.368 11.368 0 0 0-.964 2.029 6.368 6.368 0 0 0-.096.748 6.826 6.826 0 0 0 .1.75 6.73 6.73 0 0 0-.088.748 6.168 6.168 0 0 0 .167.73 5.14 5.14 0 0 0 .465 1.425c.116.22.4.338.54.541a5.991 5.991 0 0 0 .453.576 5.262 5.262 0 0 0 1.061 1.014c.204.14.352.38.572.496a6.624 6.624 0 0 0 .74.17c.23.087.425.3.668.36a6.625 6.625 0 0 0 .757.006 6.122 6.122 0 0 0 .737.08 8.985 8.985 0 0 0 1.48-.145 4.052 4.052 0 0 0 1.35-.61 6.485 6.485 0 0 0 .704-.274c.204-.141.31-.407.495-.571a4.018 4.018 0 0 0 1.064-1.031 6.26 6.26 0 0 0 .323-.673 6.352 6.352 0 0 0 .423-.628 6.509 6.509 0 0 0 .109-.747 6.1 6.1 0 0 0 .096-.733 6.167 6.167 0 0 0 .14-.734 151.392 151.392 0 0 0-.214-1.473 4.04 4.04 0 0 0-.451-1.425c-.116-.22-.385-.347-.526-.55-.141-.204-.147-.516-.312-.701a6.41 6.41 0 0 0-.583-.479 6.273 6.273 0 0 0-.57-.486 6.299 6.299 0 0 0-.671-.33 6.103 6.103 0 0 0-.683-.29 6.198 6.198 0 0 0-.684-.309 6.733 6.733 0 0 0-.758.02 6.041 6.041 0 0 0-.732-.04zm0-43.553c-.251 0-.508-.152-.751-.123a6.294 6.294 0 0 0-.743.13c-.243.06-.438.27-.669.357a6.494 6.494 0 0 0-.731.188 6.258 6.258 0 0 0-.617.427 6.314 6.314 0 0 0-.617.426 6.433 6.433 0 0 0-.446.608 6.339 6.339 0 0 0-.538.523 7.732 7.732 0 0 0-.686 1.328 6.249 6.249 0 0 0-.278.7 6.368 6.368 0 0 0-.096.75 6.826 6.826 0 0 0 .1.749 6.73 6.73 0 0 0-.088.748 6.168 6.168 0 0 0 .167.73 5.14 5.14 0 0 0 .465 1.425c.116.22.4.338.54.541a5.991 5.991 0 0 0 .453.576 5.262 5.262 0 0 0 1.061 1.014c.204.14.352.38.572.496a6.624 6.624 0 0 0 .74.17c.23.087.425.3.668.36a6.625 6.625 0 0 0 .757.006 6.12 6.12 0 0 0 .737.08 8.984 8.984 0 0 0 1.48-.145 4.052 4.052 0 0 0 1.35-.61 6.484 6.484 0 0 0 .704-.274c.204-.141.31-.407.495-.571a4.018 4.018 0 0 0 1.064-1.031 6.261 6.261 0 0 0 .323-.673 6.353 6.353 0 0 0 .423-.628 6.509 6.509 0 0 0 .109-.747 6.099 6.099 0 0 0 .096-.733 6.167 6.167 0 0 0 .14-.734 6.17 6.17 0 0 0-.105-.739 6.132 6.132 0 0 0-.109-.734 4.04 4.04 0 0 0-.451-1.425c-.116-.22-.385-.347-.526-.55-.141-.204-.147-.516-.312-.701a6.41 6.41 0 0 0-.583-.478 6.275 6.275 0 0 0-.569-.487 6.3 6.3 0 0 0-.672-.33 6.1 6.1 0 0 0-.683-.29 6.198 6.198 0 0 0-.684-.309 6.733 6.733 0 0 0-.758.02 6.041 6.041 0 0 0-.732-.04zM41.576 47.144c-.25 0-.507-.152-.75-.123a6.293 6.293 0 0 0-.743.13c-.243.06-.439.27-.67.357a6.495 6.495 0 0 0-.73.188 6.259 6.259 0 0 0-.617.427 6.315 6.315 0 0 0-.618.426 6.435 6.435 0 0 0-.445.607 6.339 6.339 0 0 0-.538.524 11.366 11.366 0 0 0-.964 2.029 6.368 6.368 0 0 0-.097.748 6.823 6.823 0 0 0 .1.75 6.727 6.727 0 0 0-.088.748 6.168 6.168 0 0 0 .168.73 5.14 5.14 0 0 0 .465 1.425c.116.22.4.338.54.541a5.993 5.993 0 0 0 .452.575 5.262 5.262 0 0 0 1.062 1.015c.203.14.351.38.571.496a6.625 6.625 0 0 0 .74.17c.231.087.426.3.668.359a6.627 6.627 0 0 0 .757.006 6.12 6.12 0 0 0 .737.082 8.985 8.985 0 0 0 1.48-.146 4.052 4.052 0 0 0 1.351-.61 6.484 6.484 0 0 0 .703-.274c.204-.142.31-.407.495-.572a4.017 4.017 0 0 0 1.065-1.03 6.262 6.262 0 0 0 .322-.673 6.353 6.353 0 0 0 .423-.628 6.51 6.51 0 0 0 .11-.747 6.1 6.1 0 0 0 .095-.733 6.167 6.167 0 0 0 .14-.734 6.17 6.17 0 0 0-.105-.739 6.132 6.132 0 0 0-.108-.734 4.04 4.04 0 0 0-.452-1.425c-.115-.22-.385-.347-.525-.55-.142-.204-.148-.516-.312-.701a6.41 6.41 0 0 0-.583-.479 6.273 6.273 0 0 0-.57-.486 6.3 6.3 0 0 0-.672-.33 6.101 6.101 0 0 0-.682-.29 6.2 6.2 0 0 0-.684-.309 6.735 6.735 0 0 0-.759.02 6.043 6.043 0 0 0-.732-.04zm40.878 0c-.25 0-.507-.152-.75-.123a6.293 6.293 0 0 0-.743.13c-.243.06-.439.27-.67.357a6.495 6.495 0 0 0-.73.188 470.995 470.995 0 0 1-1.235.853 6.434 6.434 0 0 0-.445.607 6.339 6.339 0 0 0-.538.524 11.366 11.366 0 0 0-.964 2.029 6.368 6.368 0 0 0-.097.748 6.823 6.823 0 0 0 .1.75 6.727 6.727 0 0 0-.088.748 6.168 6.168 0 0 0 .168.73 5.14 5.14 0 0 0 .465 1.425c.116.22.4.338.54.541a5.993 5.993 0 0 0 .452.575 5.262 5.262 0 0 0 1.062 1.015c.203.14.351.38.571.496a6.625 6.625 0 0 0 .74.17c.231.087.426.3.668.359a6.627 6.627 0 0 0 .757.006 6.12 6.12 0 0 0 .737.082 8.985 8.985 0 0 0 1.48-.146 4.052 4.052 0 0 0 1.351-.61 6.484 6.484 0 0 0 .703-.274c.204-.142.31-.407.495-.572a4.017 4.017 0 0 0 1.065-1.03 6.262 6.262 0 0 0 .322-.673 6.353 6.353 0 0 0 .423-.628 6.51 6.51 0 0 0 .11-.747 6.1 6.1 0 0 0 .095-.733 6.167 6.167 0 0 0 .14-.734 6.17 6.17 0 0 0-.105-.739 6.132 6.132 0 0 0-.108-.734 4.04 4.04 0 0 0-.452-1.425c-.115-.22-.385-.347-.525-.55-.142-.204-.148-.516-.312-.701a6.41 6.41 0 0 0-.583-.479 2.991 2.991 0 0 0-1.242-.816 6.101 6.101 0 0 0-.682-.29 6.2 6.2 0 0 0-.684-.309 6.736 6.736 0 0 0-.759.02 6.043 6.043 0 0 0-.732-.04zM41.576 67.033c-.25 0-.507-.152-.75-.123a6.293 6.293 0 0 0-.743.13c-.243.059-.439.27-.67.357a6.495 6.495 0 0 0-.73.187 6.259 6.259 0 0 0-.617.427 6.315 6.315 0 0 0-.618.426 6.435 6.435 0 0 0-.445.608 6.339 6.339 0 0 0-.538.523 11.366 11.366 0 0 0-.964 2.03 6.368 6.368 0 0 0-.097.748 6.823 6.823 0 0 0 .1.75 6.727 6.727 0 0 0-.088.748 6.168 6.168 0 0 0 .168.73 5.14 5.14 0 0 0 .465 1.424c.116.22.4.338.54.542a5.993 5.993 0 0 0 .452.575 5.262 5.262 0 0 0 1.062 1.015c.203.14.351.38.571.496a6.625 6.625 0 0 0 .74.17c.231.087.426.299.668.359a6.627 6.627 0 0 0 .757.006 6.12 6.12 0 0 0 .737.081 8.985 8.985 0 0 0 1.48-.145 4.052 4.052 0 0 0 1.351-.61 6.484 6.484 0 0 0 .703-.275c.204-.141.31-.407.495-.571a4.017 4.017 0 0 0 1.065-1.03 6.262 6.262 0 0 0 .322-.674 6.353 6.353 0 0 0 .423-.627 6.51 6.51 0 0 0 .11-.748 6.1 6.1 0 0 0 .095-.732 6.167 6.167 0 0 0 .14-.735 150.984 150.984 0 0 0-.213-1.472 4.04 4.04 0 0 0-.452-1.426c-.115-.22-.385-.346-.525-.55-.142-.204-.148-.515-.312-.7a6.41 6.41 0 0 0-.583-.48 6.275 6.275 0 0 0-.57-.486 6.3 6.3 0 0 0-.672-.33 6.101 6.101 0 0 0-.682-.29 6.2 6.2 0 0 0-.684-.308 6.735 6.735 0 0 0-.759.02 6.043 6.043 0 0 0-.732-.04zm40.878 0c-.25 0-.507-.152-.75-.123a6.293 6.293 0 0 0-.743.13c-.243.059-.439.27-.67.357a6.495 6.495 0 0 0-.73.187 470.995 470.995 0 0 1-1.235.853 6.434 6.434 0 0 0-.445.608 6.339 6.339 0 0 0-.538.523 11.366 11.366 0 0 0-.964 2.03 6.368 6.368 0 0 0-.097.748 6.823 6.823 0 0 0 .1.75 6.727 6.727 0 0 0-.088.748 6.168 6.168 0 0 0 .168.73 5.14 5.14 0 0 0 .465 1.424c.116.22.4.338.54.542a5.993 5.993 0 0 0 .452.575 5.262 5.262 0 0 0 1.062 1.015c.203.14.351.38.571.496a6.625 6.625 0 0 0 .74.17c.231.087.426.299.668.359a6.627 6.627 0 0 0 .757.006 6.12 6.12 0 0 0 .737.081 8.985 8.985 0 0 0 1.48-.145 4.052 4.052 0 0 0 1.351-.61 6.484 6.484 0 0 0 .703-.275c.204-.141.31-.407.495-.571a4.017 4.017 0 0 0 1.065-1.03 6.262 6.262 0 0 0 .322-.674 6.353 6.353 0 0 0 .423-.627 6.51 6.51 0 0 0 .11-.748 6.1 6.1 0 0 0 .095-.732 6.167 6.167 0 0 0 .14-.735 150.984 150.984 0 0 0-.213-1.472 4.04 4.04 0 0 0-.452-1.426c-.115-.22-.385-.346-.525-.55-.142-.204-.148-.515-.312-.7a6.41 6.41 0 0 0-.583-.48 2.991 2.991 0 0 0-1.242-.816 6.101 6.101 0 0 0-.682-.29 6.2 6.2 0 0 0-.684-.308 6.736 6.736 0 0 0-.759.02 6.043 6.043 0 0 0-.732-.04z"/></g></svg></g><g transform="translate(374.0 139.0) rotate(19.835569245794456 29.5 19.0) scale(0.09833333333333333 0.0987012987012987)"><svg width="600" height="385" viewBox="0 0 600 385"><linearGradient id="g" gradientTransform="matrix(.5555 0 0 -.5555 100 251.1035)" gradientUnits="userSpaceOnUse" x1="-180.004" x2="900.021" y1="105.489" y2="105.489"><stop offset="0" stop-color="#28306d"/><stop offset=".51" stop-color="#1f275f"/><stop offset="1" stop-color="#171f51"/></linearGradient><path d="M590.35 175.193c25.594-73.146-1.493-149.367-60.33-170.031h-.031c-58.9-20.57-127.658 22.186-153.282 95.3a170.89 170.89 0 0 0-6.779 25.697 148.74 148.74 0 0 0-106.076 34.677c-1.057-4.195-1.679-8.545-3.079-12.615a118.642 118.642 0 0 0-72.023-76.719C120.614 47.701 41.034 97.324 11.305 182.122a184.447 184.447 0 0 0-2.363 120.314 123.764 123.764 0 0 0 51.467 66.993 108.838 108.838 0 0 0 20.525 9.726c35.203 11.466 73.702 5.872 104.21-15.101a184.726 184.726 0 0 0 73.236-95.518 192.475 192.475 0 0 0 9.765-85.698 137.562 137.562 0 0 1 99.39-36.355c-5.225 45.18 14.741 89.583 51.996 115.715 5.536 3.387 11.413 6.152 17.539 8.328 58.897 20.537 127.655-22.219 153.28-95.333zM174.134 346.714c-41.485 30.637-99.949 21.844-130.581-19.576a93.136 93.136 0 0 1-15.113-31.383c-11.165-34.864-10.356-72.493 2.333-106.829 25.967-74.14 93.791-118.108 151.199-98.035a85.75 85.75 0 0 1 16.545 7.83c20.432 13.144 35.607 32.999 42.853 56.18 21.611 71.718-5.537 149.213-67.236 191.813zm269.744-95.641c-48.295-16.935-69.598-81.38-47.705-143.836S475.068 7.68 523.239 24.521c48.357 16.904 69.598 81.41 47.704 143.836-21.891 62.487-78.894 99.588-127.065 82.716z" fill="url(#g)"/></svg></g><g transform="translate(662.0 98.0) rotate(117.54399626024816 -86.5 412.0) scale(-1.1926921751120303 1.1849465767411094)"><svg width="145.05" height="695.39" viewBox="0 0 145.05 695.39"><linearGradient id="h" gradientTransform="matrix(.83369311 -.55222803 .55222803 .83369311 -5459.51 -2031.27)" gradientUnits="userSpaceOnUse" x1="3045.64" x2="3194" y1="5290.14" y2="5290.14"><stop offset=".13" stop-color="#28465C"/><stop offset="1" stop-color="#1d72d8"/></linearGradient><path d="m84.24 286.12-18.27-.03L75.74 0z" fill="#d6d7d8"/><path d="m72.793 233.714 6.1.036a19 19 0 0 1 18.89 19.109l-.175 30.36-44.14-.255.175-30.32a19 19 0 0 1 19.15-18.93z" fill="#28465C"/><path d="m65.08 561.01-.23 116.01-64.81-.09L0 695.19l144.77.2.04-18.26-55.97-.08.22-116.04z" fill="url(#h)"/><path d="m126 551 .5-256.4a25.6 25.6 0 0 0-25.57-25.66l-51.58-.06a25.61 25.61 0 0 0-25.65 25.54l-.5 256.42H.27v18.26l64.82.09h24l56 .08V551z" fill="#a1c3fc"/><g fill="#28465C"><path d="M126.6 338h-33a7 7 0 0 1-7-7 7 7 0 0 1 7-7h33zm-.28 149h-33a7 7 0 0 1-7-7 7 7 0 0 1 7-7h33zm.21-111.75h-15.85a7 7 0 0 1-7-7 7 7 0 0 1 7-7h15.86zm-.07 37.24h-15.85a7 7 0 0 1-7-7 7 7 0 0 1 7-7h15.86zm-.07 37.23h-15.85a7 7 0 0 1-7-7 7 7 0 0 1 7-7h15.86z"/></g></svg></g></svg>