<svg xmlns="http://www.w3.org/2000/svg" viewBox="0 0 800 1200" width="800" height="1200"><path fill="#FFF" d="M0 0h800v1200H0z"/><g transform="translate(15.0 51.0) rotate(0.0 243.5 549.5) translate(0.0 0.0) scale(1.0219713344385453 1.020607163752194)"><svg width="476.53" height="1076.81" viewBox="0 0 476.53 1076.81"><linearGradient id="c" gradientUnits="userSpaceOnUse" x1="476.53" x2="266.98" y1="468.4" y2="468.4"><stop offset="0" stop-color="#FFBDB6"/><stop offset="1" stop-color="#F2A09C"/></linearGradient><linearGradient id="a" gradientTransform="matrix(-.13 0 0 -.12 -4385.56 8737.73)" gradientUnits="userSpaceOnUse" x1="-32793.49" x2="-35487.26" y1="66190.22" y2="64519.4"><stop offset="0" stop-color="#a1c3fc"/><stop offset=".7" stop-color="#81aef2"/><stop offset="1" stop-color="#78a9ef"/></linearGradient><linearGradient xmlns:xlink="http://www.w3.org/1999/xlink" id="d" gradientTransform="matrix(-.12 .05 -.05 -.11 -3968.55 8864.18)" x1="-54876.34" x2="-57466.6" xlink:href="#a" y1="46633.32" y2="45026.7"/><linearGradient id="b" gradientTransform="matrix(.13 0 0 -.13 -3417.39 8771.94)" gradientUnits="userSpaceOnUse" x1="27432.44" x2="30200" y1="65369.02" y2="62605.36"><stop offset=".09" stop-color="#EEEDEE"/><stop offset=".82" stop-color="#D6D6D8"/></linearGradient><linearGradient xmlns:xlink="http://www.w3.org/1999/xlink" id="e" x1="141.13" x2="361.17" xlink:href="#b" y1="263.54" y2="390.58"/><linearGradient id="f" gradientTransform="matrix(-.97 -.24 -.24 .97 -4378.54 -535.04)" gradientUnits="userSpaceOnUse" x1="-4752.22" x2="-4698.09" y1="-475.55" y2="-475.55"><stop offset=".13" stop-color="#428DFC" stop-opacity="0"/><stop offset="1" stop-color="#1D72D8" stop-opacity="0"/></linearGradient><path d="M429.79 523.18s-38 3.38-52.75-23.23-21.15-24.07-42-28.58c-9-1.95-42.38-10.75-68.08-17.95l51.36-39.94c21.94 19.21 52.6 44.26 66.41 47.5 22.69 5.28 44-1.75 54.16-.05s12.82 3.3 12.71 10.87c0 0 4.92 1.69 17.93 5 24.89 7.96-23.41 46.2-39.74 46.38z" fill="url(#c)"/><path d="M33.42 983.53 0 1076.81h238.36s-12.22-23.6-53-41.09-73.33-52-73.33-52l-78.65-.24" fill="#23286b"/><path d="m248.82 983.05-33.44 93.76h238.36s-12.22-23.6-53-41.09-78.57-53.33-78.57-53.33l-73.39.66" fill="#23286b"/><path d="M112.07 983.77c20.07-34.3 107.73-227.91 116.62-273.95 7.74-40.21 9.18-86.94 7.13-129.72l-2-177.16L109.19 393c-6.06 8-11.68 49.39 11.5 180.35 17.94 101.42-9.12 112.57-27.21 147S73.1 765.91 66.68 799c-7.32 37.64-22.44 46.94-30.6 84.69-9 41.54-5.75 85.83-2.66 99.88z" fill="url(#a)"/><path d="M90.1 411.58c-2.16 9.78-17.54 88.22 67.66 181.85 65.54 67.84 35.32 85.7 34.5 139.73-.47 31 12.45 47.72 20.42 80.42 9.09 37.25-5.37 39.86 2.7 91.39 8.11 51.77 33.44 78.08 33.44 78.08l73.38-.66s17.32-240.94 5.05-291c-9.78-39.76-34.73-123.66-54.48-161.65L203.87 376z" fill="url(#d)"/><path d="M168.47 464a.47.47 0 0 0 .61-.25.47.47 0 1 0-.86-.37.47.47 0 0 0 .25.62zm4.44-10.67a.5.5 0 0 0 .65-.26.47.47 0 0 0-.28-.61.45.45 0 0 0-.6.2s0 0 0 .05a.47.47 0 0 0 .25.62zm4.48-10.67a.46.46 0 0 0 .61-.25.52.52 0 0 0-.25-.66.53.53 0 0 0-.65.29.5.5 0 0 0 .29.62zm39.45 21.21a.49.49 0 0 0 .63.28.44.44 0 0 0 .27-.56v-.06a.46.46 0 0 0-.59-.28.49.49 0 0 0-.28.62zm-65-18.59a.46.46 0 1 0 .66-.65.46.46 0 0 0-.65 0 .45.45 0 0 0 0 .63zm40.49 17.08a.54.54 0 0 0 .49.49.49.49 0 1 0 0-1 .52.52 0 0 0-.49.49zm0-11.57a.47.47 0 0 0 .49.46.46.46 0 0 0 .49-.42.5.5 0 0 0-.49-.49.52.52 0 0 0-.49.49zm-86.85 16.07a.9.9 0 0 0 1.26.11.89.89 0 0 0 .1-1.25.89.89 0 0 0-1.26-.11.89.89 0 0 0-.09 1.25zM122 452.49a.92.92 0 0 0 1.29.09.93.93 0 0 0 .09-1.29.89.89 0 0 0-1.25-.1.93.93 0 0 0-.12 1.29zm49.21 69.31a.91.91 0 0 0 .85 1 .86.86 0 0 0 1-.77.09.09 0 0 0 0-.05.92.92 0 0 0-.86-1 .89.89 0 0 0-1 .82zm1.52-21.86a.91.91 0 1 0 1.82.12.91.91 0 0 0-.82-1 1 1 0 0 0-1 .86zm1.6-21.94a.9.9 0 0 0 .82 1 .87.87 0 0 0 1-.77v-.05a1 1 0 0 0-.86-1 .92.92 0 0 0-1 .85zm1.53-21.85a.89.89 0 0 0 .86 1 .91.91 0 0 0 .13-1.82.92.92 0 0 0-1 .83zm-46.22 44.15a.91.91 0 0 0 1.2-.44.9.9 0 0 0-1.63-.77.94.94 0 0 0 .43 1.21zm9.78-19.62a.9.9 0 1 0-.43-1.22.93.93 0 0 0 .43 1.22zm9.79-19.6a.91.91 0 0 0 1.22-.44.92.92 0 0 0-1.65-.82.94.94 0 0 0 .39 1.25zm9.79-19.66a.89.89 0 0 0 1.21-.37.9.9 0 1 0-1.59-.83.88.88 0 0 0 .34 1.17zm53.74 65a.92.92 0 0 0 1.16.56.88.88 0 0 0 .56-1.12.87.87 0 0 0-1.06-.62h-.07a1 1 0 0 0-.59 1.17zm-6.93-20.82a1 1 0 0 0 1.16.59.92.92 0 0 0 .56-1.16.9.9 0 0 0-1.14-.56.88.88 0 0 0-.56 1.12zm-6.93-20.78a.86.86 0 0 0 1.08.58h.05a.89.89 0 0 0 .6-1.12.91.91 0 0 0-1.72.59zm-7-20.81a.92.92 0 0 0 1.16.56.86.86 0 0 0 .57-1.09.91.91 0 0 0-1.13-.59.94.94 0 0 0-.59 1.16zm-81.21 46.22a.8.8 0 0 0 1.11-.25.81.81 0 0 0-.26-1.11.8.8 0 0 0-1.11.25.83.83 0 0 0 .26 1.11zm10.36-16.59a.81.81 0 0 0 1.11-.26.79.79 0 0 0-.22-1.11.8.8 0 0 0-1.11.21v.05a.78.78 0 0 0 .23 1.09zm10-17.08a.64.64 0 0 0 .33.48.82.82 0 0 0 1.11-.25.84.84 0 0 0-.25-1.14.82.82 0 0 0-.76-.05.61.61 0 0 0-.32.31.7.7 0 0 0-.07.66zm10.69-16.12a.8.8 0 0 0 1.12-.27.82.82 0 0 0-1.38-.87.83.83 0 0 0 .25 1.14zm49.69 62.86a.86.86 0 0 0 1 .62.78.78 0 0 0 .59-.93.81.81 0 0 0-1-.62.85.85 0 0 0-.62 1zm-4.36-19a.8.8 0 0 0 1 .59.79.79 0 0 0 .6-.93.81.81 0 0 0-1-.62.84.84 0 0 0-.58 1zm-4.41-19.1a.8.8 0 0 0 .95.62.76.76 0 0 0 .6-.89.24.24 0 0 0 0-.08.8.8 0 0 0-1-.62.81.81 0 0 0-.5.89zm-4.4-19a.82.82 0 0 0 1 .58.81.81 0 0 0 .58-1 .84.84 0 0 0-1-.62.86.86 0 0 0-.61 1zm-75.78-2.72a.8.8 0 0 0 1.11.19.78.78 0 0 0 .21-1.07.79.79 0 0 0-1.11-.22.84.84 0 0 0-.17 1.14zm47 51a.82.82 0 0 0 1.61.27.86.86 0 0 0-.66-1 .84.84 0 0 0-.95.69zM152.8 475a.77.77 0 0 0 .6.91.8.8 0 0 0 .92-.65.85.85 0 0 0-.65-1 .82.82 0 0 0-.92.69zm3.2-19.28a.8.8 0 1 0 1.57.28.8.8 0 1 0-1.57-.27zm66.7 23a.77.77 0 0 0 1.06.21h.05a.8.8 0 0 0 .22-1.11.84.84 0 0 0-1.14-.17.81.81 0 0 0-.19 1.11zm-11.35-15.94a.81.81 0 1 0 .2-1.14.79.79 0 0 0-.22 1.1zM112 441.69a.48.48 0 0 0 .68 0 .48.48 0 1 0-.71-.65.5.5 0 0 0 0 .68zm45.31 16.7a.47.47 0 0 0 .49.46.48.48 0 1 0 0-1 .47.47 0 0 0-.46.49zm-.42-11.53a.5.5 0 0 0 .52.45.48.48 0 0 0 .46-.49.45.45 0 0 0-.45-.45.48.48 0 0 0-.49.48zm-22 2a.51.51 0 0 0 .61-.29.45.45 0 0 0-.25-.6.46.46 0 0 0-.6.24.49.49 0 0 0 .28.62zm43.85-1.43a.47.47 0 0 0 .62.24.48.48 0 0 0 .24-.62.45.45 0 0 0-.57-.27h-.05a.47.47 0 0 0-.25.61zm-75 5.74a.51.51 0 0 0 .71-.15.53.53 0 0 0-.13-.74.52.52 0 0 0-.72.16.55.55 0 0 0 .17.76zM110.8 442a.55.55 0 0 0 .77-.16.56.56 0 0 0-.17-.77.52.52 0 0 0-.72.15.53.53 0 0 0 .1.74zm47.2 20.55a.5.5 0 0 0 .58.41h.06a.54.54 0 0 0 .4-.65.58.58 0 0 0-.64-.43.54.54 0 0 0-.4.67zm-2.86-12.87a.57.57 0 0 0 .68.4.54.54 0 0 0 .4-.65.59.59 0 0 0-.65-.43.6.6 0 0 0-.43.68zm-24.1 6.84a.58.58 0 0 0 .21.1.52.52 0 0 0 .62-.42.55.55 0 0 0-.41-.63.55.55 0 0 0-.63.43.49.49 0 0 0 .24.52zm2.13-13.52a.53.53 0 0 0 .41.63.59.59 0 0 0 .67-.42.61.61 0 0 0-.45-.66.55.55 0 0 0-.63.44zm47 3a.53.53 0 0 0 .75.13.54.54 0 0 0 .13-.73.52.52 0 0 0-.72-.18.56.56 0 0 0-.15.77zm-69.92 65a1 1 0 0 0 .8 1.07.94.94 0 0 0 1.07-.77 1 1 0 0 0-.8-1.07.94.94 0 0 0-1.07.77zm3.52-22.33a.92.92 0 0 0 .77 1.07.93.93 0 1 0-.77-1.07zm3.49-22.33a1 1 0 0 0 .8 1.07.92.92 0 0 0 1-.81.92.92 0 0 0-1.83-.26zm3.56-22.34a.93.93 0 1 0 1.07-.77.93.93 0 0 0-1.07.77zm82 45.35a1 1 0 0 0 1.34.2.94.94 0 0 0 .16-1.32A1 1 0 0 0 203 488a1 1 0 0 0-.21 1.31zm-13.28-18.27a1 1 0 0 0 1.31.21.94.94 0 0 0-1.09-1.52 1 1 0 0 0-.21 1.31zm-13.28-18.26a1 1 0 0 0 1.3.21 1 1 0 0 0 .21-1.34.94.94 0 0 0-1.51 1.13zm-82.85-5.52a.95.95 0 1 0-.31-1.3 1 1 0 0 0 .31 1.3zm61.26 52.12a1 1 0 0 0 1.14.7 1 1 0 0 0 .66-1.14.93.93 0 0 0-1.09-.71.93.93 0 0 0-.69 1.14zm-5.3-22a1 1 0 0 0 1.14.7.92.92 0 0 0 .67-1.11.93.93 0 0 0-1.81.41zm-5.29-22a.93.93 0 0 0 1.09.71.94.94 0 1 0-.39-1.84.92.92 0 0 0-.72 1.11zm-57.93-22.86a1 1 0 0 0 1.3-.25 1 1 0 0 0-.27-1.3.9.9 0 0 0-1.25.2.94.94 0 0 0 .23 1.3zM141 506.69a.92.92 0 1 0 .73-1.12 1 1 0 0 0-.73 1.12zm-4.36-22.09a.94.94 0 0 0 1.11.73 1 1 0 0 0 .73-1.08 1 1 0 0 0-1.11-.77 1 1 0 0 0-.73 1.12zm-4.36-22.09a.93.93 0 0 0 1.11.73.93.93 0 0 0-.35-1.82 1 1 0 0 0-.76 1.09zm-4.33-22.09a.9.9 0 0 0 1 .75h.05a.93.93 0 0 0 .73-1.09.92.92 0 0 0-1.07-.74.91.91 0 0 0-.74 1.08zm-29.32 31.63a.93.93 0 0 0 .73 1.08.94.94 0 0 0 1.11-.71 1 1 0 0 0-.74-1.11 1 1 0 0 0-1.11.74zm4.44-22.05a.93.93 0 1 0 1.81.39 1 1 0 0 0-.74-1.11.91.91 0 0 0-1.07.73zm75.83 28.88a.93.93 0 0 0 1.31.24.94.94 0 0 0-1-1.58.92.92 0 0 0-.29 1.28zm-12.47-18.78a1 1 0 0 0 1.31.25.93.93 0 0 0 .25-1.28.91.91 0 0 0-1.25-.3.94.94 0 0 0-.3 1.29zM154 441.37a1 1 0 0 0 1.31.24.94.94 0 0 0-1.05-1.55.94.94 0 0 0-.28 1.29zm-12.5 26.45a.69.69 0 0 0 .92.36.71.71 0 0 0 .38-.9.68.68 0 0 0-.87-.39h-.06a.7.7 0 0 0-.37.9zm-6.67-15.58a.71.71 0 0 0 .94.36.71.71 0 0 0-.55-1.31.74.74 0 0 0-.37.94zm-29.27 13.88a.71.71 0 0 0 .72.69.74.74 0 0 0 .68-.72.7.7 0 0 0-.71-.69.69.69 0 0 0-.69.67zm-.22-17a.74.74 0 0 0 .72.72.69.69 0 0 0 .68-.71.67.67 0 0 0-.66-.69.69.69 0 0 0-.72.67zm60.26-7.59a.69.69 0 0 0 1 0 .7.7 0 0 0 0-1 .7.7 0 0 0-1 .05.71.71 0 0 0 0 1zm-53.46 2.13a.63.63 0 0 0 .87.18.58.58 0 0 0 .21-.79V443a.6.6 0 0 0-.81-.24.61.61 0 0 0-.23.84z" fill="#fff" opacity=".86"/><path d="M242.53 280.58v1.8l-16.84 101.76L316.23 574c-7.33.55-234.39 11.81-234.39 11.81-51.62-289.42 55.71-414.89 151.62-442.49-.13 27.6 27.8 26.24 27.8 26.24s-19.47 66.56-18.73 111.02z" fill="url(#b)"/><path d="m326.43 393.5-37.91 122.9S245.14 507.62 227 475c-10.89-19.6-21.29-29.45-31.61-35.48-9-5.28-17.89-7.64-27-11.07-19.61-7.34-59-34.94-45.4-101.45s42.46-118.68 110.48-183.72l27.81 26.24s-19.47 66.56-18.74 111v1.79c.84 43.1 5.59 58.3 36.49 79.89 24.48 17.14 47.4 31.3 47.4 31.3z" fill="url(#e)"/><path d="m271.28 139.79-.08.16a226.77 226.77 0 0 0-9.94 29.61s-30.19 10.39-27.8-26.24a40.42 40.42 0 0 0 5.54-12.64 103.05 103.05 0 0 0 11.35 4.32 89 89 0 0 0 12.16 3.64 10.65 10.65 0 0 0 1.36.3 16.4 16.4 0 0 0 2 .35.88.88 0 0 0 .27.06 38.77 38.77 0 0 0 5.14.44z" fill="#F8AEA9"/><path d="M242.69 115c-3.37-11.54-9.41-24.27 3.08-28.22 10.16-3.18 11.5 6.81 27.47 4 12.12-2.44 16.13-7.9 16.13-7.9s19.67 17.36 43.95 17.88c-.29 3.41-1.8 20.75-2.2 26.82-.32 6.9.38 16.19-14.95 11.94 0 0-21.92 28.49-55.47 7.5-14.67-9.18-19.58-14.4-22.45-18 1-.94 7.5-3.39 4.44-14.02z" fill="#FFBDB6"/><path d="M351.73 118.82c4-6.54 3.75-14.38-.82-17.63-4.58-3.26-11.64-.68-15.89 5.81-.44.69-.94 1.65-1.38 2.35a12.9 12.9 0 0 0-10.17 1c.12-.51-.07-.82 0-1.33a11.82 11.82 0 0 0-4.24-9.07c-5.21-3.94-13.47-.85-18.22 6.59a20.9 20.9 0 0 0-3.33 11.53 13.47 13.47 0 0 0 2.71 7.63 6.61 6.61 0 0 0 1.53 1.44 9.35 9.35 0 0 0 9.43.94 19.12 19.12 0 0 0 8.8-7.52 24.5 24.5 0 0 0 3-8.12c3-1.16 6.81-2.64 9.67-1.15a12.19 12.19 0 0 0 1.35 12.13l1.34 1.13c4.66 3.27 11.72.69 16.22-5.73zm-40.91 7.27a7.83 7.83 0 0 1-7.91-.58 9.42 9.42 0 0 1-3.54-7.56 16.72 16.72 0 0 1 3-10.27c4.25-6.48 11.13-9.37 15.7-6.12l1.34 1.13a10.49 10.49 0 0 1 2.2 6.43 16.72 16.72 0 0 1-3 10.27 16.18 16.18 0 0 1-7.79 6.7zm25.71-3.17c-3.88-2.82-3.93-9.27-.43-14.86 3.75-5.53 9.68-7.85 13.3-5.09 3.88 2.81 3.93 9.26.43 14.85s-9.42 7.92-13.3 5.1z" fill="url(#f)"/><path d="M204.61 61.76c-3.36 23.86 14.79 49.71 33.58 67.4 0 0 14-9 6.25-18.07-6.26-7.41-11.16-20.4 1.33-24.35 10.16-3.17 11.5 6.81 27.47 4 12.06-2.18 16.13-7.9 16.13-7.9s19.86 17.68 44.46 18c19.31 3.33 39.3-3.9 46.35-25.26a1 1 0 0 0-2-.5c-5.25 16.17-18.35 23.73-32.76 24.53A43.8 43.8 0 0 0 355.93 96c33.76-16.5 14.36-40.51-11.55-29.88 0 0 13.49-22.49-2.83-40.39s-46-5-46-5S285.83-1.2 262.19.05s-36.76 41.78-36.76 41.78c-8.07-3.51-16.74.9-20.82 19.93z" fill="#23286b"/></svg></g><g transform="translate(353.0 167.0) rotate(26.769796422832137 -35.5 27.0) scale(-1.1884834281888181 1.200293405054569)"><svg width="59.74" height="44.989" viewBox="0 0 59.74 44.989"><path d="M23.926 44.824 59.74 41.78c-7.005-12.143-8.26-23.263 0-32.69L6.997.094C-5.704-2.47-1.716 48.243 23.926 44.824z" fill="#c3d9fd"/></svg></g><g transform="translate(317.0 140.0) rotate(19.835569245794456 29.5 19.0) scale(0.09833333333333333 0.0987012987012987)"><svg width="600" height="385" viewBox="0 0 600 385"><linearGradient id="g" gradientTransform="matrix(.5555 0 0 -.5555 100 251.1035)" gradientUnits="userSpaceOnUse" x1="-180.004" x2="900.021" y1="105.489" y2="105.489"><stop offset="0" stop-color="#28306d"/><stop offset=".51" stop-color="#1f275f"/><stop offset="1" stop-color="#171f51"/></linearGradient><path d="M590.35 175.193c25.594-73.146-1.493-149.367-60.33-170.031h-.031c-58.9-20.57-127.658 22.186-153.282 95.3a170.89 170.89 0 0 0-6.779 25.697 148.74 148.74 0 0 0-106.076 34.677c-1.057-4.195-1.679-8.545-3.079-12.615a118.642 118.642 0 0 0-72.023-76.719C120.614 47.701 41.034 97.324 11.305 182.122a184.447 184.447 0 0 0-2.363 120.314 123.764 123.764 0 0 0 51.467 66.993 108.838 108.838 0 0 0 20.525 9.726c35.203 11.466 73.702 5.872 104.21-15.101a184.726 184.726 0 0 0 73.236-95.518 192.475 192.475 0 0 0 9.765-85.698 137.562 137.562 0 0 1 99.39-36.355c-5.225 45.18 14.741 89.583 51.996 115.715 5.536 3.387 11.413 6.152 17.539 8.328 58.897 20.537 127.655-22.219 153.28-95.333zM174.134 346.714c-41.485 30.637-99.949 21.844-130.581-19.576a93.136 93.136 0 0 1-15.113-31.383c-11.165-34.864-10.356-72.493 2.333-106.829 25.967-74.14 93.791-118.108 151.199-98.035a85.75 85.75 0 0 1 16.545 7.83c20.432 13.144 35.607 32.999 42.853 56.18 21.611 71.718-5.537 149.213-67.236 191.813zm269.744-95.641c-48.295-16.935-69.598-81.38-47.705-143.836S475.068 7.68 523.239 24.521c48.357 16.904 69.598 81.41 47.704 143.836-21.891 62.487-78.894 99.588-127.065 82.716z" fill="url(#g)"/></svg></g><g transform="translate(605.0 104.0) rotate(117.54399626024816 -86.5 412.0) scale(-1.1926921751120303 1.1849465767411094)"><svg width="145.05" height="695.39" viewBox="0 0 145.05 695.39"><linearGradient id="h" gradientTransform="matrix(.83369311 -.55222803 .55222803 .83369311 -5459.51 -2031.27)" gradientUnits="userSpaceOnUse" x1="3045.64" x2="3194" y1="5290.14" y2="5290.14"><stop offset=".13" stop-color="#28465C"/><stop offset="1" stop-color="#1d72d8"/></linearGradient><path d="m84.24 286.12-18.27-.03L75.74 0z" fill="#d6d7d8"/><path d="m72.793 233.714 6.1.036a19 19 0 0 1 18.89 19.109l-.175 30.36-44.14-.255.175-30.32a19 19 0 0 1 19.15-18.93z" fill="#28465C"/><path d="m65.08 561.01-.23 116.01-64.81-.09L0 695.19l144.77.2.04-18.26-55.97-.08.22-116.04z" fill="url(#h)"/><path d="m126 551 .5-256.4a25.6 25.6 0 0 0-25.57-25.66l-51.58-.06a25.61 25.61 0 0 0-25.65 25.54l-.5 256.42H.27v18.26l64.82.09h24l56 .08V551z" fill="#a1c3fc"/><g fill="#28465C"><path d="M126.6 338h-33a7 7 0 0 1-7-7 7 7 0 0 1 7-7h33zm-.28 149h-33a7 7 0 0 1-7-7 7 7 0 0 1 7-7h33zm.21-111.75h-15.85a7 7 0 0 1-7-7 7 7 0 0 1 7-7h15.86zm-.07 37.24h-15.85a7 7 0 0 1-7-7 7 7 0 0 1 7-7h15.86zm-.07 37.23h-15.85a7 7 0 0 1-7-7 7 7 0 0 1 7-7h15.86z"/></g></svg></g></svg>